<mxfile host="app.diagrams.net" agent="Mozilla/5.0 (Windows NT 10.0; Win64; x64) AppleWebKit/537.36 (KHTML, like Gecko) Chrome/139.0.0.0 Safari/537.36" version="28.1.2">
  <diagram id="Ht1M8jgEwFfnCIfOTk4-" name="Page-1">
    <mxGraphModel dx="1368" dy="854" grid="1" gridSize="10" guides="1" tooltips="1" connect="1" arrows="1" fold="1" page="1" pageScale="1" pageWidth="1169" pageHeight="827" math="0" shadow="0">
      <root>
        <mxCell id="0" />
        <mxCell id="1" parent="0" />
        <mxCell id="8G_4z4q6PhV-p-1qb1yc-9" value="" style="rounded=0;whiteSpace=wrap;html=1;fontSize=11;fillColor=none;" parent="1" vertex="1">
          <mxGeometry x="20" y="690" width="720" height="120" as="geometry" />
        </mxCell>
        <mxCell id="8G_4z4q6PhV-p-1qb1yc-6" value="" style="shape=image;html=1;verticalAlign=top;verticalLabelPosition=bottom;labelBackgroundColor=#ffffff;imageAspect=0;aspect=fixed;image=https://icons.diagrams.net/icon-cache1/Picons_Social-2097/github_rounded-685.svg" parent="1" vertex="1">
          <mxGeometry x="120" y="730" width="57" height="57" as="geometry" />
        </mxCell>
        <mxCell id="8G_4z4q6PhV-p-1qb1yc-3" value="" style="verticalLabelPosition=bottom;html=1;verticalAlign=top;align=center;strokeColor=none;fillColor=#F26D56;shape=mxgraph.azure.git_repository;" parent="1" vertex="1">
          <mxGeometry x="60" y="737" width="50" height="50" as="geometry" />
        </mxCell>
        <mxCell id="8G_4z4q6PhV-p-1qb1yc-8" value="" style="shape=image;verticalLabelPosition=bottom;labelBackgroundColor=default;verticalAlign=top;aspect=fixed;imageAspect=0;image=data:image/png,iVBORw0KGgoAAAANSUhEUgAAAjIAAAGhCAYAAAB71l4pAAAAAXNSR0IArs4c6QAAAARnQU1BAACxjwv8YQUAAAAJcEhZcwAAEnQAABJ0Ad5mH3gAAK5BSURBVHhe7f0HYFzHdfYPP7LYeyfB3nsnJZGSqF6tYslyk7sTJ3acxHF63v+XvK/Te3Hs2E7c4l4kW5JtSVYvVCFFUuy99947Rdnf+c3sJRcQgL27WCx2gfOzrwAugN25M3PnPHPmzJlLfmXIcRzHcRynAnlb5qvjOI7jOE7F4ULGcRzHcZyKxYWM4ziO4zgViwsZx3Ecx3EqFhcyjuM4juNULC5kHMdxHMepWFzIOI7jOI5TsbiQcRzHcRynYnEh4ziO4zhOxeJCxnEcx3GcisWFjOM4juM4FYsLGcdxHMdxKhYXMo7jOI7jVCwuZBzHcRzHqVhcyDiO4ziOU7G4kHEcx3Ecp2JxIeM4juM4TsXiQsZxHMdxnIrFhYzjOI7jOBWLCxnHcRzHcSqWS35lZL53nCaFnpjdGcP3mdd+ydfMD992SbzgkszXBP5Z8zXHcRyn+eJCxmly6IBn3pCOnI5f3/ildO5N+2oXX89w2etnzkeh0r51vNpeKrWxq3Xm4vuObaQu7eL3juM4TvPHhYxTUuhteFfetOvEWWnnUWnLYWnjIWm7fX/8TBQsp0y4nOay78+akHnTxA1/B297m9TKFE37VlKHjKhpZ9/ztWdHaUg3aXiP+LVv5/iz4MWxv3NnjeM4TvPChYzT6NDBECLnTJQcMaGy4YC0ap+0Yq+01UTMruPSwdMXl44aCp6a3iZoqkzEIGamVklj+tj33aUubaO3BmHjS1CO4ziVjwsZp1GgU9GzWB7abUJllYmWl7eYeDEBs++kdOpc9Licx9OS+d1igT5BpHC1flv02nD1N2Ezrb80a7A01oRNrw5SKxM1ye87juM4lYcLGaeo0JnwvrBstPmQtHCHNG+7tGa/dOBUjHlJlohKzaUmavDG9O0oTamSZpugmTnABE7XuPzEzx3HcZzKwoWMUxQSAXPQxApLR89vNAFjImbrERM15zLixa6m7mzB8WL/IcamW3tpRHfpqiEmauwa0VPq2s6XnRzHcSoJFzJOUWCpaM0+6esLpVe3S4fPRPFSzr0rETU4Yvp2km4ZKb1/mjTSBI17ZxzHcSoDFzJOgzh7Xtp+RHpinfSYXesOxO3Tldar8MKw7DSzv/SO8TGOpqpL3NbtOI7jlC8uZJyCSLZPz9smPb5WetW+EsTbVPEvxeJSEzQDTcBcO1y6Y4w0qSoGCvtSk+M4TnniQsbJC3oLImbbYemRVSZi1sU4mKYM4i02eGc6tYlLTPeMk945KYoZz0PjOI5TfriQcfICwbJkp/RvL0nL90mnz0Vh09xAsBAng6CZM1j6xCxpXF+plcfOOI7jlBUuZJxUIFbIuvvSFunL86TVB2IOmGKAOOBq2yomrOtsF/lfwuuXxq+ICpZ9gM9lhxSxOHw9b+KK7L8ccXCSIw7se35WDA8RS0p8/hQTMb97pTRzoIkbK5/jOI5THriQcXKCcNh9LAb0/mCZtPlww0RMIg46to6ihbwuZOAd3F0a0UMa0EVq3yYKG7L0kuOlDZd9T2clwJgswXzlOAO+HjORxVEHm47E4ONtdh1C2CSJ9+wPC+3p6CeCfqdVSR+aJl0/Mpbd42Ycx3GaHhcyTr3gidlySHpgufTQSmn/qegFKQTsPgKGowNG95am9Lt4JlKPDjGHSztiUbIEQvjW/pOtGS502Mw3fKEX44FBuOCZ2XsyChqS8i3fK63eF3PchC3h8c/yBlE1ppf0vinSOybEZSfHcRynaXEh49QJImaHiYGvLpB+sc5EjImDQjoLS0J4UxAsbGu+YlAMpO3TKR70iLclW6gUAwQLnhoOn9xzTFppQmbeVum1HVHkhKMRCrgZPDP9rNzvmyx9eEYUM9nCy3EcxyktLmScWkHEHD0tffYp6elNMeFdvh0FA0+sy/Du0tvHSNePkIb2kDo2gfFHuBw/G71Lj662e9oo7Twe42nyvS+KTpzMuybGuBm8Sa5lHMdxmgYXMs5bYOlox1Hpr56W5m6Vztm/8+klGPXEc3H7aOkD0+JyEtuXQ8CuXU1h+PHAcCFeWGr60VLpGRNpZCEmYDifByHZon3/FOmTV0jdXcw4juM0CS5knGpcWE56TXpgpXTmjTwNvF3EunAY451jpWuG27/bX9xxVC7godl/Qnp2o/TkemnZHulI5liFtBDs26ej9CkTMvdNioHLjuM4TmlxIeNcACO+14z795fE3Un77Pt8OgeBvMTBcGbR203EjOoVdxyV6+4e7g2htvGA9PO10jMbMjuy7Adpnwq2hbN09pkrpRvsvon58d1MjuM4pcOFjHMBYkh+skL60nxpz/H8l1rYnvypWdLlgysrCJYngHtftEP63CvRO4NnKi3cJvf+R9fYvQ+Ky2qO4zhOaWAlwGnhYLOJG3ltm/SDpfl5YjDiHVpJ1w6T/tgMOWcUda6wnTx4UDq1k64cKv2f66SrhuTnSaKuVuyTvvKatHJvrEvHcRynNLiQcUJw7+s7oydm/cH03gjsPJl42ZH0u7OlaQOiN6ISl1Z4EEjAN93u4dNXStebIMsn6R1HN7C1m2W53ccL29rtOI7j5I8vLbVwCHpdtlv6u+elJbtiav80ELxLUO+946WPzJD6d1E4TqACNcxbQJSs3Sd9dWGMmzlBwHOKpwTR093q5ANTpN+aJXVoU5miznEcp5Jwj0wL5+BJ6XtLpOV70osYlo16d5Q+cbn0u1dJg7o1HxEDJO/jgEiWym4dHYOY0wgSxA47n360QnraBFA+cTaO4zhOYbiQacGQ+fa17dLCHdELkQbseY/20gemSvfbhVcGYdNcREwC4gUv02dvirlw2qUUaiwpcRQCsUabWKZLKQ4dx3GcwnAh04Ih6d1TG6RdJ9LHdJCV966x0nsmS10yIqa5wr2x+4oA4JtHxaWiNLBct3yf9Mgq6fDpzIuO4zhOo+BCpoWCB+aFTdEbk3aXDXEx7E7i0ESWlgrVMCzBIJy4KAcnV584G79nOYbXyyVyiyUlzoT62Axp9iCpfavMD3LA4ZXPWf0u3x09X47jOE7j4MG+LRCWO9btl/7yGWnBzuhByAVLLTP6S396rTSpKrM7KfOztNDRECmIlpV74k4psutysCPHF+DtGdQ1Hiw5olf8zHLx+Jy2Mr60RfqvV6Sle9N5sDq0jt4rcusM6R5FkeM4jlNcXMi0MGjsI6elL5hB/tbidLExiIkxJiz+4oaY7I6DIPMFw8/BkytMwHzndenVHdIxEzSIqqQDYucRL1Wc0TQmxuD06xxFU1MLGp6SE1b+Hy61upsnHU1xnAHCZYCV/w/nSHeMi0HErmUcx3GKy6WfNTLfOy0AhAPbrL8834yxCYkctjgYXpaR3j9FutOMMSImX88CHp9tR2LWYATUwt3RC5OImOQClpaOmWAgsRw7qTjMsXO7uKTDcQBN5dXgc9tYGTgIc99xaRNHGaTwZCF+Ttt1+cAYU+ReGcdxnOJSwNzaqVQQC8SjsDV4Z8oAX4z39P7SNcMKEzF8BjlZyHr7v69Lm03QIGB4nY/PLkLyb352+rwJnkySvs+9LD21Xtp1LJ14aCy4dTxExAgN65bOS4QnhyMP5m9LV9+O4zhOfriQaUFgVLcclhbssO9TCAIMdd9O0m2jzXD3KEzEID6+vlD62Zp4ICUelzT2nN8hr81O+/tfrIti5n9MDL28JS6NIYaaArxCE/tJ902UuuFhybxeF9zH8XNxBxOxQWnu3XEcx0mPC5kWBN6Mxbuk7UfTGVQ8MNcOkeYMk9q1zryYBxjuHy+TntgQ42EKMeL8zZnz0oZD0g+XS//wgvTdxfEYgLA01QTKgKMMEHfsYkrjlQn1vicu6f2yiQSY4zhOc8WFTAsB+7n7mDRvW/QQ5AID3auj9N4pUvcOuT0PNUFfrN4n/WJ9jIdpKEHQ2PusOyB9+TXpTx6THlsjHTgVhUIp9QyeqX5dpHdNkoan3I3EFuxHV8fdT47jOE7xcCHTQsATgLBYZVeuWA3sMsG1vzFTGtMn5o/JFwJcCdbdxQGKRfJCUGxEC96deTuk//u09B9zY/zJERM0pYxBSZaYrh4qtb0082I9ULb5O6UVKbduO47jOOlwIdMCYPkFT8DcLdK+k7wQX6+Psb2kG0YWJmL4PLYnbzoUP7cx7DbLSmTNfXCl9DfPxTgcctMkW7obG6qFGJkrh0jd2+f2WFEnHF2AR4xt6I7jOE5xcCHTAkBI7DgiLcokv8slLPAwEBfTt7N1kAJ7CJltD7Hs0xgqJgNvTfzMmv0mZBZJf/5kjMnh6IVSiJnWraQxvaWJfXLXU1JW8ugQAN0UsT2O4zjNERcyLQCWdsiiy66hXMsaxMYM7CpNHxAFTQEOmWC0iQk5iTcmhcHmM0kWlyZwtja4J4TTsr3SF+dL//qi9OwG6fgZEzSNKBgoLnFEeGU6pgiGRlxtPixt5DDJRiyX4zhOS8KFTAvg7JsxwRy5WXJBZt3xfaTB3cxQFygsAHGR1ivCFu/bR0mje0rtTRAUKp74TJbOfmEiht1N//mytNgE3NHTuQVcobRrJc0w0UfQbxqOmLhiC/y5FG3hOI7j5MaFTAtg3wlp/aF0h0N2bRcNM56GUlHVWfqNy6U/vka6c4x9docYm1OojsIbhOfje8ukv3tO+s7i6AXhOIZiL+mwpDTcBBhJAwmQrq/MfDQxQ+TGQVw6juM4DceFTAtg59F4OGOaZSXOOZrQV+rQJvNiCWAHUE8TTuwA+v2rpT8xQUNKf8pQ6HITSzccD7B0j/SN16V/fF56al3xk+lRvM5tTfxZeXuwTT1HefGKbT0SMyx7nIzjOE7DcSHTzMFYcs7RATPguewmy0r9u8SzlQrZrVQwmYKRaI7Pv2eC9He3Sh+dFpdseL1QQUNw84GT0nObpb96Vvq3uTHg9ji7m4ooJIZZOXuk2L2EmCT3DQn9Gmu5y3EcpyXhQqYZg50k4JbzjTDcuTwACBnOEurYNvNCE4BHg/OdOBLhE7OkP7suxs/0NXFF+QrRM9w2gmavCRqWm/6/J+IJ3Ov3x51ExfCMsMNroIkwvEu5OGxCBi+ZCxnHcZyG40KmGYOBPmjGG6OZBgJX2bHUqYTLSnWBoOligorDKllu+sxV9v3QuHxTqHeG+mBZafUB6WsLpX9+MZ7ITfAt8UMN0RXUHeKL3Ve54NTxbdYmaWKWHMdxnPpxIdOMwTCThG37kfjvXBDoO6Sb1DqFMS4FiBmWlYaYQLhrnPSHc6SPz5Qm943CoVDvDGJmv9ULCQK/OE/6wivSa9vjEQiFemcSL1KaukPAbDkUY3gcx3GchuFCphmDUSb77UG70kCGWjwyhXo8GguKw3LXeBMwH5ouffZm6Z3jo8eGpZxCi8vOIZLnPbpW+tvnpCfsKzueClnyaWUCBhFImXKVh1hjcvqQ+8ZxHMdpGC5kmjF4HjiBOu0SBkJmQJfoCSlHEFidTChM7if9/26U/vl2aWb/uGuo0OBkNAs7idYckP7xRenJ9YXleOFBItiXXV+54mQQmBxT4EtLjuM4DceFTDMm2YKcZncOIgFD3Kld4R6OUkDZEApk0r1+lPQ3t8TlpqlVDRM0iD6S6X1pnjR/eybnTOZnaWG7eNiCnfl3fXAiuAsZx3GchuNCphkTPDImZHKdPh3Egf2nR5mLmGzwGrW23juyl/TRGdIfXC3dN14abf/uYCKnkOUx6mvDQenBZTFAOt94GQJ9Q2biHJ8dPDIImXyVkuM4jvMWXMg0Y4j1YAkjp0fGDC9bm7u1z/y7QkAvIFi6WLmvGCL99pXS79l104i4TMbPcmiKalBN50zMLNkjLdsdvTL5QKAvIirN0lwQMgUsYTmO4zjVcSHTjEliZPiaC4w+u5YqEXQD3pnenaQbRsajDj49O57dhLjIN+bn0OkoZKi7fOCz2rdJJ54QMuS2cRzHcRqGC5lmDJ4YdsbkEjIYXuJOEDJ52vyygrKzXXtQN+k9k6V/ut2+TpQGd4mvp703di5tPxbFRj6k9cjg+XnD2oRkhZ4Uz3Ecp2G4kGnGJDEyaYJ9ETJdKtQjUxOEBJ6Rif2kP7xG+qM50nVD43JTGjETgqTz2O2VwHt3tc9tk/KpOmmfgZBxLeM4jlM4LmSaMRhJZv1pdy11LIOMvsUCUYE4Q7zcMlr6zNXSDcOj1yQnVl94ZfLducRnIqBSfYbBSdjukXEcx2kYLmSaMRhWYkfSxIiwk6Y5bgdGJ7BERHZjDo/kPlNUR/ilfHc+8VnEvaQVJyTRyzd+x3Ecx6mOC5lmDB6JtLlV8NocO5P5RzMAwYLHY9cx6Yl10r+9JL20Lcam5NIZiIsOreJ26nx0Bu977Gz63U6caZXvzirHcRynOi5kmjEIGTLhsrW6PjDA5JrhMMNcRr7cQcBwZtK6A9I3F0p/9rj0+VeljYdjzFAaqK+eHWKAcD5QhwRXp9mNhLjs0IAEfo7jOE7EhUwzBiNJBtzUHpmUZzKVK9zD/pPSz1dL//i89D8mZOZtl3Yei8tmaUUaGXrH9onerHzA28MyVq7PoTk49LJdylgax3Ecp25cyDRjEo8MX+vFLC/eiqMVuLSEaAi7s85Ky3ZJn3tJ+ne7ONn60KkoLtKCwGCpZ0hXaVpV3EqdDywpsZyFVygXCEzilxzHcZyG4UNpMyZ4ZNIIGQNvxuEKEzIIBg543HxI+s5i6fd/Lv1ohbTzuL1uAiaFnqgGsTHErVw3XBrX1x6OPJ8OhAyZlHN9cIjByWN3k+M4jlM3LmSaMRhiDHOupSXsLkKGjLYIg3wFQFPA9uith6WfrpT+4Xnpy/Pt30fzW0KqCTEx1wyV7p0gdS4gOeDZN6Tj5IbJ/Ls+8Pbkil1yHMdxcuNDaTMGAROETIpWxrtx2IQMW5TLVclQLAJp9x6XntsofcnEyxftenFL9CYVmlyO5aTOVk+XD5DunxIzA+crYvhcdiztPZF7+zXvzeGS7pFxHMdpOC5kmjEY6O7tpG4pg1YRMgTG5hFWUhLQBcky0qq90fvyr3OlR1ZLW45IZ1Nud64JggKxR0zMh6bGpHkzBqYTfjVhx9JuE1gHTqUQMvaZvTpEMeM4juM0DBcyzZhgMDtKA7plXsjBQRMyJI5LE6xaKhIRw26gh5ZLf/KY9IOl0sZDDcuMi4hheefaofFMpk9dKU2uKlxcEFRM3aURVQjMwd0r95BOx3GccsKFTDMGIdPDZv4Du0TDnQvEwlYzxiFgtQwg3uXACenFzdIf/FT6y+ektQetfOdjTE8h4IHp2tZESz/pM1eZiLkjemHYat2QmBVy1xB0nCYZHgJmmAkZEu45juM4DcOFTDMG8cL268HdYt6SXGIG4UAmXAJWmwr0CV6WI6el13dKX10g/b+npadMzDTEA4MXBA/MyB7SeybZe94ofWh6XOIpZCmpJmxd33Q41mEuOP9pgIlLyuQ4juM0DBcyzRy8DENNyJCpFg9NfZw3I7zDhAyxMgXqhQbDbqTVe6VvLZL++QXpe0ulbUdirphCy0Qd9O8s3TVW+rPrpE/Okqb2N3FnwiZXnaSFMu5LGejb04RMf4SMP32O4zgNxofSFsCArimFjBlhPDIskbCVuFQkngmCZR9ZIf3989LXTMgs3h13AjXEC9OlrTRniPR7V0qftmvOsFgXeGGKoWGI3yE+ZqWJLwJ9c8UXscUbb0w32iPzmuM4jlM4LmRaAP06S1V25conA3hjMMonSyhkjp+T5m6W/uMl6XOvSK9sk46cicKqEBBsLKWxbPSx6dKfXifdPUEa2C1ueS6WFwYo4h4Tf6/tiKIrV5EJJkbI+PEEjuM4xcGFTAsA4zmhTzTuuSDgd9FOadvhzAsFgjckjXACPED/ZiLmZ2uk3ScKD+Tl40j7zzLSnWPsPe+QPn65NKpXunsvBGJilu+R1uxLt6xEW1SZkPEcMo7jOMXBhUwLgBgRthaT9C2XtsAYrz8YvTLEzBRCEBRmqNPGoJw+L+0xAYOIKnQZKexGaiddzTLSbOn350iz7Xsy9DZmBt1jZ6RXtkj7TmVeqAfqoqqTNKKHCxnHcZxi4UKmBUBQ6YS+0vg+uXfooCOOnpXmbYtLPgUJCzPYeB6IT2nsDhZ2I7WSxvaWPjRN+qNrpDvHx2BaBEwKHVUwBCDvOCot2hW/rw/KwXbr8dYOw0zIFHN5y3EcpyXjQqYFgM3s2l66akg8dTmXDSVgdeFOad3+woQM79+lnTSoawxubSybjYjpZff19jHS/71B+vRVJtj62T22iT9rTKiWM+elpbul7WRDzlFPCBeE3axBMUlhIxfPcRynxeBCpoWAd2L6gLiskcsbgE1mB863X4/5XAoRM5zxNKlK6tsp9+flC8tIbGG+fpj0J9fGZSSS2oVA3szvNDaIvU2HpGc2xvw2uaAOhna3OjGh5SrGcRyneLiQaSFgSIeYIUXMtE0Rn8HhjC9tlX6+Kp2hrglLWCxlXWECI83npQEvC96WaSaQfuMy6Q+vkd4+Nm4vL6WIAZIGPrNeWrYn1lUuEF+3j4o7yFzHOI7jFA8XMi0EjCdp+K9IubSBE4YYGQ5mLHSJqbd9zgenmaDp3bB4Ff4OYYQX5v5J0l/caO87PcbFdEgRwFxMqAbiYV7fIT24Mm65zgUCbFAXEzImujzI13Ecp7i4kGlBYFDZvYSwSGP98TSsOyj9fI10MMWunJpcakZ7dJ94qjTZhdNux84m8cJcPkD659vje7E8w9ELxUpqlxemZNhd9cNlMYFfGoGHiLtlVEzE19ixO47jOC0NFzItCTOi3dpJ1wyX2hOEm8Kosqz0ylZp0Y505whlw9u3sv9cNkj6s2vj1mg+P42gweDzu9NNeP32FTEnzBwrdyf+vikETIaT56QHTMS8uj33TiUI3piu0s2jY7kdx3Gc4nLpZ43M904zB+PPVmwOT9x0MB5HkCv5HD9miYnTncf0juIinzOCEEssp7Admm3HxMvg6eGUaD6b9+d3kostynguCErGi/GBqVEEFPNYgULhHKgFJui+sVDamcIbQ1nJbXPveLsHuxe2pKcRj47jOE56LvmVkfneaSEgSp7fJP3jC/HE5lwkBvmOMdLvzJaquuYvKOhlCJhDp6SNh+LJ1iTd46BFlmow8Ox04iiFKVUx7w3ByT1MwJQ6kLc28Eax1ZrTuJ+zukPU5HpwyDI8e3A842nagLjE5DiO4xQXFzItEDwJJ85K/z5XemCFfX8ut1FmiQQx89Hp0sdmxpwohXoXEAV8Juc6sVSDKOCtOEaAgOTuJl7wXjS1ByaB+uJ06y+8Iv1ifdyxlAvqhuDk354l3Tcp1p3jOI5TfFzItGBe2iL97XPS2v25l5gAUcFOpM9cacZ5cuOdX1RO8HQQJ/TtxdLnXk5/mCZepJtHSH98bSaTb+Z1x3Ecp7i4s7sFM7FvzIrbrX06Q4vWCYnylpgI2pxueaWS4d44B+r5jdL/zI/fpwFvDCdcv3NCDPR1EeM4jtN4uJBpwXCg4nXD48nYrS7NvJgDllnYkv2VBTFm5FxK415p4Ik5fkZ6zkTM378gHbLv02y1RrR0ai3dNiru1vK4GMdxnMbFh9kWDNugR/aU3jEunlmUNsdJSAi3S/rXuXF5ijiX5rRAiWDhaIZH10hfnCftTHGWUgJxPdP7S+/OxMX4LiXHcZzGxYVMC6dd67i9+V0To/cgreFl+/T87XHn07Pr486j5gCC7OgZ6aGV0pfmS6v3pYsfAoTgiO7Sr82UhplAdBHjOI7T+HiwrxO8DftPxF05P1mV8bBkfpYLxA85Xz4yXbptjNSDeJsKNeBsD995VPruYulhqwfigfIRMUO6Sb87O9YDuXpcyDiO4zQ+LmScAGKGJHn/9ar05Ib8xAxLVAO7SvdNkN5hF4c4Bu9O5uflDk8AW8LXHZC+tlB6Yn28/3zobgLu4zOlD0yLSQNdxDiO45QGFzLOBTDmy/dIn39FenVb+l06EPLMtI2na390hjS1Kh7oWM7BrvR8Thk4eNLud6v0kxXSvB357cZCr7A8R/beT82KGYz9KALHcZzS4ULGqUaIfTERQ+zL8r2ZF1OCUceIs9R09zjpTrsGd0sfRFxqztq97jwifW+p9LPVJmhO53+eFGdWsfPrD66WRvYq33t1HMdprriQcapBZ8CYP7ZG+pe50q7jcZdSPmDMWV65wQz8O8ZLUwdIHTOZessBYmEOn5Je2io9uExaukepshtnEzwxJmJm2L39/lXxHn2rteM4TulxIePUCjEiz2yIO3eIHUHM5NtROGZgcFfprnHR4A/vkTk7yQx+qWNIiAFiyeigCRhigeZukZ7dKG04lPmFPEhEzKxB0kdmSFcNjYddOo7jOKXHhYxTK/QKYmQ47fmrr0mv5Rk7Ahh8BEuXdlJVp3gYJMafOJp+XS4GBCe/V0woP2XlImnflsMxDob8N2tNmO0+Lp0ysZZ2V1ICxSR5IOLsQ1OlcX3j8pLjOI7TNLiQceokEQFr9ktfnic9tTEuyxTSY9jZ1NYMPqKmX0fpppHSjXYRQ4M3I5xwXSQx80sr4xtcb8YTtvEsvbpd2nEsepp4PW2Cu5q0tXK+Z7L0G5fFwF5ETZE1mOM4jpMHLmScnCRbszkt+7kt8RDFQoUAEENDvEznNtK4XtIVg6SZdrFtm9OvWZLidxAI4UqUQua14G3JfD5fuM6bOEGkHDkjbbSyLjThsnCntP5QFC5BgIW/KAyEGHE/xPz81iypVwcro8fEOI7jNDkuZJxUsASz43CMmSHPzOHTDRMzQZtkhAkXCeSGdZfG9oleGoKD8eDgreHi+ySYFmHCMhc7rNh5dMa+50iBDQdiPM+uE/FnQBEb2sMRMcT6kP34XrvwxCRldxzHcZoWFzJOahAumw9JP15uYma9fX8kejqKQRA09p/grbGLpaaw5GTiBQHDEk4iZPC+hKWjzPIR1zk8LnZRnIYIrGwoE2UY3Ut6jwmYW8ZIvTvF8jmO4zjlgQsZJy/wzOw7HpduOM6AIOB8sgBXCgiq3h2kOUNjYO+0/vG0cF53HMdxygcXMk7e0GHwgmw/Ij28QvqRXftPKQTZVnpnwivUyq6h3aQPTpNuGS31xQvj8TCO4zhliQsZpyDoNSzhsEX7xU3St1+PmYBPNjAQuKnA0YJYITaH4GNOsJ5cdTHw2HEcxylPXMg4DYLeQ2Dt+gPSQyukF7ZIe05Ip0zQ5JsRuKkg9qZjG2lE97gtnKMVOASTXUmuYRzHccobFzJOUcALw+GLi3dJ87bFtP8koTt6JgqactM0eFkI5OXU6mHdYpK+K4dEL0wnEzXFTtDnOI7jNA4uZJyiQUciToZzi7aaiJm/XXplS1xyOnCqfOJnEDH9O0szTbxcM1SaZOKFLdUsI3ksjOM4TmXhQsZpFNjdRK6XvcdjfpdnNsYdTvtPxrwvbKEulZcm8b6Qi2agCZarBkuzh8ScNb07RvHicTCO4ziViQsZp9FhaYnDGjcfjMcdbLCvGw9HUXPIXj9+NgqfQg6mzAZnyiWZuBZES7e2UvcOUr9O0vDu0oie0fsywMRMJ/tZkpfGcRzHqVxcyDiNTuhgCJWMWDlvXw+bgNl5NG7h3myiZtMhadU+e+1YTHSXi8TLQnI64lk4jbqriZM+HaVBiJYe0pBu8diDfp0vChd+n79tTjEwSf1Wg3vMfOuUntpGVY+7cpzGwYWM0yTQ6wgQRrNwMOWBk3HX07cXSwdPv9Uu12RQF+mdE6SRvaRu7WOALl6YDnaRuI5dSGQHTkRLc7Uh1CG7xkK2Y7uALMghI7J9da9TaaHfItaTjNNkvqYP0hdpk2Iejuo4TsSFjFMWEE/zwDLp869Ke0/kFjLje0t/c0tcKsJYN9cYF+ohCL6MJ+uYiTxE3yH7yhb3Y2fjQZlHT8Xv+V0O3uxqYg6Bx/ecY9XFvnK8Aru0EHzN0TNVKhIRnsSB0RYHrM9S/2S5Dm1ir3ER+I544cBR2oOviO4OdvXsYFfH6C1E5IT2sPf3NnGc/HAh45QF+QoZYl7+/tZ4anZz8zpw7zyVnDJODNEOluDsYvlt25H4b+romAkYEhLWVVfYQ5bfOpmQwWCSG4flNg7nHGRf+XcfEzd4r/DeuP2sG9oD78oJEyn7TEiGNrG22HT4YpscstePW5vhiamrTRCQeA0Rmix50gZDrT1oF3bOVdnVy9qqHTvovEEcJxUuZJyyIF8h098M8F/cIN04KnoYmgPcMzN9BAqB0fO2S4t2mqE0I0lANK9z2nfiEUj+JhfYQ2b5YYnDRB8egM4mXhAxk/tJl5sYnNQ3GtCw/dx+z21opm7tPwiY3celZbutPXZIK/bGIzloEzwuxHTRJuEKf1k/oT247D8kXWxv/RcvDe1CIPoVA6XLrE3G9I4ik9/z9nCcunEh45QF+QoZBv7fmSV9cHpcPql0ECYYxqW7pBc2S0vs6xab6bNMUd8MvyFwplRHq7sqEzSjekk3DJdmDTaB09ljaxgVqXeCz1/dKr1kFzvu9lnfPGV9lTiYxoBlqO7toodmxgDp2mExSSPLg4gex3HeigsZpyzIV8jgWbh3vPQn18VcMJUKAoZgXTww31gYj3ggG3LieSnFw8mM3+xnCJKe0Fv62Axp9tDoKUi2s7cUqG9EynFrgyfXS99bEjNUc4YYnpmStAeX/QdPYw9rk+tMzHx0pjS0RxSY7qFxnOq4kHHKgkTIfMGEDGc15eqULJNc1l/6h9ulYTbAM7hXGsz4meHjgcFgrj2QMZZ2803xUFKH1GuP9tJ7JknvMKE4qGuM1+D15g6ikriklXulHy6Vnt1kovJsbI9kKa+UUOW0CaJ9nAnM906OZ4F16xA9Ny2gSRwnFS5knLIgXyHDIE6W3r++WbraZqwM7JUCM368Lot3So+ulV7eGpMDYizL4WFEtHAK+JQq6e1j4hlUBKVWUh3nA3VO/9t4UHppi7XJamnV/rhLrFxGRwJ/e5mAuXGEiZlR0jQT8exAq0QB7zjF5tLPGpnvHafJwLivspkwxxgQQJkGDD87Pib2MyPLMkjm9XIGLwxLFY+skr6zWHp1W4yDsdsvG7DdLHftOi6tOxBFFluFCQ5ubp4ZhArb2Bdsl775uvRTa5ctR+PW6nKC4lDODYei4OIFxCWxMy5mnJaOh485FQtnNnHKNoa2LFwZOUCscTzD1xZK31gkrdyXiYXJ/LzcYJmLbd8Pm3H/17nS/K3xHpoLiBg8MQTzfnFePA+Mw02bYhkpDRSLpS8OYaUPfd0ucgi5T91p6biQcSoWksStMTGwycRBudtXBAB5Rz7/igmD1VF8ldusvzaSuBE8ZX/1rPT0+mj8K50gYkxE4hH7++fjNnc8HpWgCehLeMuIq/q7ZxQOZi1X8eU4pcCXlpyyoJClJcbuM2aMOF+JfCgEpZYjGExOAP8bEwLsSsKT1BBYSWD3CsnuklO9WWIgyRr5YYhlSdLhs8Wa5SDqqiG2DkPJ7H+93QfZaft3rdz8PdwLW92fMVH2p49Le4ogKqlj6ruN1Qn1wtlfpAWgrmibC8dG2MU2atqwIeKDP2X5j6UmAsZH9pC6tI+xNI7T0vBgX6csyDfYNwEDMrpnPK5g5sDyixfgHKmFNtvHE7PARFohW3i5J24LQ0kQLgaSxGlVnWPa++RIAg7N5HdD8jy7+MqF94fss6TSJ4U+wgpvVt7lsIuEecPNaP7m5dKdY6N4LLMqrxdGOwTZz1fHrf5JkHW+UM+IBgQLQqVHh5htmliikHCQNsl8RXDwmUl70DbhwFS72NZ9KpNUr6By2EXSvNvHSL9xWTzhvaXnAHJaHi5knLKgUCHDQI4x/eCUmFMGD0W5gJeJrbz/NU96blO8x3zh/hLhMqaXNLGvCbfeMdCTpIAYUgKdme1fEHFWeQgmDCgXS0Pk5sGbsnxP3Oa99XCMBynk4Uc8sh34T6+RrhpWWYYTIfeLtdYm86XNhwoTD9w/W9Txgkyw9uDi8FJ2FdEeeGXohyFLcgZGWQK9kzYhSzPJ9lgaJVMwnhW8dues3fIl6SP3jJd+e3Y8+sBxWhIuZJyyoFAhAxgWdi/9823S1AHlYVhZqthlM+4vm8H82ZpouPK5J0QJ4mSwCZbbRktzhtqM32bbHP6IcMl3CQGDjSFF1Ow2A7p0t/TI6mhEWcrL16DjHZrUJ3rCxtjXchczjHLcIzEx//JiDJhF7OUDdd7eRPOUftKt1iZXDIpnI4WlI7v/C0IyBVT3rzJik634CMtfrIuClyMpEMH5NAkfzbLiJy6XPn6F1NbaJ5/yOE4l4zEyTllQSIxMAgM+BprYE4wMGWqbcgynPAiXH5owe3CFdPh0fD0NlBsjxBLF7WYsMUy3j5VG2IwfDwyxFgi3fMGoYWzxXnEKNuID7w4xHJSVJQ/aIC2Ign2ZAy3xFLG0Uki5SgWihSMG/suEMkt9+YgY7ovTqrlPktKxhHOVCUs8H3hg8LzkKxr49dAm1p4sRXFg5HQT4SN6RIHDUhT9OR+BiShad1DqaGWiv+AVcjHjtARcyDhlQUOEDDDgE+/AEgzGoKlOc2bmjwEiqRp5STgpOa0torwYRrwvn7BZ9X2TpFG944y/2AYJBwriY5wJmgl28f4sdeS1Hdx+ca/dH8s1GPmuZZqgDe8YSzj/8bL0yrZ4j2ngVhAx/TrGZRvigm4YKfU1AYNHqphQbwgPlgxJREj8EyefH8xzOzh9jy3+xM1wpAH9yXGaOy5knLKgoUKGsZ5BnCWqkT2bLnkbRod7YPli69H8jBBnG5GC/pOzpMsHxwDefJcs0sJ7Uj8slfQz8Tepn32W/ZtlDYJP0xYbkYDHqYuVFVFULVanDOA+EARfWxCXbugjaaHuEca/fpl0/9S4tNeYxzVQb3wmHkWCdsdbfe4/YQLzeHpvGfdLADExUcO6W/lNGGXH6jhOc8S7uNNsQDSE2I9V0p4myK3B5+EV+tHS/EQMhpHg0XdOlH7/6hg8yky6VIIA44mX4SMzpd+7MsYbBQGV+Xl94IFi++/ja6U1JkRLXee5OP+mCcvt0otboshNWzw8LgTz/s5s6d2TY/2krZOGQn9gGXHKAOnPro8xUsRGpRVQLJttPiw9uzEKIcdp7riQcZoVHPL3xHrpKbuImyklfN6TNut/1Qxn2hgMxErfTtLHpkt/cm3c2lzsZYs0MBCwlfueCSamrpLG9ko/k8crs/FQrHdiO8oFRAuClmBrtjqnbJIgWCb2kX7XRB31QQxLKQRMTfCQsUz6p9Yv3jclnq2UFrwyz2+S5m3LLx7IcSoRFzJOswOvyA+W2izcBnLiN0rhJMD1T4bhx9bGfC1pYcvuB6dKHzAhw6y7KZdl+GjiNG4cKf2eiZnJfdN7IVgOZOnmlTw9H40J3pgXN0uLd6X3FLEzaZLd96dmSTeMiMntmrBJotDtHJe3Pjwteu7SeGbwlLH7D08Z28xdzDjNGRcyTrMDDwF5Ob40X5prhuyMzU4b27BiyJ9cH3fGpI1nYPno7nHSuyelN1CNDYazfRtpzjDpIzNikjcy0eYCoUCw8E9WxOR7GNKmhPJwJASG/EDKgGtEzNBuMaiXXUnUQzlAuYj5YonrvokxdipNV2EXE/FaBJ7zDDhOc8WFjNMsYQbKoYwEeRIjQYbdxjKuvC3JzF4w0XQ8hQcII4Sn444xNsueLvXqGAVEuUBRCAK+dniM2wmGM0X5EJCv75bmbW16DwCfj4hdbcKSrLm54Pb6mVhgOYn7Zrt1GTXJhfJ91MTljVY+2idN+eiPD66M4rLc4pccp1i4kHGaLRizJXukL8+TFu8sLGtqLrANGIjXbeZLUrM03hhEzFWDzWjOlgZ1TefxaArIMXPvBOnmEem38ZKP5tlN0pHTVi+Z15qCXcekpzfEZHO5QBAQXMu93jQqvUgoNcQskW/m45dLU6uipyYX9E2WmJJYGdcyTnPEhYzTrCGb7eLdMWMwM/QTZmiL6Zkhedk2EzAvbo2BxrneGs/G4G7SB6ZKA7tH49QURhPvCTEkXHXVB2Uled5Hpsfg3zRLX7wvO2Y4CoHznJoC2nylff6aA+mEJcHVswbF84oQNE2xxEcbIDRoD8pcVz+ibGyrfse4jCcv83p90A7ECoUdTHW9seNUMC5knGYN4/bp8zFW4L/nxTgWgoHTxrHkAi/PMhNKJCFLYyPIFTOtvzSxX7oZdTHBWBKIi7cCDxXGjQRx6/bH7L611QllJEvsbXgqUga+sh17vr0vorHUcI94gzigMxwImXm9LoJY6yBdNzxuOy/1Eh8eE+KrCBSnzuZuicHJHCpZV9A0AchXDpGmWz9Ks7OMz+B8rYVWJ0295Oc4jYEnxHPKAoxoPgnxwqF8ZnTwAKSB3yPLLgM6SdFw0SenRTcEkq09uNyMhBmfXGXhs4Z0ld41UZpiRqjU26yp11e2Sj/i6AQrM9ulXzLDifeE+8D7Ulud4AXgyARy9Ow2kZKryqkH2vOygfaeJY7/4bPX7pN+vMIE2/HMi/VAP7rcykkgLUcOlLKsCAxEJYdYcpzFT1bF3C/EdLGdnaKwY4lDKLOLRRkJREbDvGTtieDJBYG/xDpxDALxP47TnHCPjFORjO4ZzwriXKK0EPTJssd3lkifeznOfBngC11qSgxR2rN7yHpL9ttpZkwwoKUEj8tja+J9YzA5NHHLkehJwhj+zwLpC6+YUKklkSBGlAyxCLCOKeJH+Hvee7UJirRCs1iwrLTKPpcMxbngPsidc8soE5jszsp1Y0UEocc5VV+3ev/SPOkZEzCcTk7/XGbCkqSO//Si9FP7yj3VrEb6EtmfrzARlsYrQ99fuz/m1SlxkzhOo+NCxqlIWAYgtwbnBOXj2cDI4n14fJ302adt5m4zYWbuCJqaBjwXGBh2g+xPcR4Os2i8HdcPj+fplGrmj0gjUd+zG6SvLZRWmjE7Zf9OBAZfuHeOGXjajOnDK9+aSJCy4hW4Ykg8lDONwcfrxQGGpV7K4HM32ucSdFwf3AL3NbF33KWUjyBuCNQ3dY9gRMT8xOp7h32ffcYVP2c5dJOJmm8ukhZtr0VcWtlJkMd27J4pEuXx53wOAjPffu445Y4LGaciaW2GdabNRjmJeEzPOENNC+M47niM+l89K/3NM9JTJmzwrmDEMSS5vDT8GCFDrhKEQC4oXs+O8UyjUsXGcA+cm4SI+fJrNuM3A19XbBD3g/F/dVuMz3iL4bSL5H3Trc6J0cgFQasIirMlzF9CmQ+djDmEcp6pZDeEAOZsK5bNSiUsgyfG+sw3TFQiYggQrwvaD/HBtv7a6pHdb+P7SmNNjOXE3ou+vdXqpq4+4DiVigsZpyLB7mBQ59hsmu2o42wwz0cgYKcZ0E+ZwcMT8XfPS3//nPSIGZcNJnDYtpvLm4CxZIZLjppc4MWYYGUkNicUvgSQ1fgZEzGffyV6R3LNxLldAmTD8kMtv0t9YzSJe8kFYnCHCUPeq1RwfxyWyJXjVkMTdG4T43hKKWIQid9aJD1k/eyYiZj62oQfIQipw9rixig3Imxkryhq6oP3Qrxvtf7qQsZpbriQcSoW7E9HM0Y326yaRGbTqtLnO8kGjwpZaQl+/beXopcGt/9zJgLwKpAVlRgDjM4Fu2PfsETF3yXLNPWB0ZkzNJ6eXAq7yY4hAkf/G09MHrNwBAy/W9stke9mSLd4NlSagQMxSAxOqQhCwdoDMZYL2mNqP2mA3U8p2oMt0Hj8vrfExPJq6zuna6/jmvA7XNX6XgbKTdDvGBMyZIbOJcjwICJkwrEdaT7ccSoEFzJORcPYzaF+142Q/uSaGPwYTo6OP04N4zpiZa8ZQYJfvzhf+vMn47LTV00MPLnGjPKBKBAQPvwu24zJzZHLKIQymsGZbUImrdeIt+R9gwHL8f41YRb/0mbpKybGVluZ08apUDR2tpCfpLaBgbKzi4adV8TM1AdlJsAYIVgq8DgQ0MqBibngXjmGIQRd59EmtEdtoqI++F3E1Q+XSg+ukA6YAE7793jyOlv/ruvgSl4jXqyKHVfxpTpBcB+0zybIOGWXcJyKwLdfO2UBs+l8tl+z+4fcH0G02AjOgM/2YQZ1ZpwEUyI28jE42WCsWHZieWTpnliuBdtjfhJS8POV19i6TKBmfSAAyOR73ySpVY6gUj6XWBVib1ZafZDjhX/zHm3x5thX+3+tcK+n7d7ZUv3fJmLYvZNPsC0ZbW+wOr15dN1bdBEo7AiibAQN1weGk+zAo3rGYOLDZkTxYjXWhTeGnVl4HaiLuqD+eli5OFOJpb5cngzug/dHyJIziOUhvBuIOeJs6vt7+vUu+308MYgYhETaJkFM4v165wRpQj2xVbQJ7UFwcC7vIB7Mmf2lYT3iM+M4zYFLfmVkvnecJoPZ9APLYgZeUqrn6pQM7v/vxuhByDYkyaz8Rzb7fXRtDKZMs/STBgwJsQgYALa8YqT4vFyGqY397ifMaH766owHoA54PwQM5SZ5GR4fDCb3OKFv3KEyto5dWtwiS2CcPk0dcs5ULoGVDfc2Z4j0GSvjZNLf1+aSMfBG/WxVXIJD5OWiT8coZEphNCkbAc2Hz0TjXhcUheWYL94jjbCy1QXvwXsu2RUPn2Q7OUtC9IH+naXZVl9kA+5nYqg2kYEo3WuCmpPYyROTpl8n8HbsRvrYDOn+qSa86glIPngyHsPxPfuMXJMAzmv602uku8bX3o8cpxJxIeOUBcUSMoAgQARgcB+wWTAzdARB2plwLpKPS/vgsLX3L26Q3jelbuPBU0gMxRfNILE1nPgSDGFCh9bSJBMzn7kqk4cma/mMX6P+8BT95yvxSAbeL235EFeT7b3/9Dppqs3Wg5ch87OaULfkPPm756Qth3N/Bu9Tqpk/ZUlz35Rnuom1f70zevDqgiBuMu3+l/VJvFuImuS9eQ/iUm4fLf32lXE5LlvM0HaIngdMxHxzcQxAzm7P+uC98WT9ekbEdDcRU18d0lcIIP7qQumIfV8fZDH+fetD76mnLzpOpVHHvMtxKhe8CcRyfHhmFDvXDJW6mGEoVmfHHqW0SQGEFuWpyxbxXsR1PLrGxFcmEJQlIQxfcrFctmCn9H+eiPEv2dtx+d1FO6T/eDkug/H7vGca2LZOkPSfXptbxAD30slEFVcaKAcesVJcae+b+0MY1rfTh/chOd1XXosJ6tihlnwGF3V+gLiX5dI/PW/fZwkVxNRxExQPm4j+hgmMfEQMdGkr3Tteetfk6InJJQS5D+Jo0iTGo9wsCeZRHMcpe4o1tjtOWcHgz3Zhsp/+iRnp37ws5nAJmWlzGIZiwkfh8WD2XpdCwPDtOx7PPmJLLv+uCS/hDdl6NHpdntuoEHhMnpjXtsUt1mTrzScmpp2Va4aJl183wReOTLDRIE3VIAI6EnxawnosNiHFfz3lf8OECzuuOHjyvFV+bYafqsYT9tNMxmRiaPg3wbwPLpO+vjBdssRs2E59xxjp/inpj3dIhEx9wiyBe/FdS05zw4WM02zBBiAiyLPxgWnSH86JM91RPeIBiLlmusWiixlNjH9dhBm8iZKwAyrzWm3wM8QMO5H+12b6T6yLW8ZZ+uCsp3xEDEaP3Dsfsnoh1gPRl1aYsIUcQVix2H3SHvV5MDgMdPexKEzqM/r8iGVL4prIwvvylrhE+r+Laz/uoS6oe+r0phHS+6fGYNw0HhagLdnVlMojY2V1j4zT3Ej5qDhO5YJgIZaGE4N/9yrpz64zY2Ez3hEYC/sZP7f/Nxos1+QSTSxbMFtOA7EbS/ZInzcB8+8vxSUnDFRauOeh3WIiwWuGx9l8WriNUGcVPHKEe7Dy1yXcaAbES1phyO/jSXvMhOW/zJW+ZSKGHVRpdSXFII7qzjHSR2dIo01g5trdlg33gZip43aqQVnT9jPHqRRcyDgtAgZ7BAWxKuQP+e3Z0j/eFpdVqjpFz01jPQwYObaC1wceovq8Ntlgh4jZ2Ho4nvWUHYSaC0TIsO7Sn18v3WCzf0RMWk8M8Dl4KdghVakgUig/Sepqg+pAGBBkmx3AWx94XtgttXp/3KmEME0Lgdt3jpV+72oTMb1iX8wHvHQsMab5TO6nvb1/Hk3uOGWPCxmnRcEAjqHg3CN2//zRNdLX75N+Z5Y0tSpuqyXYkhkyxqyhDwi2hXw07CypS23grSEeYnr/GLeSVlhgh/Owl+F+hpuIYdfKVUNj3ph8REwC9xPiLDL/rkTCwZn1iEuW2tg2PqhrejGDQELQ5NCsF+Btyddzy0jpt6z/9bO+l48nJgHP0XGETIoPRsyTS8aVjNOccCHjtFgw4ogaXPmfnC39zzulf7hV+rUZ0q2j4hZdEqaxFZbMvCTfC+LG/i6f5SiMG9vB6zL8lKO7CZm7x0szTVwFMZP5WbFIRAx5STifKuxOKuBDuAdEzAk8MnXdUJlDsXN5MGjf4T3iNn9EZq6lwXzh7RCS1wyRPjw9Hv1Q6HJdEDJn0wkZRBniqci34zhNigsZp8XCYI4xx4AgaMgFctUw6Tcuj3E0/+f6uC35t66Q3j9Zut3EzeUDY5DsSJutpzVwzNQRMvWBgRnX1z5nWjyYEeFRLCji4K7Se+0eyNqb73JSNizHkHSNpa0K1TGBXB4ZYMv+nSYu7xoX868UU8wQMH3l4Chi2E2Xa9t7fQQhcyZdTA+xQR0I7M7823GaA54QzykLiLsoVkK8YoEnBeOA0SZvC7Nelogw5JR33jbp+ymyqbKt+b2TrLw31x//wD2zpfrp9dL/vCaty2z9bQgY374muH7jspjNNZyj1ID6Om318OBya6d58VTm+uBjyOxL9txSGE5ihUjTHw5krKfeKAtLRl+9L3rj6isbb7P1UDxi4CcrpYP23ml3ItUGn0UfmD1I+tTsmEUZz0xDIE/N516y8q2K7VMfLJ3+fybSyUhcyDKW45QjLmScsqAchUx98NQ8v1H6v09L24/WX16Ewxgz5g9/WPG8pMzrdYExemKt9E9z89vCWxOcOtQP2YA53qCzfd9QjpghD+nwl8bjH+qCe0TAsd39U1fmvudiwCGV/z1fetyEYC7vBMuEX75HunZ4bmHHW+05Zu9t9/2giZmGxAfhEbl8QDzgdIp9TRt/Ux8cyfG3z0ovmbDO5WUik/HfmqBmy33a7d2OU+54V3acAsG7gcchl5BC9JDIbo0ZnDSiBCN7y2jp92zGPpBzfAp4SjHOfTpJvz3LRJ+JGBLYNRSKzg4sEsWFGJn6sM9naWZa/7ishQeksa/hJhaT7MS5YBfZq1tjDphcUzmqn8Mb2a5+h7VLCJKOP8oLPDEkIPxdE3YT++UWUGnhfK6dJnhz3Qcf19X6wRATM00h/h2nsXAh4ziFYIYAIVNlQiOXQcK+YDg50DFNQCZGpl0bM5rjpU+a8RzWLf+YGQwvidXuxRNjxqsYRpOy7zBBhtHMdR8UF2/QmN72vf2jFBdCgQDdPh1yCw2MPucosSyYw/4HEJP9TSz9lonL20blX6eUbWKfeOL2jAH27yLFqeB5QliyzJdLyCDwBto9pDn2wHEqCXs8HccpBLwcJJZL4wHAyLxohpOlmTSGkweTvDJ3jovZd8n9gpjJZX8wUByH8G4TMO+yq75Tk/MFo7nJjCZnDOWCchCbM8jKXSoQG1Wd4zbmXNAGW45IK/akaw9gGWiw3Q+xLYgZvBu5BAE/Ziv/pIyIISkjy4vFAO8ey2l4+nItd4VymHgiCWQxA8kdpxzwLu04BYBhYJaNmx5DlQuMDtleOY8nLRjJLiZK2JbN2TsIg1xKhq3i75scvTFpvEX5QCAyGYUPmxjLBaKCoyHYtl4quFe8ZAO6pluOY1npxU0xU3JaEDN4fUJWZHLxmDioD0QDu9w+NUu6YWRxtz7Tp4jPWmdCJo0YY8mS/lrIUqXjlDPepR2nQAhmHdgtGutcxgmPDDte5m42IXAqvReA9+1uYuYdeGZMnAzoHAVUzc/DiBMTc7+JmI/MsO/t94olYigrS0mr90nzCShNUXjEHQnlSr0zBqHAWVqdcwgo2oMdYSwvLc3znCqEAJ4NxAzZkWn/2uqadkLEsGPsShM94TyrzM8aCk1ALpwn10XPUi7wypEuIOSrKVYhHKdMcCHjOAWCQSMYd2Lf3LNcDA+7kebviIIgTaxMAkaITMTvnRJ3IF1rRpEYGJaemGVz2CCG9QP28/un2c9MxBRjN0wCRv/IGekny6VdKXZRYShZ3hlPvZTYaCIexvaJoi4X3NcOu5/H1prITLFclg0CbZx9DjmG3jMxCpbu7aKHhjbBM3bZABM7JmKuNbGDwComtAG7lX622vpVCo8SbYKwHFBkL53jlAOXftbIfO84TQaGfdVe6TUz9LnysgBG5Lrh0Wg05Q4M4mNOW3kX7UxnUBAzGDnyh+C1SFt2fo8kaiN6SVPsb8fb/ZNIbboZyxvNUN4zXrppVONkocUD89wG6euLYvlzwXLKHBNbd4yNpzKXEuoJMbP5cDz3KBck+CM5HstF7HzKJ34E8UoMEm0wyUQbO5Em23XFIOm20XG32GX2fbEz6aIjj56WvmHtMc+el1zeJOoEkUXKAsrjMTJOc8O7tOM0AJYL2PI7zAxhLjBAbF9+easZWRNt+XhlIIgZ+zw+61YzlB+cJv3azOipYemCIN9ixz/gtSArMYn/KDv3kIueZtyvtvJ0s/KUGkRc705xZxCeqlxCEZHGTiyW/NIEMdcEUdDV7nP6QBOTJhQ4vfpj1iZ8T6ZmxGcxRQzQbxbviv0ozZIYn49Iu8zKmCYw3XEqDRcyjtMAeICGmrDASxK8Q/HlOsFwbjwk/XyNGc5TcYkgjTjIBmONQSKfCQcA8rkY1FxGO18oF7tiHreysoyRJjaGsuHdoD6aaubP1mY8I5wkncY7xSGYz5mQeWZjjDtBvOUDH8G9ImrxvrDkh1eIZbUiN0loky2HpQeWx0DfXMt8wNZ0hCV5dordRxynHGiiocZxmgcYBsTENcNi4rc0hpOls0dNHPxomXTIxEzeSqZEYNQx7j+wcqbZqQTEiMwaFHcOpamLxoCPHdQtnmWEVyYXIVbGRAHHEIQkeb8szyahnLTDT1ZI87en98awrISQCWI3vuw4zQoXMo5TBCb0ja57ZuW5wEgePiN9d2kM1uQsp3KDMi7bLX3fysiumDQzfxjZI+ZKYUdXU4K4vHlUzL+TNuCYxHIccbByT1y+KTcxw9Lez1ZGEUzwdZry4bW7eUQ8UwrPjOM0R7xrO04RYIs0cStpDSdGiNgTvAAvbclv+29jwxLSlkPSdxZLy/dm0vhnflYXycz/XZPirqGm8sYkYLTHZALC0wbb4olZbCKGAzu3HbZ7LhMlQzHOWhu8tl36prXJjmPplvm45zG9Ypt0aeveGKf54kLGcYoAMSucK3TdsBgjkQa8HOyu+SonXe8vDzFDmQ6dNIO5SHp2U9yllMaeE2Q8c2AUDqTvb+pYDD6e2CFOeSarblphhWh73oTlN1+XDmZimJoSPp4yrdkn/cfL0iYTmKmWlOx+Cf6+e1zcIddU8UqOUwq8eztOkWCr8TvGx7wyaQ0nRun13dL/e0pasCMKh6YynhjMrSasPv+K9MPl6baTA/c6vHvMKMx5ROUCTcBpz2xLZwdVmiah6tlO/9Aq6YuvSjuPNp3AxCNEnBJndP1f6x9sJ0/bNdrYyM5uulmDTcSYyPYgX6c540LGcYoEBp08L5xx1DMPw4mAWGxi5m+elX6+OgYAl1LM8FHE6SzeGUXMw2bEgycmRRm4R/LiEOw8xQxnqRPg5YKYJfLsXJlH/hRum3gU6gExs3Jv+vooFsTosB38Z1aGf5kbl/jSbtenH3I45J1jopArsyZxnKLjQsZxighG5Jrh0TOTdokF+0h8BjPuL82XHlwubTwgnTVx0ZjGk7c+ZyJq9zHpiXVRxDyxPn2+GG6NJbUp/eISDksZ5Tbzpz3wEtEeIX4prZixCmCH0E/XSP9l9fLcxhjThHemMdsEAcuZVhxmyfLel18zIZVHJmiqnyMTrjVhecXgGOzrOM0dz+zrlAUM1JWY2bcmlIUYGZLW7T4qbT2SfmkCA3mU04zNcK0zIcO/Se4WjJG9b7FuEzvMe3Ni8oLt0ndel7631D7XPjOfHVSIhF4dpE9cIc0aEnOnlCOIF44sYOmPRITHTSikBaG3nVOy7e/2mpDpYP2NIyBo52L2O9qDdtl7PO5K+l9rk6c2mHg6GX+WBopDkPP1JmI4pBKvjO9UcloCLmScsqC5CBlIxAxGfq2Jg/1mjNIuFfFrLGOQ7GzJ7rgFupW9H94dhEJimAq5ZQwioor6JcHdNxZK31osLdwVt/Pms5zFPXaye/zk5fF07mKn4S82eI5YZqGCEYnE/6S9XXYIHTXxw98t3CntMGHTpV28Z9rmEmuTgtqDy/6D5w0B+/R66cvzpUdMyBDUi6hMW0Zg6eyKAdJnb5YGd0vvfXKcSueSXxmZ7x2nyWAwf2CZ9IVXpT02883VKTk35v/dKHU1g1JuQgYoP0Gj5IlhO++mw/nHvXBbGCPOT5raT7p8UMxXQ7r5HvYa8Sh4RcLvZn2ffE4yy8cQnzRDTNI3jDGxMPO2SzuPmbF8M/5evrCdl5O2f/equJRRjm1QG3uOx1wxP14Zsxbne+vcJh4ylqlm9LdroDSqV/R+8DptwO9QH8lXPiPUsV045/geQUksFFl6yVuDaH3F2gQvGV6gfKGfTLa+8de3xHO4XMQ4LQkXMk5Z0NyEDHAPh81YfX+J9O3FcZkgTf6PbLKNIrtPBnWJ3igOKRxis+7Odv8Y0HASdsaQnnkjenU4DJGLoNHlZiy5SG6HRwaxkwidtCRl4bPuGCP94TUmsjpc9BJVAtz3BhNzn3tFenZjrKuUK38XSOqBuu5qgo4jGTjAc4K1C6eUUz9ctAvBxuftMxG1F9rEvmfb/VJrj7X7FE4UR7yEcuTZJkDyQcTU786Wrh9pn2uf6TgtCRcyTlnQHIUM8HQRNPrzVdI3TMwwA8/XM5MNxpMLY0X2WpZMWFJgBh52DNnFic7M+DGgLNmdNeN53IxnEqha6MdTzwiXu8ZJH5gaz5gqt11KaaAeSPj3by9Lz3O+ktVPwXXCZf9BTLD8h3ChLUKb2Ot8T53zmYjY8NUuxCTChray/xcMfYHt/r95eVxqJQ6oApvEcRqECxmnLGiuQgZ4wthiPXdLTGq22mbhQVRkfl7uUL0YzB4mYj46XbpvUgyerUQRk4CYJC7ly/OkR0xkFuIta0qoekQTy1u/NSsuOxJDVe7PguM0BjZfcBynMQkzdjM6HNz3B1fH7L+dyzw4NoEy4vUhLufTs6UPTpP6da5sEQMIM46VQAR8/LK4y6xSst/Sn/C83DJS+vPr49lWiBoXMU5LxYWM45QAbEwbMzZkWv1tEwQsz+BNwqCWq/1hcGD5arbN9v/kWuneiRkPWPxxs4DdR/dMkH5thjS+d1wiKtf7o1z0l14mwO6x/kM/Gt3HXvNR3Gnh+CPgOCUCQ0QA6MR+0RPwO2aIRuaRpK2UhKUkM5jvMiP/R9dI149In+CvkkiWzO4YG8UaQczJ7qNyA4/RmJ4mYKzv/OYV1nd6xdeaWZM4Tt54jIxTFjTnGJm6IMiUrbfkDiF/DltvmzpOAwNOrMUIE1gfmS7dMCoa+kpfSkoDcUsE4T6w1K7l0tajsV829QCJ0GUpkhwxnzARM75veeZPcpymwoWMUxa0RCHDPbJrhYMJCTh9dG00nuesLtjZUqoHk+qjDhEwPU20sJT0IRMxeI4QMC3FYFLfjIZshSbXzg9N0Mwzgcmus7A9ulQNYlDlCBi8Q0O6Ro8RiQf7d7nYXo7jRFzIOGVBSxQyCYgZzjdaultaaIZz2R5p/cGYEh8vQWOCsezeVhrUTZpswmVaf2nmwGgw8c60RINJ32OXGWdQvW6Chmy+tAkJBdnp1JheM6obQdmrozS6pzSlSrrc2mOifWVprxyXvBynqXEh45QFLVnIJCBaEDSc7cOSE8tNbNUmAy8p9QtJYlcT6gpjSGr9vmYsx/aJ4gWDSWI3lpHYAeNcFDT7rT9uMGHJKdiIGs7COnA6tlfSJoVC173QJiYqh3eP2Ztpk8nWJgNNUHZt7wLGcerDhYxTFriQiXDfPJEsZZDCnmWnNfulZbtiJlgy8+IRyK6f8H32C5Cpk6Rq+MoyEec/kUCNTLRTzViSWp8jEJIA15bogckF7UGd00c51HHr4XiIJB40PDWHOOrAfp7dBOH77Bcy9ZpdvXxPYkOOO2AZj4tg3gHdpO7Wr9nlRnt4kzhO/biQccoCFzJvJZntk6H3vAkbvANkBn51S/QO7Dehc9iM6Mk3YkxNEsOBIOHipGYMIjN6jjMg38gEM5YhI7DN/vEAsHXXZ/vpoHoTUUN90x4EaHOwJ6eIbz5kouZ0bBPOsEraL3hc7G+pb4J22Q2GeJxWJc0YLFV1jl4wfp60iTeJ46THhYxTFriQyQ11EgypGdHglbHLvg0GlfN7SHnPa3hXOOuHGX3wstjvUEduJIsPbYJgCUKSi9fs3/RnRA5nOXFGVjh7yURMOC3bLtoFD5kLScdpOPYYOY5TCWDvMHoYRmbwHBKJgeTgQmb1xLiM6BkDdbvZrJ+f8Ttt7ULUENjrNrO4UJ8IErIfU8+JiCRrMMt25HoZ2j0e6YA3BjFDm9AetKOLGMdpOC5kHKfCwPZVu+w/dV5Zv+c0Htn1XGs7JFfW7zmOUxxcyDiO4ziOU7G4kHEcx3Ecp2JxIeM4juM4TsXiQsZxHMdxnIrFhYzjOI7jOBWLCxnHcRzHcSoWFzKO4ziO41QsLmQcx3Ecx6lYXMg4juM4jlOxuJBxygbPdpoezvgJl/2n3ivze07pSOq8tstxnOLjh0Y6ZcG5N6WHV0r/+bK041juQb+lHRp5/pfxAMLT56XjZ6XDp+NBkafsNV4P39vPeJqT837atcp830bq3Daev9TR/s05TVxOw6BNzlmdn8t85aDIs9aPs7/nd+ifbTLnY7Xlq12tM99z5lL4aldL6MeO0xi4kHHKAk5wfnq99DkTMmsPxhOF6+PucdJnb5J6mHFujgaA+8cI7j8hHTwVTwTfbQJvxxFp61HpkL3GadfhMqOZfA1CxowjBxMmXxE0XUzwDewiDe4WD5XkQEPqrlfHeJBhckq2UzfULe1yxur56JnYBvtOxvbhpGvEeLjs53xFyHAqNnXLoZJBzGS+ImTa2VfapY+1AYdKIso7meDklPLkXCbHcXLjQsYpCxjw522T/uVFacme3ELmlpHSX94s9escDUVzgFtOjOVuEysLd0ovbpG2m3jBYGIsMaJcSf2EL9nfG9nVkYg8vmBAE2HTp4OJGRM1U6uk2YOlUb0vegWaSXUWhaR+EZUHTLDsMjG50y4EJl4xxCMi/M2k8qFGeyRcqNesNkG0UO94zHpbm/QzkYnQ5DTzjiYw+R331DhO/biQccoCeuGyXdLfPS8tMANezTDUwpwh0l/fIg3p3jyEDPePsdxzXHpuo/TEOmnDIemIGcs37HWESzEf1OAlMCOKsexvRvPqodKdY03Q9DLDakKnuYjDhkCb0A93mpBcvNsEpYnLExkx+csitwnV/TZrj6RNepioGWficnK/KD69PRynblzIOGUBvXDV3ihkXt2WW8jM7C/9jQmZ0X2kSyt4kOe+WYZAwLywSXpohbTOBAyxL7m8UsWCGT8GtHdHEzNj7BonjegZDWgl122hUO94WY6ckVZYn3zdhPUx+z5XnywmSZsM6RY9ZiwFEu90qb3mOE51XMg4ZQG9cN3+KGTmbjWjYTPe+phoAuYvb5KmDIgDfqXBQ8c9EmexZFcMdGYZKQgYfl7ipzJZUqIuJ1jd3jshemn6mwElrqMlLG9Q53i/EC3rDkgrTcTsOCqdt9ebYpRM2oS4mbG9pfHWLgM6R0FzibVTC2gSx0mFCxmnLKATbjss/YMJmSc3xGWW+hhqBvbPrpOuHxljPioJ7pXg3LUm3B5fIz2zMS5b4Jlp6ocR48isn0BgPAG3j5YuHxSXOpqzmKHej5uAWX/QBMy+GFRdSq9YfVDvrezq2VEa0SMuN/U1QUNsjeM48jwyTvnAlmFmn2ns5cHT0fifN+NfSTBtOHRS+ulK6R9NtH1/mbTRBBw7XMrAZoYyICIJLkZQ/vvL0ncWR88EHqRyKGOxYclo3wnp5W3Ss3bP6w8oxMKUg4iBxFO093gMAH/ayogIJlanObaH4+SLCxmnLEC8kGcDMZMmsPG0Gf6Nh6Jno1LAMLLz5ccrpM+/Ks3fIR07Gw1VOULdssTytYXSv82N3yNympPxJGg3iU9asF06TCyMvVaOUO/kp6HfP7VeWrY7xvK4mHFaOi5knLIBVzm5TlgqyqVlMEAbzbAiDMpl5lwXFA/juOWw9CUTMF9fJO0241ksAUNd1XYVA4p47Jz0uBnOP39Sen6jdBLxFX9c0eCJ2XZEemaDtGp/FAnFpphtkUB/P3Ta2sLE1ytbM2I48zPHaYm4kHHKBpKGDe8Rt5/mGv0RAWQA3nQwdzxNU8OsmR1Z//SC9INlcYkAI9pQ44PnKslDgvgjgy8eLYJBeY3A3WJs26Wu8c4s3SN9/hXpSRM1BMRWKtQ7SzVr9km/WBfjYkhi19D2AOJZ2OnVyuqfNmArO/2ai7aiPYoRa4SYOWoCBiHz8paY16aUu6ocp5zwYF+nbKAjIkw++XB0n+dy8WO0f3Om9BtXmPhJGVtTahAxr22X/tMEAPENhcaZMOPAAJJrpIvdK1fIzGtXzw4xEJQjCPg9ZujshiLjLB4r4ol47YRdxOJgBHnqCykHxnhkT6vzy6Q7xma8Z+VY8XXAPSNa2JHELrEDJgAK1cHcdgjEtTohizIZkhHhnaxf8pXjIBCV7HriCAnq/6QJwnDZv0mmR1mCqC2kMTLwHLCjiV1mZGr2nDNOS8OFjFM20BE5R+jTJmTmbsvtacGA3DxS+osbYjbUcjOoCIYNJsz+dW7cmYSoKQRm+KSvZ9ltULeYDHD6gPg9M30sKreeffuh6jCQ9oWkeotNRL22IxrwrUfikQeFLslhKNmizfb3qf0rK7cJQpJgXgKZCfAttA7oa4gVROQAa5eRPexr1ygqEmr2x2SkpW0OnjTRbmKd5UbKQZZgvESFgqC8bJB0jYmZ4NF0nBaECxmnrGAL8jdek/755dyGH/tJJloOj5xtxr2cZqI8VRioryyQHlgRxUQ+cCsEP5N19zITLbM4RsDudXD3aCwRDxjKXLfMw01ZMNjscmFZC+NJ0sGFJmzwfOEdyHdZAhF5xUATkVb3lIt/lzvUATExxJZstvvOVzhQ1whHtqIjXBCSfTtJ3dvH9kjb/0JV23+oc7Z4I2oQlohetn3jsclXYNEXOpmAQcjMsHah76QsjuNUPC5knLKCAXztPum9308XxNjZBu/fniV9eEb5zEQpM8sIJLn7qgkZjGc+NpMEdJy1c5kZpGuGSdP6xzOlgvelCFA+lp5WWz3P3RxFDUY0OT07LYiXu8ZIn7k6CqxyXtKgX+H1YHs1eWIQzGnhthAqCBbyuIzpfdH7Uqx7xvtIm9AObK3mTCeWnvIRNBSF5cXrh0uTq2KMjuO0BC79rJH53nGanOCybyvN2yrttFlqLsPKUgGz2pkDYpxITXd+qaG47H5hJ8yX58dcN2m9HZSdWAvEy6/PlO6dKE3qF2Nhirl8QxURu4G3Z0JfaaJdfC5LHcTQpMbuC08CcTt4ZRCSTVz9tUL1441CsC3fE79PC22CgKSerh5i7WECoV+n6PEopnDjvRBGnILNUhWHSCK88s0VQ/vxdxw3gfBq6ufBcUqBCxmnLGHGTJBsGsPK7o1eHaQZJmaaOnU7wosZ9V89I20+nN+MGk8Ms+k/mBOXB7qaIWLnUWMYI94ScUSAKt4evD5vWl2v2pd+yYVbo512HY9iC09FOS4xkTRx6W7pJRPHeDnSQr1zP7MGSddZu1SZwEAAIjoao48ln4cgxCPH57FNnx1j+YgZxA/LU+EE7TINgnecYlKGw47T0sFQELjIQXm5BmEGeAb6x9dKGw+acMgz7qGYIGLYlvzAMmkLy0n27zQGiPslmJfA5d83EYN3I8z4Mz9vTKhfjCef/9GZ0sdmSH3z2PnCPRILhAdqKzvN0txwCaF8O49GUXz6XGyjNFAn7Ai7YUT0kFE/xfSK1Qd1T/sP6y69c0LsD2lyKyWwTMVy5rI9Mf7JcZo77pFxyg4GbC6CUsnxkWv3EraJmXYb+6PxfRXyqTQFLCmRMO7bS2JwbxqbySwcb9JdY6XfvFwabUaLpZpSQznwNozuHYNG2dmUNtEa4uWoCTiWp6h/3qdcYNlxwY7Yj9KKLEQMu+CuZHdY/6bbYs5ncmQHnhkC36njtLE9CDg8a31MlIZzsjKvO05zpAmGTMepHwbwLjYDvmJwDKpM4x3AYD2zKZ4kXeg254bATJ9Z8E9XK5xTlNJmqpvd573jpY/NlEb0bBqDmcBnY/Tumyj99mxpaPfMD1KAkSW53LImqv/aoA12HosBtGnP5KKvEV9ylYkYYofC7p8mahM+lvKQG+aqoTFeKm0Ab+Ip41gJBHba/ug4lYgLGacsYVZMgOXUlIM3S0os5/xirbQ9s6xTSlje4rye182Qk+QsFxgpjOSto6QPTIu7fkq1dFEfGE5E5G2jpY9YufBMpBGS1Pemw9JPVkj7TciVuv5rgrDEk7diTwx+TVMcBAuBvWx1xzNF+5QD5BEiX83lA6VRJnaJm0oD3ptkB1RTt4fjNCYuZJyyBKOCEZ1tRgWvRS5byjjNwP3cZulnq6OHoJRjN3lJHltnRjPF53IvLB/NGiB9apaJmG7RWJULCBd2zdw1XrrPrq4pAka5Z5YyXtomzberqWNlWI2kTdiJlXY5ppXdJIG9+Xg+SkXiKZozLL/svfTHRTulsya0m7hJHKfRcCHjlC3tWsftrrj4ObsmDRym99CqGKtypkSDNzP/RTvi0lIaA47nZYLN+D99dVw6a8rlpPpg++67JknXm/FMG/dCXA1n/4SDJZvQchLk+roZcMqTBoQLfQ3hzO6xcmwSduSxNZtlL3aJpek3eGJW7LW+edS9Mk7zxYWMU7YwTuOtuGmk1K1tfC0XDNYICk6YxjPATLQx4fM4sG/e9swSRg5jwT2RDfY9k6VxfeISWpnqmDDrH2j1/24r6+AUO8iA+Jgle+JRCE3llUn6AEtduc7rAu6TrcpsQSe4tlyFJcVCBLPNnb7TJsXoTX+kDth+jrB3nOaICxmnrCFOgS2w+cyUMaBkrf3cy9LiTPBpY9lUvDEYbbLFpjHceJlmmMFkiaCcdvfUBYZzipX3FhOTxI/kqn+qgNwniEjihkoNn8/n7jia8QrFl+uFXUkje8VEd2mXbJqScEhk37jElEZ0IWaIk+F4iqb0kjlOY+FCxilrQmyAGZiPXxbTw6edLROvsXSP9JXXMvllGmkAP34mLqWQFC4XFJ0cLZyHQxK6SjCaFBHBdfd4aZTVfxolyVZ4Tvo+cDLzQimxdkbAYLjTNDltQCAtZyc11bb9fOEZICszJ16n6UPUA/mN2MHlOsZpjriQccoeBu6xNmjfP8VEDTkxUgzegHjBoH59obTKRA3bUIsJs9u9J6QF9hm5ct0Au00IJA2H+l2aebECoL7ZVfWeSTFXTK76ZwcZeVtWsbyUol6KCV6xA6ekw3algdgYcvf0NWGQsluVBcSM0ZdYpkwjZhD29FVPkOc0R1zIOGUP4zQG56ZR0u2jY8K2NEYnzERt4H5yQzy8kRwzIadGkaalGAdiMVhKyeXxobxsa752WIw7SSvGyoFQ/yZg5gyXplXlHjSoihNW72z9TSPwignCCYPNAZhpoE3wbFSSsISkP5GwL81horQJ2+LxzDhOc8OFjFMRYPg5UI9dNNNsJpo2lwai5ejpKGb++cWY64UYimIsNRF7Q86aNOdBMWsmg+8UEwJpy15OYDjxWlw+KF1sDwKGRHRptz4XA5qUc4YQMmm8b7TJoK6xX1WSsEwgUHxYj7iDKSc8ByZiSNbYWMusjtNUuJBxKgYGboIy2fHDOUxpwSlA5t/Xd0t/9WxM2sYRAg0Z0PlTjCWp/NMYTQzlRJv5h/OjKtBoAl4LErKlMZws8Ww5Gnd0lYpEtB48lc5DluwASrM0U47QjzgDih1XuaA6zpioJHaoqXaTOU5j4ULGqSjYYXL10JhGnwRh+SSSY9mBgMcvvCr970Jp44GYhbegpSb7myM2wyU/R5rlExLgXWnlZommUsHwD+qW8WBkXqsL6hSxSKB1qeAzSQBHu+TEbqBLG2mo3U+lQhvgHUPIpMlCzDENe0xYvpFCeDtOJeFCxqkomIV27xBPBX53RszkM6Nmpr7npPS9pdLnXpGe2hBPR2YJJF9Bc8CMQvA45Pg7itfZDM6sIfkJL+CtKVdyNYSa75Xv21HPLC9h/HPFlPD+JKNjealU4Gk4bp+ZykNmF0G+TXUgZLGg6DwDabJf0/dPnYveyXzb3nHKGRcyTkXSr4v0/qnSvSZoerbPT8xgZA+elp42EfNPL0r/8bIJmnUxKzDGkJ+ngQR4h07lNgp4YwjKJEYmrdHkPTE8J8wws3yFICA3SiHByvw+90WgZ/Z7nTajxs/yebuObeLhliSOqw/eE6PJ56XducTfhPLYxb3nfdnnsCsnTf3QX7iPpjhpvNh0s/5PFuY0zwDew5Pk90lRR45TKVz6WSPzveNUDAgCjCm5ZVgewjinCbpNYBxnUCcAcsthadmeuNTEzJYToPGc8Bl12Qb+nmypT663z89hqDnDh0MYg0cmheHkvQkkJsX+3M0xxTynGG/g7CC7T5YRMF71lS8Bo463iYR9vNfy5L0QM8fibjB2v6QpVwLLc2w5z5X+n/sY0k26frjUGs9HfLlWECKUkx1gnJGEl2y3fU4+F3/Dtu80S0ssyZBkkXuvdBCptMneFIG89J3h3WPunEr2RDlONpf8ysh87zgVB70XT8PnX5a+syx6LHIN5rXBmE4wMXlqrjPDi/Age2pHE0u8ngibZNaLCPruYukvn4mGpD4wHv/3eum9U9JtleUe2F01f3vchZP99pShuxlfsh2zAyqXAEEQzdsqPWsiJsQDZV4H7gUv0Y32XuP7xX9nbq9O8K48s1H6u+eiAMxV1TdaXf79bfXvDKK92Br8vN0zAosYjhzasFYoS+LNqQ+KwX1z6jjlqnTwQiFSX9sR+0t9INzI0pym7zhOpeBd2aloMI6dbXD+rdnSx6fHjKeFnCSN7UOcED/zwArpDx+Tfudh6V9fkH66MnpsWI7B4BLEiieHpagcNjNAcchOnGYGTBlIJBfOxjERUvP9MdR89gIzWnhU6jPa4b32mUDYEr0dNX+VvyX77qsmmPadiO+dC+6hY+uYyycNxGOE5Z7Mv2tCGbZbvT5sdbzC6pjff8NeQzDle7G0lEvEJJDmv7kYcgQoR1+kWlqyfuAxMk5zw4WMU/EwgBMA/NHLpI+YmBnTK53noyYM7hhCEt2RHXbBLumbi2P+mb96RvrrZ6V/fF760jzph0tMbNjPcxl/bAvLN7jy04A3Zv0B6Xg9sR54gCgfHhE8LnVBDMwyE0T1xdXYrYblHDwhGLk0IAIQM2mEGUazLsNJmfCmPbshipkkPilc/LyAKw2Um6WlQgRvOYIga2d9LJWQsUqiPVJXluNUAC5knGYBgziH6N0zQfp1EzSXDYg7awq1VYzzGFZEDV6a1020PLVeemiV9F0TMZyuTZxIGnvANl+MfxrwnBwg6BiFUQ+IEwKN8brUBuUihoUrVxkRMBwoyGenIQiZlB4Zkg+GtPi1FIKXthyJ8R1pPSnFIngwWqBHBq9VzeVKx6l0XMg4zQqWcN4+VvqjOdLNIzLbazM/aygM/ggHvCX7TUSQhj8NeIfymf1j1NMYmlzGH42T5n34HYRTmt/lNhAAaZdl8ADUJcrwvCCgEIulhvKnMfyVQNImaTo6dU4fzhXX5TiVhAsZp1nBWM6yweQq6bM3S79xmTSgSzwWoKnsFsLnbEpjTWBx57a5hQ+/x66turwK/DlxLGmEHAa9Z8d0y3HYP7xBeFrSwJIHZagLhA7GtdQQ+Ix3ojmAoA0xUCnqkbZuY32muSyrOQ7UMQw6TuXCGI1RxjizzPRn18bDGolTaYoAT/J2kA8mDZS7qlP9GYBDwK2JlL52fwiaugi/Y++V65472O8RJJ32DChETNqA0fb23pSjtngaXiIHUH330BhQbu6huXglEDJn7X7SLM/RF2jvNPFNjlMplHgIcZzSweyTs2huGS398TXSx2ZIE3pLXfB4WM8vxViObWGmTAbgNDNmAoPHciZTl2jga5YRA4SHg2RuQ7rXLwL42cwBUaTU9nu8N96rcVYnHD2QNmYEEVNX3EtNeH8MZ21wL9wDbVRqw8rp2LnikCoFBBlxL2mFDG1S4up2nEYl5dDlOJUJBpI8LqPMWH/EhMxf3Sy9d5I0xoRAfUsexQR7mfbwRMRXfxMxc4bGAxqzvSkYHwKYJ/WVrhiUEQDxR7XCe/UxEXPzqPhe2efx8HcIjMn94onWLEPV914JGEtEzOmUAaPt7TMJDq7tvWkb0utfNSRdiv2igeHHI9OMlpZojzRCBkHboUT93nFKhWf2dVoEITbABnAMO8nA8EIQi8KSDzEf2LTGitVAi4zsYQbbxEmuZR4InqT20UvCV5L0kbgNL8xUK/tlg9OnpEcsIHg4dZtTq9mmjnhA2PBe0wfETMZp3guIxSDHzStbY+xPLhBdBF8H71Itn8Fr3BtiJ7SFvT+vUZ58L/7O/p9KYPE7U/vHPsDfVDIsk5Gtec/x3GIGwTrBxKtn9nWaE57Z12mR4I5PTmdetCNmRd10KCa8C4noTNkUa8JOYOVUMx7ffl/6bcsJlPOcGSqCYomfCVvKCzRAeCAQCnzlvVjGQgDkA8n4vvqa3cvieNJ0fRBz8+Fp0l/cmLvMCCS8VhwzQKJB7jdfCN7dbe+x7UhuUYqgvMsE1syB+ddBubHL6uzxddLmw7mFDKLxXRNjALwLGae54ELGabHQ80N8gQkFjOcGm9WSMZezjTCGe80oknAuETThQck8Lfk8NNgLlnEevF8a2zd/w3nhCbW/a6jtSe6hECNGOchu/LfPSk9vrH/bNO+PB+iPrpbeb2ImF5SL92drMMa4kFGJv8VbxGGguXLi0Aaje0v3T5ZaIQ4zr1ciJD18Yn0U5rmqDQHzganxrC7HaS6kcHQ7TvMEY8uSB9uYB3WV5gyTPjlL+uxN0l/a9cdzpHfb7HWWzdoHmQEgSJhASbwZeBs4DDKNKMG4IIhe3hKNbb5QznBl/t0QeI9CRAwgMHYdk7bblSv3Cx9BfY3sFf+dC36fusRLROwS9ZzvxfIUSyZ1BRdnQ5tsN7EaDpgsQDSVAxQbzxWHRaZJfIhnkFgk6spxmhPukXGcWsBTQ8ZbDPbhzHEAyQnLHA9A+n+2VePO33goGpT6QDDNHiT9590xTqVALdGkEEv04xXSv78k7TPjWR/cL7FIX7onbgEvBWirfceln62O7VIfiDkMeziVfHD+XrJygJEbAfPTVdLq/ZkX6wEBc/WQKNhpH8dpLnh3dpxawMixy4eYFgJlCdR912Tp9+ZIf32r9I93SH9/e3TTd2ib+aN6wJux1UTQ6n3RAFUix81oLtmV8WLkAEPJzrDOecYENQQGM4J3Oaoil6GmDRCr6w/mXoYqV+hTHFOxJ8WOOIQbQqaqwENVHaeccSHjOPXAmI8RYMaefbG81KWdNKJXOmON4TxoRmfulnSxDOUGAcIcLEkMUZrlMYTE8B721eqplNAu/TqZ0U6xxZg24YiEzYfi/VUaCDBODEdgpoFlN3aoFbq06DjligsZxykQdr7grRllBjvXLBfhwjbZ17ZHr0wlpcfH4JNw7ZFV0o4UBzxiKHuZwSSxH3FEpYQ26ds5xj2lgeVB2iPNVvJygjbgsM2VVvY0Igzx3adjjFtynOaGCxnHKRBsNLNctvCmiTlAEBBrg5ghqVwOPVA2sASzwMr85PrcQb6AqBtvIgaPTKlPmMZgE9BKrpw0EAdFPM2OI5XjlaHfsNMO71iafkQ/JQkey0rZSREdp7ngQsZxGgA7ZcjCOzrF7hwMzuHT0gubY86aXJ6NcgDxhSfpoRXpd/h0tVk/dcJJ5KUGo01cU1WXKGpywe2wNMOyGYGzlQBtssH6D7uuUvUhqweSIlInoYIcp5nhQsZxGgAeh2E9pWlV8aTnXHaCSf8WM0CPr407bMpdzGDk2RUzz2b/eCxyFRfxMKRb3LHUVDtj8DpQBrwyacQMW+MRlnjLCtkeX0qof2KtQmxMSq8eHrLh1kfTeqkcp9JwIeM4DQA7yWyXLbwYijSBlGTH/clKu1ZIx+x7ZtjlCNutWVJ6YHk0nmmKSebhGQOkwd3TiYjGgi3fLG+lWUrhvvCULd4VE/6V6xIT5WQpacluaSvemBTlpAlITMiZWgiaJmwSx2k0XMg4ThGYVBWNBbtmcoEXhqMQvrskZqElBqXcoEgrbdZPGdccSBcbg5Ek+Pn6EU2fdI2keniF0opL2mDrYem5jelFW6lBWJLFly3wJ1J6YxBynKfVM2U9OE4l4kLGcYpAv87SO8ZL/Tul80RghMj/8ZUF0kuby8sLgFHfaTP+b70uvbItBpbmAiPJjqHbRpmoY/bfxCML5cF4j+0VvURpbDjLSptMzDy7KS6plZOYoX+w9MVhncQqpfHicc8E+OKZIhO14zRXvHs7ThEgtf40m/mSOC9NDhNAMBCb8Y1F8YwgYjWaGow5xxB800TMkxul0+fTGXS2WXOUw13j4tbnNMKhsUFQjjEj3t+MeRpvBPfJcg1nbs0zAccSYDks+5EvhrO/XtkSD+pMK2I4qgERw0np7o1xmjMuZBynSOABuHdCZttxSsOBeJm3XfrcyzEehXwtTRUATFm2mLD6+gLpu0ulU+cyP8gBRpKZ/z1270PyuPfGhmKQAG5M77jUlKZYVD3ibeEOae7muATYVN6yUJY3pHX7pac2xCDxtMIKjxjnhw3LbIEvkyZxnEbBhYzjFAkMODNglphIPJbWcBL7gJj517nSL9bEzL+lFDN8FPlUVu+VvjhP+vHKKGLSFoEt6LMHS1cPjZ6pcoLyjLM2Gdo9Cq40IBZCUO0u6dmNMfFcU+xmSsqAiGGrddoycJsc1UBCQvIcuYhxmjuXftbIfO84TgPAYIRsv13iUgDLRmln0BipfaekNfvi++DhIGC2MWfTFA3BRMzFq1ulL82XXtiSX7I+7nd0T+mDU03ElUFsTE2oOwJeMey7j5tAeyP9veGJIfD3kNUPbUF+GraUN+YyDWVDVPK5JLx7dVtsn3yEbTsr61Rri2n9Y5kdp7njp187TpEh9mXJTulvn5OW7c0v9gUbyXLItUOlt4+VrhgUYx2KnZMleB0yyxZPrIvX9jw9D5S1Tyfpd2ZJ75yY/liApoA2WGUiEQ/LgZPpxQzgaSPOBG/bRBMIfTtKrVMuVeUDbUJcDgKY3UnbjsalxnxASI7rJd1mfSfExmRed5zmjAsZx2kE2OnzzIa4VMP25bwEglkfkuuRifXqwdKNI+NOoK5mmDCqwTglX1PCQ5486cRdsNWY8j23KWa1JblaPrN+Ppu4k09dIX1wutQtU7ZyhVtjCY/jIdj5E5LJ5XO/dm/sfmKpBkFDJmdioli6Sjw0+d5+8vEEGLOdercJSXLE4M3j3wjifMpI/ZMI8O1jYt8p5/ZwnGLiQsZxGgEequM2u/7xirjFmp1A+T5oGCJ2QGGcyFHDNb6vGdHe0YAy+8ZW1bfUgTjhYufLbpvh45Ug8Rtf1+yPBr2Q+A8+/90TpT+6pvxFTDaHTkkvbYmCAWFTSJsg4PBEseV+kAkGkv8RE5WmPfg8RlwuPp8t+CS323Nc2mntQ3sUsnuNz+TU71tHZ04dL7IHz3HKGRcyjtNI8GQR6/CledIPlsWlnEKeNowUeUA6tYkHIrIT5crB0gQTNZz0TLAtRjQ5gZuZPPEdGEoCh8k/QgzMChMv+8xwHj0bhU0wqPFPUsNHEHNy/XDpT641kWVGPNfJ3+UEog7RgDeK84qIRymgSUKbJEKTJbXBJjaH2YWXhvZoZUKPnydVw+fSJtQ7OWoQtnz+wZOxXyBeCmkP4HNYRrpmWBS7abIZO05zwoWM4zQiPFz7zXD++8vSo2uiESvAARLAeGIYw5WxkAiYniZuiNsIZwvZvzGOBA4fsCsIFvu9cNl/CjWWCQS9Er/zySvMaFbFz680qIMdJiSeXh8T4DVke3Vohky7hG/tG4QdQbZd7CK+CY8XB1IiWFhyzG4DvjZkBOZziali1xjBvU2dUdlxmgIXMo7TyOAhOX1O+v4S6eFV0rqDUWAUg2BA7T98TYQOTzQegGI+2Mz6e5lQummE9P6pMTcLy0uVCvXDoZ0vb4tLbGE3UxErLGmLhPDWRW4Tlo/6WJtcPih65/AEJQLXcVoSLmQcpwTwkJGbBS/A95bGOJXEW1Lu4GEgudp7J8dA0oHdmkcMBnVPzMzrO6Xle6XD9j2is9xBq3CmF7lxLhsojegZ43Ycp6XiQsZxSgRPGjla2Dnz9YXSAjOg584XvtTU2DC7xxMzoof0yculm0bFfCy81lygTQiwxSvDsQTEEPFauQ6KtAm7pyb2jZ4YYqT8HCWnpeNCxnFKDOJl+1Hpe4ulB1fGuJly9AR0bC1dNVj62GUx/iKk+W9GIiaBqifYdtNB6fG1MQFeWJorszZBQOKJmWUCZpa1S+c2MSbKcVo6LmQcpwngqSPZ2ZPrpB8tk1bui56BQrZCFxOMJQGjA2ymzzISy0nM+isxqDdfEJPHTsfjItYesO9N0BSyRbvYsIxH/AvZnmdmlpLYmdQMNaXjFIQLGcdpInjy3jDhsvGg9LNV0ktbY06RkAzNXi/Vg4lBxNOCgGH304wB8byoqf3jlu+WFECatAlnG63aa21zOG5h57VSjpRJmwQB00Ua2zsm4WObdXNa2nOcYuBCxnGaEB4+MruSmp5zlojTeHV7jNlgy24pwFgSzHuFzfYvHyxNqZL6m/FMEry1NGgTRsWT5Hs5Hr1lZEI+bIKmFB6zIGBaSb07SeNMwIwyAcMWa5aVXMM4zltxIeM4ZQJGkniZzYcuptJfujvmHwkJ1Yr0pGIo2YnE9unh3aU5w2IeEmb9ZOnNTrvfkqG6EZm0CUn0yD2z42g8fJJjHorpNSPWhTbpafXPrjAOHh1gFwn2CO719nCcunEh4zhlCPEzGM/FO+NW7ZV7oyHFgJ59M4qe7CeXb8M/7T+J0btg++wbvCsYREQKy0djbZbPAYgzBpqY6RlT7Dv1Q0AwcUxs0+ZgRy4yN7PshOCx/19ok6QtsskWIywPcdEuiUdspLUDy0i0Bct8voTkOOlwIeM4ZQgPJU8mxpN8MwiYvSfizhpOrOakaowqmWL5GcKHr4BgaWeGEGNICn2+J+sv4mWEXZzdRMZZRA3LFXgCfMafDtoEwcLRBgQC7z8Z24WlwSRzL+3Fxc/x2lC31PWFy9qEtmErOx4Ygni7tItBvWE5j/aIH+c4TgpcyDhOhcDyUlhiMuOIoSQbLUn2iOUI39vF04yRRKgw0+cr6fLZOp14ADCSLlyKQxA2dtn/w1eEJwIGYclXBM8lVucIGNqACyGTtIN9icLF28NxCsaFjONUINUe2rqe4BrG0W1laahvQPU2cJzi40LGcRzHcZyKBc+m4ziO4zhOReJCxnEcx3GcisWFjOM4juM4FYsLGcdxHMdxKhYXMo7jOI7jVCwuZBzHcRzHqVhcyDiO4ziOU7G4kHEcx3Ecp2JxIeM4juM4TsXiQsZxHMdxnIrFhYzjOI7jOBWLCxnHcRzHcSoWFzKO4ziO41QsLmQcx3Ecx6lYXMg4juM4jlOxuJBxHMdxHKdicSHjOI7jOE7F4kLGcRzHcZyKxYWM4ziO4zgViwsZx3Ecx3EqFhcyjuM4juNULC5kHMdxHMepWFzIOI7jOI5TsbiQcRzHcRynYnEh4ziO4zhOxeJCxnEcx3GcisWFjOM4juM4FYsLGcdxHMdxKhYXMo7jOI7jVCwuZBzHcRzHqVhcyDiO4ziOU7G4kHEcx3Ecp2JxIeM4juM4TsXiQsZxHMdxnIrFhYzjOI7jOBWLCxnHcRzHcSoWFzKO4ziO41QsLmQcx3Ecx6lYXMg4juM4jlOxuJBxHMdxHKdicSHjOI7jOE7F4kLGcRzHcZyKxYWM4ziO4zgViwsZx3Ecx3EqFhcyjuM4juNULC5kHMdxHMepWFzIOI7jOI5TsbiQcRzHcRynYnEh4ziO4zhOxeJCxnEcx3GcisWFjOM4juM4FYsLGcdxHMdxKhYXMo7jOI7jVCwuZBzHcRzHqVhcyDiO4ziOU7G4kHEcx3Ecp2JxIeM4juM4TsXiQsZxHMdxnIrlkl8Zme+bFcltXXLJJeFrU/Dmm2/q2PETeuON8/avi+Xp2KGD2rdv16Rlc5qGM2fP6ujRY9Yn3sj0COnSt71N3bp1Vft23iec5s+bv/ylTti4ePbcucwrkQ42Lnbs0N6fASdvmoWQyb6FX9pDgrE4axevt2ndRm3btlHr1q0zv1EaccNnH7eH9RdPP6+9+w7ol/ZvPrVNm9a6bPoUTZ44rlqZmgN1daWG1nft73uJvW/m2wqBPrB123Y98/xL2rNnn91XfL1Dh3a69abrNG7MaF16qTtJ01BXXwM3hOXN8RMn9fzcV7TFnoVf/dLa0l57mzXZzGlTdNmMqWrV6tL4i46TkooVMhT7l7/8lc6ff0MHDh7Wug2btGPnLh0/eVJnz5zVOZvxQqtWrdSubVv17tVTgwcN0LAhg9Sje7fwemMOeJTvwMFD+q+vfFObt2yzB9aeWKO9zTjuuv0W3XTd1WrXrm14rdLhXs+cOaPDR45ZvV+cZVG/bdu0CXV/6aWFDU7nzr1h73skiNPsrsr7drd25GulGC5E9uq16/X9Bx/Wlq07LtxP506d9KH736UrLpumVgXWU0uC537f/gNxsnLBrxV529vepi6dO6lz587B0+WUH4cOH9E3v/cjLV2+KjwTNOElpmTuvP1mveOOW23y2bwmeE7jU3FChtL+8pdv6uSp09qwaYsWLFocvh4+ctQGtnNhOafmLWHoWrc2QdOunbp26aypkyea+p+sAVX9whIPg1+xoQz7DxzU57/8DW3asjU+sEYHEzI8rDffcE1YSmhM+EwG/WzeZgPGJXa/xTT93OvqdRv0k0ceMwNzMPMqnyUNGTxQv/mxD4bltELYuWuPfvKzx7RxE3V48V769uml+9/1Dg0dMjjcUyVAe6xaY0LmgYe0eavNRjP9FCHzkfebkLl8hguZHFBnp06f1t//y+fDzL7Gox6e85nTJ+vtt9wYnvWWBvVDPwvVkqkbdD5jXLkI/oOHDuvr3/mhlixdEcoKlI1x8d67b3ch4+RNRU1Z4iB2Knhfvv/Aw/rcF7+qua+8pl279+qUCZvaRAzwGjN7lnp2mWF8/Mln9YX//oYeefSJ4C3h75obxOVs2bpNr762UK/MXxCuV+cvDHV3zgRfMaF+37D6PXL0qA1Shy5eBw/r6NHjbxFT+XD+zfM6duxE9fe1i8/iHmvOyJ3mDX1t3fpN4ZnH41mzX+zff0AbNm4O/aOlQd2cPnNG8xcu1ivz4jMfn/tFwYNV29joOM2BihEyPIRHjh7TC3Nf1Xd++BN7QBeGgElESJiB2M9zPaj8nECz8+fPh0HwqWdf1HftvXB1NreHnCWe1xYt0Tds5vP1b/0gXt/5gZ578eUwoy02CIpfmWCJXqDM9au3eoTyhWYhtoT3yX7v0N6ImGbWbk79vGHP7opVa8LX7P6QXOdtPNhvz/aOnbszf9GyOHnylL753R/pG9/OPPN2MQas27gpPEeO0xypCCGD0cKN/MLL80Lw7Jat23Xu3Llq4gPXKS5J4ib6V/XV0CGDQjxM/6p+6t6tq9q2aR0CKRP3Kn9LHM2WbTvCw99oz3jGm8vnZrt2G93JazfEoI7YY3cAF16p8+dr91o5TrlDv2UJmWcW0VIbYaw4dkJb7XeYtLS0vs7kAZF37o3zF557xoBfvkksSvnUBeMfw2EyLmaPjY6TL2UvZBiICPQkyv2xJ54JnpTsQYwHgDiXEcOH6vZbbtCH3nefPvrB9+rjH3m/fv0j9+tj9v0H7LW333qTxo0dHeJSkpgY3rsxBzo+h+2EnTt3UqdOydVRbdq0iU9xY1PnrbmQcSoTloZZQsp+bms+SYwX23fuCtvcWyRWNdn1U25POzFtjNnEhl0cFzuF3aUuZ5xCKHshw+yCZSSWgU6E4L6LjyU7YYYNGaz73nGHfv1D79Ndb78lbG0eP2ZU8Mbws3FjR+mKGdN05203BVHzyY9/WLMum66e3buHv2+smQDvS7DhB97zTv3h735Cf/x78fr0J3/dyjPVA9ocJ0/wKLJkFIN84zjAZKFPn95hspDNnr37tWPX7jo9N07TgYC5967bq42Lf/TpT+jq2ZeH3aSOky9lLWQYhLbv2KW5L89/SxwLWytHDBuid7/zLl03Z3bYWo33gwcBgcIAx8XvkZeA3UL9+/XVtMkT9J5779I77rxVQwcPDD9rLMgTM2hgf40aMcyu4eGizCx/JV4hx3HScez4cRMnu0JgeQIe1ikTx4VdbNkcYQlqy/YLaRic8oExmrF4ZNa4yBjZq2cPX2JyCqJsrSmihdgVdtps27Gz2swKEVBV1S/k3pg4fow6tE+fDZKHqI8Neldfebne+653hCWpS03M+PPjOOUL4wGTGXYrEfuSgCdm3JiRNikZHJ7tBDy5a9Zv0IkTpzKvOI7TXClrIbPVBMyiJct15szZzKuRbl276N333GGD16CQdyNfFc/vkyRv3OiR+sSvfTAkyHMl4zjlC7vWSHhJsG/2shJjAZOaCeNGxxiLzHPMxGfDxi1hG3a2J9dxnOZH2QoZZlTLV6zW0WPHqg1ELNdMmjBOI4YP09sakM6dAY8lqK5dukSPTub15oIP3ZUPO8zwKBw5ckwkESPQ/dCRI+H8LsR9S4r/IIP31u07MzsMY+9mLKjq10edOnbUiGFD1aVz5wtCht8hzQB5okq5vESbkJjz+IkTQUQdOhzbLbTdoSNhPCPnFSkgnKaBvsFOLmIuSelBG+0/eFAHrY0QyuStIh/Pm+z0agLoQ6dPn9HR48fD807f4fmnbPR/+k5ji3PunaB5xho+N+RoOkA/juWgbCdOngwZ3cuhL5dtZl8yun71m9/T+o2bLySsY4zq06uX7rvnDs26bEbI4tlUUG08CIdtsMLgpIWI/W5du4ZBt9CMtHw2bnYGxjd/Wftnn7IH4aVX5uu1RYsvPJAM8hPGjQlZhXHJp/l0dlj169M7xBjVBQ/espWr9e3vPahde/ZmXo33OmLYMP3xZ35LnTt1zLyaH2y1/fYPfqw1a9dXM9wD+vcLO9NYW6/v+AOMGWddvcnDn3kNLx7HJrCDLB/4fB5iruSxucT+x1ETfXr3jLvR6oG/z5XZl5guUgswcO2wZ4BtxMeOHdfJU6dCO/JZlLtv714aOKC/qvr2Vpcu9KXyydxabPDG7N2/P4wHq63+knojmP6ut9+sG665OkxqvvatH4REcMl4QZ1cecVMffC97wx11Fj1Q34W2uywPZMH7Zncu2+flfegGaPTQXAmhyNyzhoZrnv26B76S78+fdSjR7dwWCLtnqt8BDvv3bffhJCJucxr2VAOYoP+5+vfCeItqSeeDzY7MAEMxzbkqAb6dJeuncNzn2+d8ZkYW54RJqP5gHeNVBmN0U6UiwuBSfbxvXv3a/fevcFQI1pov0vfdml4vjq07xDidfpX9bGvPe3qHp7tQsvF5x61Z5i2S9oE6A8DqqqCJ5HXGR8QVpzDtnX7jjAGnLC2pg/Rl4kH62n9ZdDAARo0oCqUsZjn9fGckX+MPkSw/D575hAux6zOOA4EO0cdseOsg10ct9Mp058ZT7t366aOHa0vZ6U5KRVlKWQo0vNzX9UPf/xI6GhJEXkIp0yaoPfed3cIoi11ZWVDVtmlK1bpuRdfCUGIaWFJ65qrZumKmdNCRy4EPnuuiRTqqM5BzR4KhNZJU83ZP6cTIqLi4YT11x86q7cZzHfe/XaNHD408+pb4bPKVchs3LxFDzz08zCQJBXBWTyc60J8VT59iBlKUu8hL4fBPRJofs8dt6pv3z7htbrIJWQuv2x6GDAWLFqqRYuXhS3EYQb25vlgnPl1BjSEGINfVxv4hw8dHIz1mFEjQoxIUz4TjQUD6OJly/Xt7/84HPuRgJDjmIopk8bbvy7RvAWL9OWvffvCDJGq4AgLdjQOHzak6HVD+9Gmu/fuC+1F1mwy6PLcnTXRwVEq/DxJCsnn01fbZI5LwQCQ74rJxdjRI3Oe/LzfDPBDP3tMGzZtrRYndAErD/1kn9VR9rDOe3br0iU8+/GRr/sz+Al9jGMe2A1a37NVG3z+itVr9ewLL1cT/LmgjNdcdYWuvXq2WmfFOhUDyoAIJCng/AWLw2GVGGsEQny2yDdEfdI+bBC5NAiEjh3bB7E5cfxYTZ86seAz48jntWDREj3881/YhMqe48zrTEY+bM99H/vKmL5yzdrwe3gRqTtyAVGf9CG6Be1CufBAcvTL7Muna9rkScGONKRv00TcP56fha8v0+p160OaAyZPCGLKTH4i6hGRSzneZvUQ6sq+YtN6dO9uoqyvBtlYONrGZJ7NUjoaLv2skfm+LKCRmUW/+NI8rbWBIftBoBGnT5sUZhZtTTkX3nQN5017APAWzV/weghATGbquS4ME51w+NBB1YIT84HOvWrtOi1eujyodo5eYKaRfeH2q82lziBPGdjCWvNval4MyHTUSRPGqrfNTOp6WGijvTaAL1u+yv7uZObVODjRwa+adVk43LEQmKEsW7E6PGTZfQExMn3qpGAMeLDqYrfNbshmzAwDMcPFTHH8mNFBDOUzAITlzlVrwmDDsgHvhdBuY6KC08xZpqwPyo97lsy03FcCdTPVjDFeg8effE5PPTc3zMhO2HuHgSQMZnFGyaBGGyKqjtvn7zbhuH7jljAbH9i/yvoUg1rmjZsJZ86SpXqxlq9cE+oigRQLV1rfSrwtrWzgfG3h4lA3CWSbHjyov4YMGphXW+eCtuAZef7FV/WTRx7VkmUrw+BPnwgG0tooMUL8btJ2vIZRZXmJ8WDHjl1as25DaO8Z0yZHj0kdMGF6Zf4ibTJDh5eu5vPKs4fxqY3QX8IzX/9zz7jB+MAuMIxkfc9WbdBPN2/ZbqLy9bBVHi9VzTGwtgthwYRgrAm6QsRCXVDvjJEcS/PzXzytdes3hn9T/7VlhkfU0HZ40agHskQjLLgXxhzGG/pRPn2JZ5NjM16et9D6x7EL4zVCgBO/sQMcJfPQTx/X+g2brT44JPdcKEdSNuqVslFmyr7/wAFttOe+c+eOYRxrSJ0hYuhT3/3RT8LxFtwrfY0+E/qxleHC+EMd2b95PSRbtXJirw8fPqwdu3dr0+atoezszg3CuUTk10tLAAMP5/NgGGnEbFCeA6uq4swl81rTEgenvK6Msr1okp1GhbrOXNQ/p5DHGXKBLZB5n+zLGrVB7clAggF65vm5+sXTz+mAzagZJHhPDAmDFIMdX7MHUAYVBo2du3brZ489qRdfnq/TZ4p//ERTg9FmgGfykEA99OrVI1yJYWHZBs/L27Lq6MTJE9q2fWdYOigWGD9c7j9//GmbZT8evGsIBIQu/Swhu+2S9uM1ZrXA+7CsgRdn0eKlwTiUAw3py+GvrT/XfEbSXIz9xYT3RLT84qnn9LQ9W4h+jDOvJ1Rro6R9Mt2HtqRNEB9Llq/Qgw8/prUmhArLjn5xHErge9r/pVfn23s/qp2794Ty8StJuWJ5qls7/g4xjOeN43pYGSi07/B3ZMr/yv9+zyZYa8O9hrEnU04+G3FNWfCU4WXJ7svA7yJuQmyYiTTeAy9UKSk/IWOVQkUwA8+GCmXm1cMUMRXZ5Fh5WDdlnZ513ZpXN7sob2PkqaFfE6DMGmmfXj2Di7Lm1dt+xu/UBDdg+Lta/qbm1bt377Cjq03rwteHndwwMOJtQIgwQAF9i7ofPnRI8IixfDJuzKhw5AYxMgwkCTwzeIaefPaF4BrGQDYXMDoHDh4Mg212rBf9mGW17MSSHENC0G/2+IBoJUiYmXUyODcEyoPw+NljT+j5l14NAubCoG8X7cJzx8wdj9H4saODt43243te69mzeyaW4KIw5T1ylY7f7961c53PPPGDicegJngT6vq77IvfIX6H5c5C4LNbW99l7EtiXmpejJnFjO2ojWBHjh/Xsy+8pJfnLQjelQTKSB8hThAvJs8VbTRp4jiNGj5Mva0eWfrLjmGk723avEXff/ARrefcqiwxVCgs2WzcvFUv2HNPP0IYEIvIEhZLjmNGjQx9nLGa9gv9JWsKzz0SFPzE0y+EiX++/ZvfRzz94Mc/1W77mj1uUBY8KpRl+PChmjBurKZNnaSZ06dq+pSJYVmelQVsCRMI6jP0u1r6XikouxgZ1goXvL5EX/vW94MLLYGKHT1yuD7y/neHRm5q6MjxcLpdF4xPNcKDdMI62fPVgrzoqBxXf/MN14TgrUKIgztR5AeDEawNlD45eFi7T9bT6WhsOb/+2quCMcx+KGrFfozBwHXJumxdUJ5yjZFZabOML33tWxcSKnLH3bp1izEpM6fFhy8l1Omjv2AW/sSFhz70SyvDxz78Pg0eOCC8VheUv7YYGTwILJUyo+E1Bi3W5Vmu6t+vn/WZeKwGy0zsqNiwabMWL10R1vqz+x71wDPyYXtGiCGrb5miEqAuqJOnTKD9wAwIHiigLhB5f/jpT1RbMmJ2uWTZKn3zez+6MBHiZxjUj33wfSHOob6+kgvKwxLIo088E+PTTp++0IbA8zxwQFUQLMkgT/BoMNr2e4xtzLjpizt37g5L51utDRGhTHi+/J//pA71jAnUBd63E2aUsz83IZTv6FH973d+FPpK8jvc8603XRdicdL0CeoMwcG95PN8AJ954NDhsGRGvNdbS6mwrEL9ce/ROxo/k3Hx3rtvL0rWc/rC/IWv64c//lnoC0ld8Dm0E0sf08wgs5xFzGBrE8HEvfGMM64SVL50xcoQGJxd19Qfz+UH33efqvr1TVU/eCdemPuK9csHg7cjAQHQr1+f4DHkXTgjkBjQ4cMGW/0zgWwdvHx4ORDPHAK8YdOWat5FxnCWl9gAc92cK/OqO8QdnqqfPf5UsLXZdYTAmzxxvI2vQ014x37Me9OXGPu4jxP2N0esLxNawXhGTB/LYoR+kOMNUVwqyi5G5ty5s2F2ipsr23AxeDGbYR2Z2UxTQ2OzxNWvbx8NsFkyhrX6VRUekCXLV4Z4iKSTMKiNNTHBg1RoUFv4bKsDlHq/vr1rvbp16xKyIm/csvXCYEEdkk3zxuuuCsc31PZ31a4+vcNgnGs3DvdWW4wMjxn3295mqHR2Hth8r01W/vU24PMwZ5M2RoYAyYWLl4YBChgwmG0xA6ON0gxECQyOlGXNuo3VHnrKwKBYaIwM75S4hjtZuzIg3XLjtRprM7LezI7tXhGevD8zJAwM7cJ7MHAkzwnvz4DEYDts8KAw+FQ6GD2OJyGgNoH2xvNy43VXh2couw2pR4Ju2UoL/ITZNF6QsaNHNEjIMHi/NO+1UB7KlRCfx466bMYU3Xbz9SFQlueLNsL7wCQgtl/n0Feq+vYNAow4OQK2T548HXY43XHrTfWOCYgdsoL3teeytueV1/EGEWib7drnnq+75kpdPmNqML61/W32xftQ1nyejQT+hh0tvAfew7eOi/2CsGSJhri17OdorI2LeEca0kbA84Dhf+ChR0O8R/ZntGvbJowbd9x2o40BE0N90Aa0Ec8ZApkxfYgJHLzqJGPF65ENcVBtbYJHG6fxLCHAEW1LbXzMtmn0VUQsE74xdu8IOdqI/Gj0Heoplqe3BgzoHyZKxO7sYxdm1vvwPeMGk7ravPC1QZ2wm5ODmLPriGeLoN27335zSBpLsDxCpqvZMmwO789XbFsv+rIJsSGDB2jkcAJ8q8LPGZvZfJC2LMWg7KZseBiydyolMGtlMKhvG3Cp4cGg4Xnwal68TgfN6fVoJJrmU6tDGzK7+cGDD4dZciEXsR8E7NbsD80RBMj0KZN00/Vzwoyotl1t9Dnc/swK8ephMLI5c/ZMmInu2L2n4uss9B8zSLv27OFf8UWDOuCokZpbYnnmunfvanXSK+yqAP4Ko752w8a8twNngwHabgM+uxQxZAl8Ps8756exywdPGoKT1+qCIM9OnTpo2NDBwVPy/vfcE/JiXZK1lFEwdbxFKceD+sZFLn5mv5T57eJDv+F8PpZtsp8ByjXYBORdt98clm1YOsnuPwkIRoTvHLK/33d38OAkv8f7MSkiLgXvWEOeMf6WfsWzfs+dt8bJkIkX6igbPru9TUpGjRwWBNhwE/HZ5Q590yathw4fzbySG8QPYo8r+x4QH1dcNkMzrT/jlaMu6mspyoqIR6ByhuH977oniPlClyYLpeyEDMGw586eo5Uzr2SwhmN3SOtWDXc7OqUjBDTajAZPQSFXS0r81s9mh2zNx61c2wCbDWvSE1m3njyxmkHnsTl85FjYJUEuoQaMs00OZd+4ZVvw8mXfB16LyUlOlBpQF3jasmeD9B88c+SmKrQv4c5/fcmy8D7ZAz9GmeXad7/zzjrjU+oDd/1om73+5sc+oDYFemidi9A2LL8ueD0GT2e3FX3j7bfeGIxurnbi5zxjLK+Q3iA77or3ZIK2wYQSy4UNAU/QbHt/VhvS9B3y2kyZONb698UlSMrDciOJ/bLvtz54DtiZdNbG1+y/ad++rYZbWQpZ3qP8iEM8OIWmFimU8hMyv/yVztigUVt7tLm0VVTzTkXBg9KQqyWAi3riuNEaNmywzXJy9/Fk0Jg5bbINbhcNKPXFIMUun+Mhv1Fl1h/Nzg4s4oAQswk8/8T/EPRf28DPzpOBZqjweGSDmF61Zl21gMZ8wA2/cvW6C8ntgM9neffd996lzp1jUsJ84T0QZiwl+NjWcOj7pKZgS3f22IHnYKwJxiCAa3g86oK2QTAQzsAzls0Z609MFtiuXiiUg2UjYqpY7k5D2Lk7oH8Ips6Gfslyatrxkh1i7Hh8o8bzgGDDK3TJJYX1Reose9dgqSi7J4eOiEfGTFjmlQgPeSsb7NPUEY3J4JfEEOS6CJBj9l/obM2pGzo2M2ce2sKu0meJLDXcX7euncM6ebYbOw0DzajjLs/2TtD/ycpJMHql9mnugRgKcrNk3wP3ycBfl9FnSalXr57hyobgV+KbmLnmC+IH1z1xXjWNIzs4Bg6sapLB23kreGE2btoSAo2zYdvwtXNmhVxD+Txf9DM8OGTTze5zLFOynfvYsepH6OQD/Ye4l96ZFAJpQKgTN0Og8AXs889b/2bJM3VZ7OP4/Jr9ltAO4hELvaemouyEDBVYW84HKjxtpkDWxMlO+NBPH9MPf/zTnBd7+BcsXhJ2BTjFg4eTB27ypPEhwK6Qa+zoUWHHUz6DT6VB32Y5iQDQfMEFnGT1zeakCfODBxAylTUgJSBeCELMzlJLD0DojRw21IxK7bNqfofARFK4Z8OOlF179oW4hnxhtrt91y77etENT38kGJRlIRIaNuf+WUkgVDkmItmqD8QpEvNCKoN8BSftyvJP/359qwXP0w/I/bSvAc8Y3pWqqr6hT6eF8uC94XiARFjx6W8GD0t18VYfTAi6du4UgpazYSceS2YcVVBJlJ2QCdTR2dJ2FwYtBsFXF7yul15dkPN69bVF4aTc7K1xTnFg1839775XH/vgewq63nHHLWEXQXMGLwLxFYVsUWcwG2KzOmZX2RAfczBsOa9Mjwwz6s1bt1XfMWLjQp8+vYNRypocV4OBvkPHDsH9Xi12yP5HlllyyuSbrAsPMQKopneLvCv5zKadxoe4D/KQkfgym6p+/eoM7s3Fpa0uvZCXK/uvWZohVqbQZ6xt6zZhSTHfMnGuGOI5W5TRN0nFkNZGMm6wPEUQcfbn87xx1MeixctCPRaW/K/0lJ2QoVJrCxRiC9v51IFVxAnYZQMWbuGclzUWHaH8m6uy4PlodWmrTGKsbgVdxB7EJcX8HvZKgtkR7mIGzHyhXrr36BbOXsoGr+bRo6XPsFksyHFBaniezwTutaqqT2YNv+7+gPudM3IQPMlvJZ5e8puQKTifwZlZPpl8s2feGALajN0ZzblvVhpsZWdrfJJzKGDN09smCoUEsALPJ4dohmcsq63pT4cPpz9PqiYsc4X+U5cqrwMEDH08u99RhpDCIWVRwrjRrWvYIp8dk4cdZJfoT376WDgygaNByBFDzNHF41LKb3JUdkKGAYIOU3NwoPJi6uTMCzngz3mP2i7HKSeYYSH2suNc0kJ/ZoAOp5ln9W0GNrZih8GtwuBZZ8s1RzVkGwlc6rj408ysyU7L72YbCd6JJaKa53blgoDOJFlhAgG6GAK8Pk75wJJITBJZvX27WlsRUF/I+E8fYotx2zbVl2GYALMUU+jSEraOvDaFWKRwH9l/SN/Mo0/z9+wuYvmewHnKksDzRxJXMldzBMI3vv1DfecHP9ZDP3s8bGvnXCbEIpOkRNjk8zw1BmUpZNrhEs78OxsGZU6UzQWNhOuNJEEo3otXzENT0w3vOE0J/ZUMyoXvFGBAfKtxZ2topbiGs2FwJOng6Rpr/qzpI06YjeaC533o4IFhHMjm0CEyke7JS+Dhbs/2DAHik9iGQsSn0zjQz2nXmhPe+Hy1qWas84GnCuFaM0YTr88bJpzeTGGTaiN4VmrEtpUS7mnS+LGaOXXyW5JnIs4Q72SyJinpawuXhDOrvvujh/SF//6G/u5f/lNf/uo3w2GX7Ogjt05TemrKUMiYCCEAqcagTM/ElZcmqRWdg7NNPvrB94b8DBeuj35A77n3rhCP4DjlAgNt2h15tUEitdqWYxEyNQ1wJUAQJVtbs3N0UEe495k9kswLN3d9F4Pq0MGD35JAkwF3y/adIb4hLfzNW4SMGcU2ba3NipHEzikKiBf6TLVlJYOJaxrxWx+0N3al1slCVj/NizLoOh06dAgZha+9enaI16nptUIc8iydf/N82AnMcjXemq3bdpqIeV1f/eYP9G9f+G/95JHHwnloBMY3xcSp7IQMMRVdunR6S3Q5nfP4yZM6fSr36b50OgJESWaUvQNm6pSJGjtmZEix7DjlRPYBdfnCX9b298lJ65XGpi3ba906zmx75eq1ennea3rp1fqvV15boB27dr1ltsyyA+cckWMnbd3wuTV/l8GeceaScrBGToCg2yA4a7RVyLBeoLczIWnvmiCqs48LqDSoG5al77v77Xrfu96hy8IxFn1CFn1ETejjdu81BVwicAjKJ9Ek3ppvfu8BzXttUa2Z+Rub8hMyrUkO1TNUYjZUzPHjJ8NujLQkDVDzcpyC4NlsjOfT3rMhnhN25NR2eCiz0NoG33IG0UCQb/b5ZMD37ERkwPzxw4/Z9WiO6zE9+cwLOn6s+hldDL7EyOzhvJqUdU4MUs16JKFYJS7bNWcQK0yE7ZvMKxF2sSLqGwLtXFNYA89YpYcqYBPxXHLO03vuvVMfvv9duvvtt+jq2ZdpwrjRIY8Ok/9E1NSEukHMcaDlI48+qbmvzg952UpJ2Y1yVFY46r1r9cyFVBaJenA7O05TQB+smaixGPCecV2/sPfGqNaWOoDJQM3dDeUM98/uCA7qqy2XVFizN4HD6dFpLt6rtl1buMfZTp29dFUfBBfXNFYYRuq8oQbSKR4s8zERrhm3FLwmDRSdYXmlFs8cy03EmlQ6jBGMF5zdxnlhN1xzdTg77P3vvlcfeO99dr0znFHFz7p17Rruuea4Qh2RiPOVeQu0dfuOWoVfY1F2QuYS+x8JrWrGsdCByFx4yAanSlz3d5qShhty+l8czIrf93hvklkVuvsBlzp/X3OQJTixKYMJ84Xy7+NMpJ35J63LB9bxt5CjJnMiei7aEtQbMkxnXjAYg0I28KzEa07TQvOEoNwaff7i81VYW/FUIVrjbqiLJMafwO/mBKK9Y8f2wQYPGTxIUyaO0zVXXqF7775dn/qNj+iPfu+TunbOlcFT+RbRSOLJ3fs0f+Hi1M9XMSg/IWOqukvXLurbu7dqrvszS9tlMyn3yjipscEmO94qmvpf2eAWvskLZvfRU1CY4KgLjOLhw8cKHmjxVOBlyBYyDDDt27fXpRUkZDAU23fu1OGj1U/xxWAwaLIDidQMeV32NzXFHPVEHA5bSNPQpVNHey92dVzsR3hzSDiYffaS0/QQ9E67V4uxtMfi4KHDQYzUFPtpQKwS91GzrTkZmiWXSvF4FgK3xv2xUtKmdRt17dJZQ03cfPj++/QXf/qZEHfKjqfsOqCeWWYiAWWpKEOPDEeJt9PIEUPVpXPnahWEIdmxc0843bSQDtniqOX5ot5aUs0xk65pyJg1EIWfLwS2kRyt2F2PgZKTa984n39macTPgYMH37Kbj8ElJNmroNkiOTlIvvVGjZkvg+dN183RvXfdZtfteV63aZoNttn5XngGDplh27ptRyrvbscOHdWvDxOri3XJexw8dOgtsTxNTS2PfKCljJcEqZJEs6a4IANvyHxbQD2Q8oOJwpkznCZ/8e8RtxwmWXNjSnOF26RekzF16JBBuueOWzVx/JjqY6zV0Wl7ljkqolSU5ShHZY0aMVxV/fpWGzwYtHfu3h2SWlVqxtJSQR2GwLcasDUVQ94yhrUYc9WqdfX4Bta6ayY4ywW/yflFNU/VLQas4R88eDhkCc0Xngm8C8QAZIM3pkf3yhlkuQ9EAYdEZj/b9ON+/frorrffrDtvt+u2m/K67rBrzpVXhISD2caNOn99yfLwWbnaExE0oH/VW9zoLIPt3rsvlL1cnqfWrWrbxh8P0S2XMjYmTH5DW9doK7LVht00mX+nhd8/Z+MFbY3QzobcT7179axmo1oKUdBcqgEDqjRl0oRw1EECdUZ/I06tVJRtC7A+N2rEsGr5MRhwDhw4pFWr1+lUmBm3hEezMIjgZ/32kuwmtvqi3sKMt4XUHTOFt2TkNOPFmSyIurRw3AW7XTgtvdj9jvcj9mvLth2ZV9JDPpR1Gza9RdiTDJLzYSplkCX2aPfuvW8RisT5DBrQP5wLw8BZyDV4YP94pk2Wv4LPWLt+Y6rBljFooA3YbbMHa/t7jjpYs3Z9EMX2QuYnTQuiq+aBmhTt6NHj4fyhYvfdcqNjhxjb0aqGJ5J+tX7j5hAYnxdWX2wyIdN0aOcMGHI+i37VEoVMAmKuj4m56oknY2LCFh0jk8AARh6YHt26VesorL8tW7FK6zdtDjMhp3aSJGmXtrpYdzzCJ06dCkskLQVmCixN1JyNk43yVB6xVswwNm3eGlzMxSYYRRNWnNh+4sTJvIzNxk1btH3nriC0ErjXQQMHqAdnDb11el6WICq32X0ct/tPoOwMlKNtQlP4fVwSZuichl0zKBMP2/IVa3LWN650xNDQQQOrjUUEWb++dLnWrN9QNmMR9xjiNjL/Bu6PuKOWMF4iXMeMHqF27S+eKM1iOob1mRdeqjUovj7wXrMEuW37zmp/F8St9Qk8QC0Z6ofJFGPqRaK3hmzKpaJshQwDxpBBA0IiOwazBLoSa28P/fQX1rl25L+LJH0frmhYUujSudNbjojHfc/21jye5YqGJZbu3btaf7o4tDOgMzDt338w80r98JDu2L1Hq9asyyuPUT7gJVq9doPWrNuQKns1gyoegYWvLw1LUtnZTJkEjB45PBzJUSlChgR1tAkGJ4GS44kZZAKiULj9Sy9tpRHDh4bgzATqjzpfumJlmBzlgpn3xAnjQvxeAlVObqsf/vin2rFrd3i/fKEcBJCTFbW6MSgMxk3yfoQbz4JjGYgTae5w/2NGjlCfXtU3i/DMb7dx75X5C1J7YkMS1uMnQpI3ToLOhpOwEdgdO1RmclX63WmbnOFlaojAPXv2jPbu3feWQGjih3h2S0XZChkgffLsy2do8OABQeElMPtknzrnPqxYvTbsYmIQyFbMNeFnDFgEa6bNH1HJUF8Ee7LEkDzO1AFbRl9d8HpYJkmi+JOrOcLMqU+vXiaGsw0Q23wPaOGSZcEDUteDzO8x4zh8+LBemPuKDYS7GrWeDlqbPD/31bD9uLacFQls0+Z06IWLl2nFqjXVjD/tPrB/VQjEK/S031LDfeL6RwxUu2czxoPCrLdhJ0zjURkyeGAwOtnvQrsT40L8RK52ZZl22uQJGlzDK8N77Nq9Vw8+/GjYqREMg71Xrvfj5wgfDOXiZSv0/QcertaOhUIcz4hhQ6rVV1LG1xYtCf09GStzlbES4b5J7obdqLmkzKSX52uNTRhypdKnzqirZ194SctWrLa/vThG0P5kjh8+dEg1cVxJIOZY2Xj+pVeCLeVe6X/cd5p+we/w+9tsTMQGZ3v5qZ/kZO1SUdZCBkU9cEB/XXvVLKuYbhceTqqZQWDtuo36wYMP6+nn5mrbth1hTa62RqADc1jc60tW6JFHn7CZ+IHMT5ovdCYyJPeqEYxGva3fsMkGzoe0bOXqMEvDKIZObHVX86r0wQ5jPnBgVVheSuCeCNzjJNef/+LpcHZIzdk0v4MbevPWrXrgoZ+HvAjUUc0dUMWEMqxcs06PP/VsyG5bl2E7ceKEFpmIefq5F0Mq/2wQrlfNvtwGkb4NMv6lgnpO3PccUJfd3+i3Q0w4EIvQEKgHlgAQd9nPAtD3N27eGspQH7xH3z69dNMN16hnj26ZVyO003J7ln78yKOhn7AjimenLvgZn4vwof/96Cc/L8pSOWVEyI4bPSoY8+z2p7+/+PJ8PfHMC8GTTV0zI6fPZT/vyVXJzz3xgZfPnKpxY0dVa2/ql0kCdb5s+ap67MV57TGB+/iTz4b6YhyIVifWMV5uVgow1Nl1XEmwU5Jn7mePPaX//vp3wsnWS61OGAvxENbX/vyEZfl1GzbryWdfCLFm2SsjeIRHDh8alnRLxSVW4LLusRSPjvTMCy/rMeuAJMXLfuDfZp22Tds24VTcsaNHhM7FQ8xyFC76kydP6qjNerZu3a5Va9eZEYhBwtm33a5dG82ZfYXede+dOdc8+WyWGIhiz1V15Kl41sqN9yP5XTwEUydN0Pixo+s1ijwgBO6Nt4cRz0ohMHg9/fxc/fyxp6vlzOC9WXrqbgPyYGIpTCTiBiT/Qk04RXjShLHBtV4X1Ami6Nvfe1C79uzNvBqF6Ihhw/THn/mtsMxRCATAfvsHPw5Bldntjvv84x95fwgIz/bW1QaD0vcfeMRmvsureeNCHZvQ4YDRcWNGhSBB6oHBnZiVbdt3adGSZWE2S/uxBZelKk6DTcrCQImL+WMffl+oy/qIfWd9EJFsM076BG3B+9LP+WwSeg0fOlgzpk3W0KGD1MXagL7CWjR9abX1v9ftXtjplJ1ED68B9/JrH3yvutmMqBIGWeqA+/78l78eBtLsNmbX1a996L3BaDT0XohxYnb9gx//tNpSEs/YtVfP0rvt2aev1wdl5STsZ+yZ+tnjT+vkKbx5F+uffoj3iL7E0h67Ljt16pDxDMTThIlR23/gkLabmFhlfZq+iRFgZv/l//wndaixFFwIbOXn3JtFi5eH/pRAHRKU2d+enaq+fdTVDE3Hjh3fEhhLnya4efKEcW8RfnVBu/GsskSW9Ou6wIP+8rwF4ciJpL0pG3132uSJOZ/nS62uJtj4GQK4a+kXfD7vu3L1Ov3vd38YjHN2O/EssdtoxrRJYXcswhRxQjsQo8XO2CXLVoYT2LO3XPNZ1Mf0KZP06x++38aKdJ5CAvHx6H7TxsfsvscY9nu/9fFQ12neJ4ExAA/egteXXBjPyOA967Lp+sSvfzj0pVxgGx75+ZNBiOBNwZOH3cTjiEcPj1NPq19yKJHKgTbhOT11kp2bR7Ru4+aw64/UD9kihvohnuxD979bY0aNsL9L138aStkLmQSWhJ598WU9Z8IAL0L2A5pAZ2BgouJ5YFHWDDy4EbMHyAS6Duvngwf1D9s0Z5rh4O/rg/f8yv9+L8Qm1PaeCVQqVZss32RDR6NjZO+ieAt2LyhaHhj26RcCLmTWhX/y08e1ZOmKVLEX2VCfA2xmzyniCK+6HjbqoZyFDAbk1dcW6WGbdeytwxuHwMSQESjJ5zBjRvzxkHLfDPrXz7kyisPn5l7of8UQMvRXRAszJA5gS15HmPTu1SMsiXCPzJSIcWI2zaw5GwZnxM89d90elkAqBeqE4wL+9p8/H8Rjcu/U69jRI/XRD7wn74G+Nmiv1es2hNnngaxYEeqVz/ng++7T0MHpYnHY6fTksy+GVOwkWsvulwmMP91tAoI3qbV9f4mNCOQxIcaKgHHybGS3ILPYYgkZ+skiMzIP2XO/c/eeWstXH9TJnCsvD2NPWg8kYwuz+0dtspnr8+i7jKM1fw9jnObzeFZ/89c+pCkTx9drtBElCAgmc4jHmp8XJnPWRnhrmcThlUNkscyJ3ag5bmMbRo8cpvvffU84WT07Bqc+yl3IINayoSwcy9GtC0K3Q7hvBAn9l3phXCRmqKYXk7/r2aOHbrv5Ol03Z3ZJ44dKI5eKAAPCtVddoTtuvSG4rajcmo1PxztnRosgSMRO6JDWSDU7MH/HQNnBGmnm9Mm6/13vCDMBDEcaeAhRpxjIui7KUZeLDuNY299Uv87W+fdpQWUPqKrSrTdeq6lm3Oic3Hc+D01zgIEPrxInu1IHtd0/DykGilnirl17g2BIRAx/c+UVM0JfIciv2DB4E6B48/VzwlbGIHLtcxmk9uzZF5Y+2GKNqKNPZ4sYfo+/JzD+7bfcoHFmlCsJ7oQYBAbWbOinLI8xWy5GfyWvCKJwoL1nNowNGAZipmpuYa8LJhi01W03XReMUdJe2RCDgCcAwbpu/UatXb8pfI8HJixpZH6Pv8Og1jaeFQrjGBOPG667OhjJ5Jkv1vvXRZpxkYtxrTaxQ/3X9vtvucLf01b1j43YjNlXzNQN116tPr1ZYq9eBzxHPPM8V7QPS327bSJ2+lR1EcPfMAZMnjgunD/EhCWtiClnuC/6XugbmdeAe0ewED/G2MMkcuWqtWEMCpm3bQzKFjHhfayP9endK4iYq2df3ijjZH1UjJChslj2ufKKy8Ls6UbrnO3btw3qk58l/Ir/WUMkVzY0F7+L+sb1+5533h2OLh87ZlSdBq42kncNn1XP/3KR/bs1/xd/3nCSHSzvve9uvfPutwe3YTub9WH8UNncc9r7rlS4P4LPbjFBd/01VwU3Mg9eTegvDLAcBMj3GCg8MZwIe7uJBB5UHvxiQ7+k/10xc7redY8NlCZK4sw0E7NAmTJXdp/mvjBauLqZJeKax7tTSZw3sbbw9WVBNGbfG88o4iyXhzQtsQ9004AB/UO7JvCZLD8TO3HGBu800HdY7iXR3kfe/56wNEVsUhA0md/hfbmy2y5pPy7KgzHEczNyxLDwfLbOKldD4L1Z4rpq1sxw2B99nmVTxgLKmBivxiIZw+r6X31k/15d/0sL7USbX3PVrDjOjx4VnqvsZ/itbVT9M6ivHlZ3N143R/cxfobdb40XJ1cqSJYaUgoMGRSWlEK9ZI2J2f0Xzz7Xhfqx1xP4G8ZTvMCcms2z0NDg/EK49LNG5vuyh8ph4GZGNHrUcE0cNy4MeIm7joEBLwQdlQrmoiPyAFPZnbt0Csm1brnhGt15282aMHZUSGedzzoejUhiJQa/Th07hiWTxrg6deoUBks8RT17Vj9AM1+oA5ZNhlmnnWZGb9yYkerXp0+4dz4H9yExGp3fcj+dwlrypAnjQrxCfX3zyJFj2rp9Z6j/7L8nToBlk0J30JDrY9v27aGNs+u7t82wmCFlB4HXB7/DLAFvHpli2bL8JscU2DPJz5L+gjBmhxN9bMqkcXrvvXdrupWfuiGZ1k6bse0/cECdOnSIZencMdzjpPHjwr/rg8ef5RN2PyFQkvru1q2LJtm9DDLDzQyfANdz586GmXsoX5hJXuzPeJhoswFV/XT7zddbX77RZt79w+uVBM8SnlNiOVpbvSdty9XXROO1c2anbt9c8A7UHUvUeGAQEMlnMZDzrA23vsE4kQbKxNhDivoQEzNqRBz0TZAxDhG7Fz0Asd1C29lF/FMYi+xzWcq61WawLGvzHq1qzcpbGKF8do/EkRBnxzPI89+jR48QF4Ox4b7xWtT23A8fNlgTxo0J5U4Dz8aOnbu0j2fjLe9X5MvKPmPqJPXh2IgcFUY9IO6Jb+OoCpaRGFPoe7RR9rOVPF/YGOqmm/3u+HGjQ/zU1bMuC3XJz/OFz9pn/ZxlfpZbkvtI4nSor3z6OB4pUhUQcHvh/axOhg4ZHDzPadqM3+Gk6+lTJwabwCSNMlBWxkCEDctVSR1dqB+7LthT+0yEHePPrTddH/ozsan53EuxqJgYmZpQbC4UImt2m7ZsC7kSyEfBYHX23BvWCHE/Ox2FhhphDyepxmkQKruQCk8+t1TVlpS1WFwsf/hXeK0+knrKVYY668X+riEzQN6ttoykactVE94Hg8PyI67kDZu2BnGBUIqCr2NY50XwDBpk4sAGtezPSf4+m3zKktRRtfuxv8uuI/r0m798UztM8LCLiV0wrN3zuW3bmMgy4TN0yMAQH4QQbUj9NjWhPqmL7Pow8qnTfOCz6E/VSD4rfJv/5yXtSfuwGYGAV5IUkhIfF/0bZnigtQlN2ouNCcyGWfbBaDbGfWYTyhe/ufA1F0mZ0pYrqQOuxicpW/r2unD/dtEmCIENmznYkPCD0+H5Z6wlMBsDzSRh1MhhwZOVb13UhCoheWKsmov105D3pa/VrGveh3vIhwvtZt8TR0agOOcZEsfFuEgfRjCxzI2wob8yAWYyONj6L5M4BH2h91EsKlbIZMMtRJdX7Cw0Mh2TikU9sj6eDPZ833TV7ZQL2X2GB5gHFSETlyqZfRQ+yBQL+nFSRsqHEUZYJWUrtsh1Gk4wCqFvRUODS57lMwZZvDFhOTeMR7RdekPsFI+3tNGb9nydt4mMtUvwiuGBaKHPV6iXTP3Yf8JXYp/C+Iin5tJWIXt0Yk/zFU6NRbMQMo7jOI7jtEzKQ045juM4juMUgAsZx3Ecx3EqFhcyjuM4juNULC5kHMdxHMepWFzIOI7jOI5TsbiQcRzHcRynYnEh4ziO4zhOxeJCxnEcx3GcisWFjOM4juM4FYsLGcdxHMdxKhYXMo7jOI7jVCwuZBzHcRzHqVCk/z9FIm42LDErLQAAAABJRU5ErkJggg==;clipPath=inset(2.91% 31.33% 26.68% 20.33%);" parent="1" vertex="1">
          <mxGeometry x="189.56" y="734.45" width="50.89" height="55.1" as="geometry" />
        </mxCell>
        <mxCell id="8G_4z4q6PhV-p-1qb1yc-28" value="" style="shape=image;verticalLabelPosition=bottom;labelBackgroundColor=default;verticalAlign=top;aspect=fixed;imageAspect=0;image=https://user-images.githubusercontent.com/4060187/196936104-5797972c-ab10-4834-bd61-0d1e5f442c9c.png;" parent="1" vertex="1">
          <mxGeometry x="250" y="730" width="60" height="60" as="geometry" />
        </mxCell>
        <mxCell id="8G_4z4q6PhV-p-1qb1yc-33" value="" style="shape=image;verticalLabelPosition=bottom;labelBackgroundColor=default;verticalAlign=top;aspect=fixed;imageAspect=0;image=https://tech.osteel.me/images/2020/03/04/docker-introduction-01.jpg;clipPath=inset(18.15% 21.67% 11.78% 25.33%);" parent="1" vertex="1">
          <mxGeometry x="320" y="728.5" width="86.73" height="60" as="geometry" />
        </mxCell>
        <mxCell id="8G_4z4q6PhV-p-1qb1yc-34" value="" style="shape=image;verticalLabelPosition=bottom;labelBackgroundColor=default;verticalAlign=top;aspect=fixed;imageAspect=0;image=https://res.cloudinary.com/startup-grind/image/upload/c_fill,dpr_2.0,f_auto,g_center,q_auto:good/v1/gcs/platform-data-cncf/events/argo_huda63aa76ee63205bdba3ffd8e9d948cb_49495_250x0_resize_q85_box_3.png;" parent="1" vertex="1">
          <mxGeometry x="440" y="722.12" width="58.63" height="75.75" as="geometry" />
        </mxCell>
        <mxCell id="8G_4z4q6PhV-p-1qb1yc-35" value="" style="rounded=0;whiteSpace=wrap;html=1;align=center;verticalAlign=middle;fontFamily=Bai Jamjuree;fontSource=https%3A%2F%2Ffonts.googleapis.com%2Fcss%3Ffamily%3DBai%2BJamjuree;fontSize=12;fontColor=default;fillColor=none;gradientColor=none;dashed=1;" parent="1" vertex="1">
          <mxGeometry x="420" y="700" width="310" height="100" as="geometry" />
        </mxCell>
        <mxCell id="8G_4z4q6PhV-p-1qb1yc-36" value="Optional" style="text;html=1;align=center;verticalAlign=middle;whiteSpace=wrap;rounded=0;fontFamily=Bai Jamjuree;fontSource=https%3A%2F%2Ffonts.googleapis.com%2Fcss%3Ffamily%3DBai%2BJamjuree;fontSize=12;fontColor=default;" parent="1" vertex="1">
          <mxGeometry x="420" y="700" width="60" height="30" as="geometry" />
        </mxCell>
        <mxCell id="8G_4z4q6PhV-p-1qb1yc-41" value="" style="shape=image;verticalLabelPosition=bottom;labelBackgroundColor=default;verticalAlign=top;aspect=fixed;imageAspect=0;image=https://miro.medium.com/1*2tcKWUJDuAxTKG6u5L4e6Q.png;" parent="1" vertex="1">
          <mxGeometry x="490" y="715.51" width="86.11" height="85.98" as="geometry" />
        </mxCell>
        <mxCell id="8G_4z4q6PhV-p-1qb1yc-42" value="" style="shape=image;verticalLabelPosition=bottom;labelBackgroundColor=default;verticalAlign=top;aspect=fixed;imageAspect=0;image=https://upload.wikimedia.org/wikipedia/commons/thumb/3/39/Kubernetes_logo_without_workmark.svg/791px-Kubernetes_logo_without_workmark.svg.png;" parent="1" vertex="1">
          <mxGeometry x="576.11" y="722.61" width="56.36" height="54.79" as="geometry" />
        </mxCell>
        <mxCell id="8G_4z4q6PhV-p-1qb1yc-12" value="CI/CD" style="text;html=1;align=center;verticalAlign=middle;whiteSpace=wrap;rounded=0;fontFamily=Bai Jamjuree;fontSource=https%3A%2F%2Ffonts.googleapis.com%2Fcss%3Ffamily%3DBai%2BJamjuree;" parent="1" vertex="1">
          <mxGeometry x="20" y="690" width="45.34" height="30" as="geometry" />
        </mxCell>
        <mxCell id="JwaB8kAfahrFwtcFptsA-1" value="" style="shape=image;verticalLabelPosition=bottom;labelBackgroundColor=default;verticalAlign=top;aspect=fixed;imageAspect=0;image=https://user-images.githubusercontent.com/27962005/35881760-e673a552-0b4f-11e8-978c-b37475b4db6f.png;" vertex="1" parent="1">
          <mxGeometry x="632.47" y="715.51" width="93.52" height="81.49" as="geometry" />
        </mxCell>
        <mxCell id="8G_4z4q6PhV-p-1qb1yc-44" value="" style="rounded=0;whiteSpace=wrap;html=1;align=center;verticalAlign=middle;fontFamily=Bai Jamjuree;fontSource=https%3A%2F%2Ffonts.googleapis.com%2Fcss%3Ffamily%3DBai%2BJamjuree;fontSize=12;fontColor=default;fillColor=none;gradientColor=none;" parent="1" vertex="1">
          <mxGeometry x="760" y="690" width="330" height="120" as="geometry" />
        </mxCell>
        <mxCell id="8G_4z4q6PhV-p-1qb1yc-54" value="" style="rounded=0;whiteSpace=wrap;html=1;align=center;verticalAlign=middle;fontFamily=Bai Jamjuree;fontSource=https%3A%2F%2Ffonts.googleapis.com%2Fcss%3Ffamily%3DBai%2BJamjuree;fontSize=12;fontColor=default;fillColor=none;gradientColor=none;dashed=1;" parent="1" vertex="1">
          <mxGeometry x="965" y="701.5" width="110" height="98.5" as="geometry" />
        </mxCell>
        <mxCell id="8G_4z4q6PhV-p-1qb1yc-55" value="Optional" style="text;html=1;align=center;verticalAlign=middle;whiteSpace=wrap;rounded=0;fontFamily=Bai Jamjuree;fontSource=https%3A%2F%2Ffonts.googleapis.com%2Fcss%3Ffamily%3DBai%2BJamjuree;fontSize=12;fontColor=default;" parent="1" vertex="1">
          <mxGeometry x="965" y="701.5" width="60" height="30" as="geometry" />
        </mxCell>
        <mxCell id="8G_4z4q6PhV-p-1qb1yc-63" value="" style="shape=image;verticalLabelPosition=bottom;labelBackgroundColor=default;verticalAlign=top;aspect=fixed;imageAspect=0;image=https://insightconsultants.co/wp-content/uploads/2025/03/playwright1.png;clipPath=inset(19.13% 18.67% 27.83% 18%);" parent="1" vertex="1">
          <mxGeometry x="977.75" y="727.75" width="84.49" height="54.25" as="geometry" />
        </mxCell>
        <mxCell id="8G_4z4q6PhV-p-1qb1yc-66" value="" style="group" parent="1" vertex="1" connectable="0">
          <mxGeometry x="760" y="727.75" width="190" height="72.25" as="geometry" />
        </mxCell>
        <mxCell id="8G_4z4q6PhV-p-1qb1yc-52" value="" style="shape=image;verticalLabelPosition=bottom;labelBackgroundColor=default;verticalAlign=top;aspect=fixed;imageAspect=0;image=https://upload.wikimedia.org/wikipedia/commons/thumb/e/e3/ESLint_logo.svg/1200px-ESLint_logo.svg.png;" parent="8G_4z4q6PhV-p-1qb1yc-66" vertex="1">
          <mxGeometry x="10" y="1.6858510638297872" width="61.68831168831169" height="54.28571428571429" as="geometry" />
        </mxCell>
        <mxCell id="8G_4z4q6PhV-p-1qb1yc-53" value="" style="shape=image;verticalLabelPosition=bottom;labelBackgroundColor=default;verticalAlign=top;aspect=fixed;imageAspect=0;image=https://media2.dev.to/dynamic/image/width=1080,height=1080,fit=cover,gravity=auto,format=auto/https%3A%2F%2Fdev-to-uploads.s3.amazonaws.com%2Fuploads%2Farticles%2Fd5rq0ppd2gbedvb2yr0b.png;" parent="8G_4z4q6PhV-p-1qb1yc-66" vertex="1">
          <mxGeometry x="74.02597402597404" y="2.3058510638297873" width="53.05194805194805" height="53.05194805194805" as="geometry" />
        </mxCell>
        <mxCell id="8G_4z4q6PhV-p-1qb1yc-60" value="" style="shape=image;verticalLabelPosition=bottom;labelBackgroundColor=default;verticalAlign=top;aspect=fixed;imageAspect=0;image=data:image/png,iVBORw0KGgoAAAANSUhEUgAAAQMAAAFJCAYAAACfEkjBAAAAAXNSR0IArs4c6QAAAARnQU1BAACxjwv8YQUAAAAJcEhZcwAAEnQAABJ0Ad5mH3gAAG8RSURBVHhe7Z0HYBzF9cY/6dS7rGrLvci924ALxuBGNaaHUAMhBUIqScg/AQIJIYVAAgECJAGS0EOvBtyNuy33LtmSLVtWs3q9O/3fN7tny0KydXtV9vzgrNu9u7293Zlv3pt58ybk4UnXtUCj0ZzxhJp/NRrNGY4WA41Go9BioNFoFFoMNBqNQouBRqNRaDHQaDQKLQYajUahxUCj0Si0GGg0GoUWA41Go9DhyH7AuMD6MmvcJaTVv75Hi4EPSR/YG7e98AhCbTZzj0Zzahqqa/H09T9BXXmltCEtCAmRhx8kQbsJPqSs4DBK8w6aWxpN5yjYuhtVdQ1okurpDAkRPfCPbaDFwIc47Q7sXr7e3NJoTk2L04kNC1ah1g4020LRQjEwX/M1Wgx8iFNubN7aLXA0yZ3VaDpBXVUN9mzPR7M8Fw9BCYG/+gy0GPiYkn0HUVtVZW5pNCen/EgZKkqPSsVsQZioQag0KP7qfNZi4EOo6A1V1chbuVFUXvfTak4OLcl185ejqbEZNgoBnAgRN4EPf6DFwNeIBix74R001TeYOzSa9qkur8SaL1bBJqJAMbCx8PixEdFi4GOo6TUl5SjbX2js0Gg6oHDPftTVNKhKSSHggDSNAt1ncBrhcDhQuH2vuaXRtM+uddvgbBarQNwD9hewu8BfQkC0GPgBDg5tFV+wxan7DTTt09zYhK0rNyFUaj+tgpAWp98rpxYDP8DosdJ9B1F+4LC5R6M5kYO79qGytEr1F6hRBNkXEuLUlsHpSHNDE7bMX+bXDiFN18DpcGLRG5+guakZNqn9oWIVGKFG/pQCLQZ+o8XpwM5Fa9BYW2fu0WgMKkvKkbttH0LshlVguAn+lgL5Pj1RyT/wIkfFx+Lmvz+ItH49jZ0W2P3ZMpSISUnY0+wyNFo/9wb62F+F4/0qXkSOK/+rY4eIk99r4ij0Omu08SYL7M3Zgad/9jjQ2IRoZzMixVUIlYOz/8CfaDHwJ3JzL7732xh9yXRViKyw7b3PseKp/6DFoW9bMGCLCMPFv/85uo8eYu5xD6fDgXefehWL/rcQUU47Ilsc8mDnIV0F/6qBdhP8CFuSZS+8jeaGRnOP+/SdPB6RsTHmlibQxKZ2Q+qgvuaW+9QcrcK6BatU5Q+Tuh8ufw1zxs9mgaDFwI/w9jIA6UhuvrHDAjEpSUgfOtDc0gQSug39zzsL4TFR5h73yd+xFzWV9SriMISBBQLdG/9LgRYDv+Ow27FvzRZzy31CQkMxbO5MhNr0rQs04dFRGHzheeaW+zDuZPOyDeLysePQsApCxP0LhBAQXaL8DFuTvFWbjI4oiyT364XIxHhzSxMo4jNTEdMtydxyn8a6BuzbnieVkJ2FhlUQKuVDi8EZRGl+IarFXbBKTHIC4tNTzS1NoEjN7oewqAhzy32O5B/E0eJKhIkY2FqMyUkMNAoUWgz8DFW/SVqEDe9+YeywgC08DKOvu9jc0gSCEHHTxt00T7ltlhDDcMErH8LexORmUhGPhaoHyi7QYhAQmNoq572FqK+qMfe4iZiSHNeOTUs2d2j8TerA3ohNsX79y4tKsDNnF+CgRcCRBAYaWXcdvYEWgwDBSMRSD6Y1h4aHI3PEYHNL42/6TpmAkDDrWa8P7tmP5iaHOVW5hYZCwEYRXGgxCAC84Y7mZhzanmu5I5GjCb3PHmM5eEljHVtkOLLGjVCdwVagZbht1RbYGx1qFIFTlm1qurK2DM5MRAQ2f7wEdg8CkDJHDEJYpPUOLI01ohMTkNQr09xyHyY9Ze4CjiCEinvA/gIKQeDGEQy0GAQI3viy/EMoP3jE3OM+cRmpSMjKMLc0/oDWQJ8pYxERF2vucZ8DO/cZowjSILC/gJWQC6UEGi0GAcTe1IzNnyy17CqwJ3vynTch1APfVeMeEXExGHv9XHPLfRzNdnz5wSI4nQ41lMiHGloIsFVAtBgEELYG+9duRVNdvbnHfVIG9UFsWjdzS+Nrkvv2QHRyornlPkx6WrDngBFTICKgAo5EC4Kh50eLQUAJQUVRMWrKKs1t9wmPikRy7x7mlsbXpA3ubz22QCg/Uoqq8mo1gqDCj9lfEAQuAtFiEEDYGjTXN2Dn4jXGDguwYPaffra5pfElDDQaNGOKueU+dAeXv7tAuQoq87FsG4NBwWAXaDEIOJyssurlDzzKgMQhxuikBHOraxAWHdHlRkKSemfKw7oVVllchq2rtqi0ZirQiCMI8jdY0GIQYNgmNDU04PDOPGOHBdiplTVhhLnVNRh++WwMvewCc6trMOTC82GLCDe33Cd30y7Ym8QqYH+B6jgUAjgxqS1aDIKAFrsd+9dtVbEHVgi12TDwgsnqb1cgLj0Fo6+9GGO+PhexqV0jpDpSBLfX2aMt9xcw0Gjzio1obrSrlGbhzHzsYAdi8KDFIAigBuxZkaMWW7FKt35ZiEywPvbtT4ZdPhOR8XGISojDoFlTzb3BDeeBMLGMVThduWDnPhVkZOPMRLnnnK4cTGgxCBKOHixCxaESc8t9orslIS4jJVj6ojqEU377TZ2gwqgZwDNwxiSPTG9/wPPsMWaoSmZiCVH7g3vyUVHiCjQyHoGcrtweWgyCANVvUNeI9e98psxJK9jCwnDWbdcFtatAAciePRWJraImu/XtKS7OJPVasBIeHYmxN8xTomAFh92Bz/79jhpFYK5D2zFvUFsGmnbgWDPXVairtDitWcgcNVj548FKbHo3nP2t6/ljzT2CPJ942zWITg7e0ZBuA3sjyoPMUuVFpcjdkW+kPxch4MQkPg82+dNiEDSEoL6iGkcLrc9VsIXZkDEseJOlMrNze6Y2haDn+JHmVvDRa6L1jkNStO8gGuuajwUaiQ6coIfBghaDIIFlw97chIKcHcYOK0gJY8xBMEJTe8QVc8ytE2FFG3P9ZUHbd8BFUiwjNX/zsvVqhSRlGciu4/MRggstBsGElI+c979QadGskjlyMCJirafu9hUjrpxtdHB2QEKPDAy+cJq5FTzEiWvTuo/DXarKK7Fj3TY1ghBG90CFH1P8g8800GIQRLB41JQcRdFuY/k0K3ASTfdRQ82t4CA6OR7Zc6adtHOTMy+HXHwewmMizT3BwfB5sxFmdRRB2LNhK+qqG4zRA9m2iYkQ6CQmHaHFIMhgj/PWz75U5qUVWOEm3HpV8IwqSA1geraEzHRzR8d069dLpYEPlkYzKilOCZTlUYTmZqz8+Etx/5qVGITLg+HnwWgVEC0GQQYnsxRu3a2CVCwh5YxTmuMyg2NUgXMmJt15o5rkcypCw8Jw/s++paL9goHk3lkeWQVVZZUoKSw2XQPDIgjmCqfFIAhh8FFNeYW55T6cq5DY49QtsT/oP20i4tzIt5CQlYmsscPNrcDBtjttSH8Vv2EJEXUOKVIQ6BpEMKNREE1Xbg8tBkEGCyGTneS8t8ByABJdhKGXzZSWNrC3l+eRzeXH3DCzaZIPmzujU5aELwmLjsTQS843t9yHoeWf/ed9cREcahSB3QTGZej8tfA3WgyClI3vL0RdZbW55T49xg5DTEpgMyD1mTxW9QO4S/qwQeg+ItvcCgw87/jMNHPLfcrFusvblqtiCxiC7JquHLxSoMUgKGGBaaytR/Ee66s1R8REo+e4wJnbUcnxmPL9W9XqT+4SFhGOKXffjIjYwIws0Dph2DT7MKySvyMXDfXNRmyBuAcKix2R/kKLQZDSIq3I/vXbzC1r9Jk63qPIOctIme8xepialWgJqTRx3dPRbUBfc4d/CY+NQuaoIeaWNbat2qT6DZRlwM5DcfmCvbJpMQhSOPy0a8kaOO12c4/7pA7so3Ik+htmMGJEoSdZm3ne42+aZ8my8JTY5CTEpVkfjamrrkXulr0qtRnFQKU3C2oHwUCLQZDColN5pAzFeQeNHRbgsF5Kdh9zy3/0mzrRUl9BW7pL68yISn8zcNYUhHkgonvWb0VNRa3qI1DTlSkIQTZduT20GAQxDFpZ/dpHHowqhBnrKvgxAEnNQbhytnyn50WLPvvIq+b4dXpzZEIMhl0+y/J32hubsOC1j+EQi85Yat1YR9GQ9+BGi0EQQxEo2LgDdRVV5h43kfKX1Ls7ErKs94q7S3z3VHTr77lV4CJz5BDVGeov0rL7K0GzStnhYhQXloqSs4+AVkFwTlduDy0GQY0xrbmyqMzcdh9aB+lD/DOtOSImChf88nvi53tv9iGPOfuhH3n1mB1BayBr/AiPLKmi/MOor21UVkE4RxGczOhkvhjkaDEIYliGmhsasXv5OsuuAgt4n0ljfe8qyMkyQ3NSr+7mDi8hNSl9+ECk+qHvg52VnkxX5ryStfO/hLOZ8QS0BthxyPtmDi0GOVoMugA57y9EfZUnGZCG+DxZKvsIhjHq0Qeiw5DgoZdc4POoxLj0VCRmWV9duaKkDHs374Yt1KmsAgYb0SoI1olJbdFiEOSwGNFV8GRdBabs6nXWaHPLB8hJMmowc/ggc4f36TNlHBK6+67vg/EYo6692HqCFWn8d6/fjtqqBogWqCzIxuSkroMWgy6A0+HAriVrzS33YUTd8Mtn+iyTUHhUFKb9+HbYfLhCUmRcrIpo9JW7E5UUj97njDW33IejB5uWrVMxBWGmVQCHIeZdBS0GXQBW5gObd8Fpt76uQnxGqkd5/09G6qA+fknEmjqgjxqt8AWc5enJ1OmaymocyjtsrIsgKqD6C7pAbEFrtBh0ESoPl6Dcg2SpEdKy+mK1ZkYZjv36XL+smxiZGIcRV8z2SdxBzwkjPIp2LNy1DzXiztnEKqDt4kpv1pXQYtAFYJliMMuS5183dliAlXbczVd63WzNGD4I3ccMM7d8izGBaJpHswnbg3EFQy+dwS8w97iH0+HEu39/HQ5OVxaLgIuqGofqWmqgxaCLwAxIuSs2orrkqLnHfZL7ZCGhl/Xe8rawl3/01y61ngDEAirC8ao5Xq1nFDT2SVjlSH4hjpZUqPBjFXUo58a+g64lBVoMugwsWBzHLsktMHZYgKZ8rwkepP1uQ3RKIjKHZ/u3AZQmt+/kcd6bgCXHG8AVnTyYVJW/PRfNjQ7lHrjCjy0aGQFFi0EXwumwI3ftFmUlWIG+ds+zRqlhNE/hyMTM+76HiFj/hQq74IzCSXfe4JXfwQjH9KEDpPJaq70c6dn8ZY76G8qJSew4tBggFmi0GHQpQrBr8Wo01tSb2+7DHvnwKM87+9KH9kfa4P7mlp9haz79HK/EHXCEJT7d+ghFdXkF8nfsU/MPOJxozEPoei4C0WLQhWABqzpShtL91qc1x3RLRMaIwcbBLMKPDrtshldaZquEx0Sj/3lnmVvWoKU04soLLU9XpoW2Wyy1qqPVqiKx85APq1ZGoNFi0MVgz/XaNz9RZqklpKBO/t6NCIu07nMn9emu1h/0hNrKajTVW185igy55AI13GgVLjgzaMZkc8t9OG/kyw+XguEEYeIiqHURusY0hHbRYtDFYIjrYebXq6o197gPA5DiM62ZxqHhYZh8960e9RVw0tWi1z7GJnF5rPZ/EC59Nvq6Syy3xKkDeqssyFap4OpXBcUq0EhZBC7LwHy9q6HFoMsRgurSClSVlJvb7sOkISkDreUXZG4EplOjhWGV0sIirPh4Gea/9D5qj1aae92Hbkq/KRMsT8LqMX6ERyY9hxTra+tVoBGtghAVaNR1TQMtBl0MFl1HUxM2vP2ZscMig2ZOUT6zOzBwadTVlyAy3vqYPJcXW/rWF6iprEfFkaPY9MVKNcnHKgnd09Hv3Alu/xaOhnBqt1UcdgcWvv6p+G1OY1ISGGjEH2JdXAKNFoMuCC3rrZ+vQK0Hqy5xNCAmNdnc6hxJvTKViHhCY30jtq7aLLVJKlGTHZvEQmD8hFU4rXnibdeqmZnu0K1/TzVl2Sq0bgrzDiLEYU5Mkn3Ugq4rBVoMuiQscM7mZhzYvNvYYQGmEhsw/Wxzq3OMvPpij+L3OdHqw+deQ9nho1J5nAiX2lOWV4CcjxZ51HfAlOwD3egIpGvA+RSWszfLue4QQWtusCM0lHMRjHP3wOMICrQYdFE4mrB3ZY4HGZBC0X/aWZ2eYBSVGIdeZ3kWvVhaeAQrPl2h1hAwkoU60CICseyFtz2yclgLB82agtDwzlXumJRElevQan8BXYQtIgb8GyYWDn8LxELo4lqgxaCrwoa0IGe7RyY2J/x0xrxmpZlx391qKM4TchatRnOdtKZSedRQnPxlDH9teRUKNu4032UNpmYfPPtcc+vkcCFYT4Yka6tqULz/sPodhvy0dLnpyu2hxaALwwCkkn3WA5AoBKnZfU/ZQib364mM4QMtt6SEkXprP18prSd73h2q953pAdn5Jv4DVvz3fY/iDpj0ZMzXL1dJSk4GLaIBF0xGWIS1KEy6M3s3bENVRZU5XdmMOvTg2gQLWgy6KCx6drEKlvzjDcsBSKwYZ91x3UnN6xCbmODij1utPISuzMJXPkLJoTIVskshUNN8VbJQZggMQXFuAbYv8GxkITYt+ZSp16IS4pE9p3MWRHs0NzTho3++Le6N/AYRMlo4Hp10EKHFoAtDQSjcssejac0JmelI7NHxtGa6BtkXTTO3rFFdXolNKzZKBRL/WqwC15JjbE35G/hgRuEN7y1EU4Nn1sG4m644aXhx+vABCI+2HjBVcvAwykoqDRdBfgNHNENFC/gbujpaDLo4jXUNKMsvNLfchz3qWePbX62ZGY8n3HIVohMTzD3uw/DpjYvXqBEELigSJrVGiYG81roCcYyeq04f2pFHW9zc6z4pA3qj39QJ5tZX6TuZi9Far7oFO/PgaOLsRCMEmafalQONWqPFoAvDIt3isGPX0nXGDov0PmeM+exEopITPM6qzL6Cz1/+UJ0ne93DwKm+tApOrED8LfamJnz48N/RWGvdOqDrM+zyGbBFftX1CQkLRfdRHqzdKOe9YeEaOXeuksRgI1oFhqtzOqDFoMsTgt3L1qG+0vq6Ct369xZf+sSoQprwI+bNVrMcPWHN/OU4Wl4rJjVbUvrYcmzVX/DVCsQ9FUWlyFu72dhhkRT5PelDBphbx+ECLzEp7gVatabsUDEKcw8qt4D9HkaeQ8PKOR3QYtDFYUGsr6xCwSbrQ3MM2hlw/iRzyyC+R5rH05SbGhqxni2pVJpwEYAI5g4Xt6Gjnne1V9674b0FluMnCGdkTvvJt05YM5Hfyc5S6+sitGCTuDv1YrXwinAo0ZiUdLpIgRaD0wKn3YnNHy9Wf63ACj/y2ouOpRJj8R5y0XTPZiZK5Vn+zmc4kn/EsAgglUcquhHH3zFsaQ9u3o3C7XvNPRaQL+DMzB5jj/eFxKZ3Q9ZY6xOT2DezfvFaOJocCHc6lIUjP+s0kgItBqcFrHgleQfQUGPdVYhOiBdrIF0957Te/gxVtlhxCGdVLvrfAhUURSFgf4HRV2C+oQP4sr2hAZ8+9iKa6qxndGLH6NBLzpe/RhGn62A5/FioKq/A0eIKo59ACZr8HnmcTmgxOE2oKi5HXUW10VxZIDw6SmVPppUw7oZ5ajagZeQcdq7fhmo5H3awqY5D1U/Ayt4ZgWlBecFhjwKqSM+JI1WUJWMl+DzUostDsS3cewDVR6sRxlBqWgRmf8HphBaD0wBWL0dTMxY/9zqcVn1tabK5QElizwwMvuQ8c6c16qrrsPjNz8QqMIQgnMFF8n9nKw8Fo1msgmUvvg27/C6rMO5g+s+/jbjUbmpI0SrMaDT/3++q62wkMqGw8bd0Rti6DqeVGHAN/5jkBCT3zERGdl/0GDYQvUYPQc/Rg+X5AGQM6qtei05KUBl7Ti9dB3JXblIWglVSBvbBiCvnIDLeetw+W9ENX3yJg3mHlBBEyLZNBMpYmty9yrNvzRYc2p5rblmDcxYGzT7Xo6XlyotKUVJYqvo8aBnQ2eAvOb2kQH7Pw5Ou69J1ggKQmJmKUZdOx5DzJqqpuewxZqvAoJmQEOodc9O1qAAYTqO1NzejqbYe2xeswtb5S1F5pEytWGT4s123f5hzDa7+3Y/Re+xQc4/78DpZ7WQjDTX1+OsPfofCPQcRKRUnusXoM2C0nrtHdbaEIPu88bjmkZ94dE7st/Bk6jWtk8K9BfjkqVdwZEcubI2NcqGM4dGuWlbao+uJgRSKiKhI9Bg+CNnTJqD/WaMQn9ZNTcV1N7KMw1fNIgLV0prmrt6kxuvZEtEs5M3uCsJA4es1ajDGzL0AfcYPR4wIgifDgR4hJWnj4tX49+/+iRa5rlFOByJbHCr5h5qQ5Cb8BK242/75WyR50ofhDUTM7HY7SvcXSgPypZpHUV1cpvaT00EUupQYsNXPGNQHl/7qu1I40rxe6FvEcig7cBgfPvIcSvIK1PoERlBJ8N1q/vZk8e/n3v89ZA7uqyyhQMOMx49+6wGUHj4q7oFhFUQos7r9IKNToQqmfKy7uHu3PvOgR6MB3qahpg4f/+l55K7YpJ4bIwxdWxJsM3qN+LX5PGihiZg1MlsK/l045+uXIbZbokdmY0fQsoiRlmj4zMmqlS0WQaguq1KmM+9zsNxqrgs48+6bMON7N6Bb7+6BswRaI9coR9yutQvWIlRENVIEgFaBmuJr8crxUxQERlf2P3sUEvyw7HtnCROLLPtcsUzlvErEWqgqOWoak11XFIJbDOSaxqUkYdo3r8WsH96M5B7pHvl+nYXfwX6IEbOnIDwmCqX5hWisa5JX3Pd7vQkFsPvg/rjsgbtUQaSlFCw0NzfjnadfQ2lhGSLkOkWKi8AQZCNKzzr8rBohEcEbeM4YJdjBAocq41OTVV9V7dEqlB8uhr3Rrk46eM6y8wStGLDgJ2dl4qanH0D/c0YjLDycO81X/QNFobf449nnTsTeVRtRX10remDcaX/fbFaC9Oy+uOHJ+9CtF62B4ClutJx2rdmM+a/OVyMIkdJEMvxYdRp65Vq14GhhMcZcej4ioqPMfUGC/MDwyAhkTx2PlD7dsevLDbA3OY4V1eC5S6cmKMWAQjBUTPV5v/4eEqSF9oVL0Gnku6PjY5X6V5aUoST/sJqLr15S//oe/v6x82biiod+oBYKDTYoki889Ky0jtXGHAR50H47Vehx5wlBc2OzmOJlUukmqFGiYIP3KFVctu6D+yF3/VbYG8SSZDGRC9BVBCHorio7wgaJCXzRz76J+GDxEeVGJ6R1w9x7v4WBk0cjJCICDrEQ6CL6GpWw48pZmPWDm72yYKovqKmoRkNtnbIEIuXB3IaMPPRWJeBxKCz5G7arVG/BCvtu6Mrc/MQvEZOWAqdss90wmo7gJ6gsA6rrmMsvUEIQGUT+sELOjZ1GQ8RlKD14GMX7C82oOqOw+gK6AgMnj8WFP/3msUlEwUh0XCx6D+qNXSs2ANIicklytjK8Nt5DxNfuRK8xg5HaN8vcF3ywDMclJYgrl4nty9ar4WtlSfqwnHiLoBEDFvx+54zGnB99A1EerNjja2xhNvQdNxzF+w6ivPAII2N8Jgh9J4xQrkGkB7MH/QHvXTdx5yIiwrAvZ4chBl6uADzOoCnjcM7XLwUDzYIaKRDdemYiSa7J7jVbVDp4Y5l2X5QS7xE0bkJK7x6Ye9+diDlFdttgIEbEau7Pv4nkPj3gCAlVkXLeNgVpCcz43k2IjIsx9wQ3NJEnXTELfUYNhDPEhhZlFnjvqqTItZ77wF1BNYJyMjjSMGrWZPSZMBxOaUAcck384VZ6QlCIAW/w7J/chhgPcu35FZqC3ZIw92e3ITo1UQq/WmlPir53Cj+jKS9/8G6kD+hl7ukacPTlmvu/h9T+FMkQOJzeEUked+YPbg6+kYRTwP6eK39+B1L691RlxOg/8Haz4T0CLgb0saZ/+zr0YTx9cFtRJ8Dz7jtqCCbMmwm7mMlU/RYOO3qKHJcBTwyzDopgIjeJ75aIKddfAqcIWovN805WuiB9J45Avwkj1bXpasTJ9Zh1x7Vw2sJUh6IvrEhvEfDSFp0Yj+GzuCJw1yv4LJznXDkLiT3SlBnIbU+Vn2PW07/9tU4vexZ0yDUYNWMSBk4cCTvjDznqwibRIkk9MnDFgz8IqlBkd+G16D6kD5rFpfS2++RNAtqByAJ/1e9+hDQxo7yp+mqGot2BxupaNFZVo6mmTrbtRvy+tDRs1b0FK29a3yxsW7ZefUeI3Gce3tI3yAcnXjMHI+ac67VzZG92VWERDq7dgr0LV2Dnx4ux65Ml2LdsLYo270J1UQkvmJq2rMbvvfC9vM6J6d2wadFatNibPbom48TyGjBpjFfOi3D+SW1pOYq27MKeBSvlOqzBvqVr5Ppsln27UXe0Ur0vMjbGKC9egMfpP3YYNsz/Ui2nHyICafV6+JKATlTqf/ZofO3xX5hbnsNAj7ryChRu2IYtb32CmuIydfN51Wl5xHdPx6irL0L30UMQm5JsPTlmGxzNzXjhnj8hf912Y7oue9Mt3Gn6xDc982uVi8FTKAKs6Kv/8TryV2yAs7njVZdoisckJ+GCX92pllsLj/LcN+fMzye/fT/K8g4h0ilC3MLhRvcuSlR8DO7476NqVqqn8HrUlh7F5jc/wo4PF0ml7HiNSi7znj50IKb95HYkZmV4RRT4/S8/8DfsWLAGUSEOlSnJShnxJQGzDFg5p4kv5Y1OMloCxTtysezxf2DDv99B3pI1aKisUdYBbwIFgc8bKqqQvzIHe75YplrF5H5ZiE7yfNJTaCgtDmDn6s1SCxzqJvOI7h6115ghmHjtRR4XPmY9Wv38a1jx1H9RumufXINT6L283FzfgLxFq1C8MxfdRw5GhIejGLawMPQZPhAbPl8hQkQxcL81nHTjXAycMs7j+0Ox3vLWp1jy6PM4lLPTaCBOhpSnWmlI9ny2DCW8HqOHejyKwd8QER2BLcvXo0XKiM38SZ79Mu8SMDHgFOQZ37tRXAXPWufGmlrkvPwelv/lBVQePAJH46nTZPE9VYeLsUcKKuMGmA3HIytB7mgqg0xW5KC6rNLSBB36xJdJy5xkJiW1Sk1JuSr0e+W3Ndc3mns7B5O/VB0uwZ6Fy5E6qJ+RP9CDihibmICtyzYo05uFX4mk+M08ZocPflD+MrZi+nev99gqYPlY8qfnsf29L9Bc597iLGxAqg4W4dCm7cgYNlDlVuC5WSU+JQnrP12GxtpGFYfh6SQubxMYN0Eu6EU//aaKNmQBsEpTbR3m/99jOLxtt1JzKzBZZu+zx2DGr+4SYfIsyu/zF97GFy+8iyiuHiStMRfm7CxJYo7e8Z8/ehRp6JDCO/+Xf8bBdVvMPdaJSozDvCcfQALXYfSgxG4Wa+PI7v0IF9M7PCJCBQzZmIFKrB/+5Tkz8xQFmhmF2Ioz4UykuEyTb7nCo7kYzF71wY8fNqwji+XDRXz3VFz22K/A5dw9EYTVHyzC24++hCh7k9tlxNcERAyYj//Gpx5Apge+MW/00j//A7lS2E5pBp8C+ojZs6di8l03qSzBVjm4Kw9Pf+8RhNbXqZRf7ig/MxUxDNvqqAor0vLH/4U9C1ac2gzuJIlipVzy518gLj3V3NN1oHu4+rnXlHvgaflwkTF0AC585B6PckQW7tmPp+/6HULqat0uI74mION5DNhJEqX1hPUvvS1CsNorN5qVZ/f8Zdj16VJzjzVSuqfLb0uA6xZ3tjViBx6Tt3oyvMre8bwlcj28JASkUlypTW98ZHnJ94Ahl70stwA7PlzoNSEgzH+4TsqdJ8QlxiM6IfZ4GTH3BwP+FwMxsTIH9xOf0Pr8g4bKalV5qf7egoVm4yvvo7aswtzjPjRp03qlwy432aHknjf81ISE2lQ6N6vQSlr3rzflr/W04u0iJ7/r46UoETO7K8HFVxb+5im3+0w6Q/6X640cmRaJTU5EYnoy7FIPXDMWgkUQ/C4GakISo+ss2kYcy6d7UF9RZe7xHvVHq7DuhTeldbXWEnIUYNT0s0T15QbLDzSk6tS3muP7nkzXPrx5B0p2+6bCUmi2v/+Fxz63PynLzUcV4yd8QG3JUawV4bXaR8UO6z5D+8MhH29h7Quiy+p/MZBKktbPepBRTXG5qPMGc8u7sMDvX7ZeClKpucc9+NsGTxwFhwieQ+4073Nnygxj72OTrc3L4Dnv/HCRV83hthzZvkcNV3YVDuVs85lrw+u9T9wxBrRZgWVkwNhhIgRmCLvaGxyKEBAxSMqyPnx2cN1mn1665oZ6VB06Ym65D2PRE7vFw0mtU1f3FKIn14MLvVjtL+DwV/Vh37SCLupKj6rIua4A+0zYiepLGqvrVACTVeKkfLSEhIqbEKrKiVfmtHgBv4sBwzyZ298qpXv2m898AxNolO3NVy2AFWjwJKQkGq5CJ/1BT2IL2GLXV1lfcLUzsC+iZPd+y9fEnzRUVaOxylqr3Vl4zSuZy8IikVFRKvcDNcCToXVv43cxiE6MM2qMBVgYfd0KEpqZnvTKc86FU8xAVXdOUX94JWJFPKzCcXmuWuxrDm/eyRtgbgUvdeWVcDT61ophOWyqqzO33IfzWcLENTQ7lYLESQiEZeBBmCtHDxho5GsYnehJK8j0aPy8sg4oCub+dhE1iIqzPm7NCtrC3igfwwlfXQGKIyMpfQ3dM6u1mH1EXCresBzPYMvAo5RVTmO9RF9jDNFZu9M0+5jlRt1o3udT3Wv5mnpPKpp8F4OmfE10snXrxZ9QiP2RPZlzL6zWY6796BQBD5KugmP4XQwYK24ZaWXD/JAYNEYKvlVfjhZBs9xspfjyf+gpNIUv15YZ02atwELpSdRkZ+kxZhiVztwKXmK6JcHmYVj5qWDZ8GQiV1NDI5rUrEleT4vmhQ/wuxg0WBySIRzHj/Vgae3Oku5hNCBDgzsPFwix3hnFCVZcfdmXUIC79e9tWSD9SWRCnFgxvr0etqgIJGZlmlvuo8RArE/DgQyea+p3MaitqFZmklWS+vg4TbYU+KyxwzwSg/oas19D7rURiXgS5D0HNu8Ss9FioFOYDYk9M8wt3xCblqz83K4A7xvnmfiSqNgYxKZabJTkfleVVyoZUN1SfAQJfhcDOJ2o8GAcv/uoIeYz38Ap1XEeRANy5Z+y4grRe+bL75zuM+KxttxaRCVb66GXzvA4B8LJ6D5yiNcSwfiD7qOGqkg/X8DrPWjOueImWAunpxu5Z/02KRvGMvVc5TtY8LsYMFKu/KB1MUgfOgBxGb6bRUchsGx9yH3lzEXDBAwxLm4nevq5sGgV1/q3SMawAcgYMcjc8i50EYbPm2XZRaDFczS/UE0cKt2Tr+JEONehRK4TE9IwmQqfM5yarzHGo3zfAcuWEkkZ0BtJvXuYW94lLjMV42643NxyH4fDjgO7840N85KaWRwCjt+nMHNuwjlyMad/5zpLBYzKyjReXzz4hBQY744s0BSe8/CP0XP8SHOPe7BSv/XYi1j+/jJEOR2IbrGrFGiurDYdQdN2zk++gXFXzDL3uA9nLX7yi0dVxiJvwfsz+muXYOJt11h2m6oPF+Odu+6HWp2YammWttZDt0YxcNUMEVFbKC798/8hdZDFKe5y7IqCw3j37l+jqbbe3Ok5PMOxN83DhFuvMnZYoOJIGR6767eoLj6KaBG8CKddLVYr1SLgBMQy2L9hqzFOawEW0D6TxiJr/HBzj/foM2kcssZaPy4n9eRzhp+Uc9cIcmfusVOEo3B7roqjsEqaWEyDZk32ahbhbv17YfgVsz3qP6E10FBZC3tDo8pRyWvEB6P4XA8O5br2833MSJTz33dVpbaElJHEXpkYefWFqvHxFlkTRmDUtRebW9aoqahCXVW9ynRkC+FEZp6uxd/pZfwvBvKoPFyKmjLrsd0snFN/eJvKxuMt2As94RtXe1TwaytrUHqkQi6q3GS5wcYt7syNDkH+hm2qUliFQ4yTv3cz+k4eZ+7xjNi0brjoDz9ViWM9oWB1jvms89BqUCLiQZg17+PYG+ZJozHCK4LA1bPOv/c7Hi/ksm/rHtWv5CoXxql5T7A8we9iwJ/dUF2DkryDxg6LcMovU5V5IxgmLl0K/iP3qNbEE/Zt24P6alP1pZEPFSvIMIFPDt9SXVKOg/J5y62hwE7EKT+4FdkXnmu595+WV1Lv7pj1wN0qWawnMBqQ6cet0FBZpSJBPYHuxsz778aQi6eLxWTxekgN6TFmKC783T3G9ejMDe0ALl3/2csfyT12qJWquWo173dwSIE0KIFIiErf2t5sx+DzJqpoPUvITUnITEP60P44sn235Sml3fpl4fxf3Kk6Jq12khGa+J++8A6O7D+sfMDwFie4uh47hzpzVLpPRwuLMWL2FI9MfeZQ7H3WaHW8miMlKtFHZwmPiRJXaQxm/+bHahzdk+tBijbvxLb3vlDn4i50IyMTYpElFdETa40Rr73kesSmJqPiwCE0VXc+nD0yPlaux3hc8H/fVcFMntbaXWs2Y83nqxEqZT9cygbT6vOXndFiwB9fcbhEpcGOl5tkGSms8RlpGDD9HNRJy1p5oKjTfjdbzuw5U8X0+y6SenU391qn7FAxPnrhbdjrmhApQhDJGy2q33kLtQV14lsPmurhNREYnsy1IXhdGNPBFvZkk3d4LTJHZitLa+hlM70S0cg5JB/99PdoqrHegVeeW4CBs6Z6vPgs3YSUgX0wcMYUJZbMot18EpG0RYah37SJmHX/9zH4ovPUxDNP4ejIu39/E0X5hxEhZYNlxLW+RrCIQcAWUeGXnnPjXMy48+vGDg9hBqQj2/diz+fLUbwjz6gAbSIBeVMTeqSrCMPsOeciLbufV8bnOarx2qP/xOpPVskNtiOGvcScre7mwiE0GMddNRsX/ugWj1rD1lAcaTUxQQmH8rjIjKOhSVkfkYlxagiOocZMeupJvP0JyM0tWLMRnz/wV48CzMiIK2apRLWemOet4fXgiAuHLw9t3KGuDYUyVASRiXpTBvQx1o0Qq8CbsRsVxWX4w+0PoL6yRo00RYmr0JmRJn8SQDFoUabXd197HFFeXnacJiZn2RWJD05RoLlLEcgYNshYRszLASk1R6vw5zt/g/KDpeomG0OK7qfB5rvDoiNx4xP3IWv4QGNnF4Q5Aj/66SMo3p5r7rEO4z6ufPY3iEqIN/d0TRpq6/HoHb9GeUERYqSMRFAMTDcyWAjcikryH3vPq0rLkD15vNdaQsJj0dRN7pOFzOHZyBg+SLWA3OfN7yHs+3j7iX9jT85ehIni0z1Q/QWMLjPf01n4fq4jUFlcimHTz/a6aPkDjgRsfWc+9nz2JTfMvdZpqmtAya5ccXkmebWl9jdh4eFocTQjL2enlBO7lJHODz37C+/WDDdhR+L2L1ajYBMTZ5g7uxi5Ymqu+nwtQuS3hIkAhIkQMNTUKoxPOLBxJ3YtX+/1oCp/UFNUim3vft7pvptTIteyaPNuFKzepISmyyK1ftysKUhMSZA73Plkuf4koGKgWkKxDhY88yqa6r0XKeYv7E1NmP+fD8QvdogQiEXgkL/qVnui+CHKzP7w98+iyEcZj30FffFP73tMLXjrTSiKq575r/j3vk3v5mviuyXiku9ehxax+JziujqDLKFBwMWA0VeHdu7DgmdfFxPZs84mf0IhePPxl5C3NU+NGYeblgEl35O+Ln40VA7QWNeIz//2ss/zG3oLponLeeV9VOQX+qTBqz5Shs8e+AsaXTNCuyh9RgxSMx4dLCQUhCCyDgLWZ+BC1RtnC0r2HURKnx5I75vlWW3yA2ypNi1di/n//ViNWESICEQykETM2FCxEDztFFKflmNVHinHoT37MOTc8SqDT7DCDtu8pWvUcmbeXNGpLbXF5SpkmcOmXbE/hUTGRKF4XyEKdxfAJkKgkt9QF4yXA0rAxUAhV4IVrLG2FiPnnCtaEAyXpgOkkm5cvBqvPfYftZoux4s5gqCEQImBd87duAYUhDIVz95v3HDLUYW+hH0D+5atxdJH//mVoVxfUCriyE5FFWYc5I1Ge/Cck7unYsNnK9AiljBNc2MeS+B/S1CIAS9DWGQYLr3320jMTDN2BiEqJ3/ODrz5xCuoLqtGhAiBeohlozoO5Yd4+5byO4v2FqCqrAL9J4wIKkFgIA2XueNy+JyE5A8YzahWVZb/Ugf27VJ5FlzExMdh59qtqBDLj9YBO5yDQdiCwzIQsoYPwuSbLg9e809u2LYVG/DPXz8jLXUtwsUdoBAciyQTiff27eTxWEaY/fhI3gHsXrVJXIYJHk+W8QZcVGXXJ0vx5RMveRxY5C4cVTi8aSdqy46ip1gIwWgxnYzQ0BAVJLdz1RZpRBwqCU7nI1V9R3BYBlKTzv/O9WpB1mCEvftL/jcf7z73FhpqGsQlMNyCKBEBFVzkAyFwcUwQxBWvraxWLWHfMcMC15LI764uLlPWwOb/faJa6kBxdP9BHFi7WeVn5OzKLuM2yHlyWH39Z1+q/hZGIQaDqxDQ0QQXaf17qklLwQZboPJDxWrU4L3n30ZteY0aPqRFoMJJ5QZaCS5yFx7fFtqChKR4jJ49RcQzMIWGeQbylq/Fe997EHnL1gZUCIhyGXbvx4c/eVgtDsvVlLoKGX2zEBYdAWdIKPVVHoEVAhL40QROM/3+TcjMDi6rgKbvliVr8dLDz2HPplyEiO/O+QZ0CygGKq5cqbl/YC/0jU/ebyxa62eUKEorvOgPf8c2sZC8mT3IG7BfpXDdFuxbtgaJPbsjoXuaz62EygOHpYw0IyIm2tzjHmFhYWJl1qFgm5QtKU/sfOYpB1ISAi4GcSlJuOC718tFDbwfTJobm7Bn/VZ8+I//4YtX56v+AVZ8hhlz+DBCbpqNYuDHG0c3atINl2HozEl+M4UpAJzZV7hhKzb8+x2sfuYVVB0qkdbYd0OHnsDz5aSjfYvX4NCmHQiLikBkQjzCIiO9cs14fE5o4uSmzf/7FCuefAkVIgj9p51lzVKTc4qOi8HaT79EiDQ8dBGYFCeQrkLAJioRxppfdt93MXzWFHVxAg177F984G/I3ZEPZ5MDzFbkmlBCayBMrhTDjv067VSuS88R2fj6E7/0ylTak0E/tkkqFGc2skLl/OddNFTWqIrQ1eD9iYiPwdivX646GWOk0aE4uFNxXYJYd7QKpbvysOYfb6jVl12CyGQ48578tcp7YIWa8kr86Ru/QlP5UUSzXJllK1AEVAxSxW+6/cXfezQ8xF7ZfcvXIW1wf5XbwBN/ev5L7+GDF95TGYo42YjJJ8LluUpCIQXDvfwE3iExMxU3PvUAEsX09ZTG2jq1vDozHvO6ufINVhWVqMhBZjCuPFiE+qOVaqiwK4pAe/D3RifGIyErQ2WRTu7VQ2XYpkCERUepSUQcJmU4dUNltZrpypDqI9v2oLLgMGpKytR1ans9KM5XPP0gkvtac91ohT5+xwMo33dQxMCY0nxmioG0eNO/fR0m3zzP3OE+VOiNr7yP9WLG8obP/ev96GbRp2ZhePKHv8eejXvFJTD7BuT47BeQUnDsJvnzXlEIrvvzvUo0PbWcWNA5rZi5BV2Hkp9o/DV/Y6A7BP2BchnkZqr/jnWf84IYv50VXtX5TlwPHktlS77lSnOPe9ASe+n+J7F9yXrEOOx+dz/bErDRBC5LPWLOueaWNZgwc+cnS1X0IhNzMLWVVYrzD6FgdwHC6RpIIVBCIAXCWOzCuEH+vEmMt5jzk9uQSnHzUAhYwA+s3qR63jmUxYlVfFAA+WAH3JkgBERVdvm9/N2u68DO4mPXxC7XopPXg8cqWLVR3mutH4ViEiMuBr/JQYHy8D57SkDEgD966jeuRHx6N3OPNegeuGbIhceJuRdtbcFN3tRFr30sprFduQLsI+A6yuwzcAmBP2Hn1+wf3oL+54wx93hGeV4Blj3xohJNjXepLSm1PHmK9aBHv6xj3YZS9Pgv/wkIAREDJrrMnjbBIyVsrm88Yd581riRlpOrMqiouPCIOlaYtAjswVAhosbLfoUWARdTGXM5l0zz/PawBVz7r/+hsbJrT/8NVphg1WoyXpKSla6mMztajGVYA4n/xUBqWL/xI5Dc04O05HLVtn/wBSoKDpk7mNc+y7K4NDc1o6ayVi6GWAShFBcKgf9vDYVgys3zMP1bX/NKVh+auxtf/QAH124292i8DUuJJ/kbuIgrj9EiZdcpxbelJSDts8Lv3xxqC8PZ11/qUWFnC75fXAQWdhe0Nqwa9E31DfJoVp03YXLIELEOPDBaLMH4+tGXTMc5N8wFF3/1Boe37MLGl9/X7oEPoeVVsd/6GiCMIWH0IdcX89aMV6v4XQwGTBqNHsMGmFsWEPO9ZM/+ryTbZApsq3Y9LYPmpiYRATkEw4v9fU/kC8fMvQBz7rkN4Rb7PdrSJH7sssf/BbsfphWf0UizzkWBrMLVojlxiYVXWQjq38DgVzGgGT98pmcBRhybXfzHZ1Wn34lYP+axnmMRAj4zjuQfReAiHxOunoPp37neK64BsTc2YpFco6pC66tda9zgK2Wx89AKtIW5k1Dfd/hVDKIS4tBn/DBzyxpcpaci/3hfgQumIbNKeEQ4wtTU6RDlIvgLugZj583ABXfdgMhYazHubeEw2e7PluPAypx2BFMTbBjjCAaBvlt+FYPJN1+OGA/WRmTh3vnJEnPrROx1jZYVOiIqAhE+DvVtCydozfrBLZh5901eTWmWv2I9Vjz5Hzj9KGpnOp6k32+sb4C9mZkQAzN61Rq/iUFUfCyGnH+OchWswlVwODutPaqKii0ra1hEBKJiTV9d/DdfV6O41GQlAmMuv8CryVy4YtKqv7+qOrU0/oHFOcaDlarZGe4MEgvOb2LQe+xQxKd5cNEcTqx78S2V/649ClaJWWwxEoyZg7pldFMZZ4wj+OjmSMHh6tGX//puTLz2Iq/1EZDqohJ8dr/305RrTk6I3EMOa1vFYY700F0ItCT4RQxoRg04Z4xHhb++ohKle/abW1+FE0yspt9icM/Ic8fDFmFTppqRaMLLt0YO2XPkYNz41P3oI8LoTRj0suj3f0ddeZW5R+MvOL+BE56sUl9dc0wGWOoCiV/EgLO7Bk0db265D3v781fmoK7kqLnnq3AGXsPRSnPLfcaIC5OQlgRHCwORXYLgHSiCjCG4/vFfIDkrQ+66947N1OELf/sUirbsNvdo/ElUYqLlKcwsaEX72Rl+3Cpo3aHob3wvBvLbxs49XyUxsYrTYcem1z86ae+4vaEZNScRi1PBiVMDxw5TkWBqQoI3kGNx6ixnHl70szu8stR5ayiAnz/4BA5u2Gbu0fib+IxUhFvMdsROwyOFR1TbQDkIZIwB8bkY2GxhxoQbD1rDfcvWoepQsbnVPuwvqDlSYm5ZQM5v/JzJcIaFgnlnOHnEk1tjuEajcf1f/g99J47wetZnzj788qn/qFBjq30lGs9g7ozBF58nRcda2eZ9q6/iJKcWVRFDlDUauHvpczGISohFSu8e5pYFxBpg6PGpoNVwcH37Iw2dpe/IbIyfdQ5aGCKq7q81rY7tlojJN83FVY/8WGV89mQEpT2Ym2DJo89h1ydLlAulCQy0CLqPGmJuuQ9X8C7KLwKbCddMWS8XFbfwuRhkDOqL+DTrU5Wb6htRtLVz/vC+pWtULn2rMCfChd++Fkk9OZMsFA7OHHEDtv79zx6Nrz32C0y741o1ZOltuGrRqmdfRe6i1dQqTQBJ6J7uUdxMfU2dejCzFm9lAHVA4VsxEJkbedE0j0zkHR98gfryznUMOsR0LliZY25ZIz4lGVOuuRC22Gi02IwUlaeCLX9Gdj/M/P7NuOaP98jzvh4FonQE4we4nuHOjxYpN0ETWLK45J0HwWqlB4rQyKFyKWJqzUVF4CTBp2LAyLq+E0aYW+7DnvI9C1actOOwNVx5KHfxKo8qCiv2OVfMxIS502GnuyBffbKgEE4sGn3ZdNz8zAOYcNVsNdfAF9A1WPDQk9j67mfaNQgCOEt2/M1XWHcBpUyt/GChasBYCZlVS25sQK0Dn4oBl0xj5KFVKg4eRtUh9ybbMLWXu59pC2/w+bdcgTEXTkFLuFg1XOhC9h+rgnLH+LsYOHTr8789PlJgtWCcgqbaOiz+43PYv2KDdg2ChCEXT/cokW9NZTW2rNoq5izT64kISNEJ5LAi8akYMOqQUzQtIUrJ9fTs9e5NQOICH7s+W+bxHP5oqezzfn4HRl88TQQhXLkLFAmGEg+bOQU3P/uQcgvS+vfyiUugkIpfW1KOD3/yO7XSsbYIgoMIcSGzZ5/r0X0vyjsIe7NDSlWLkWfzJNanv/CZGPBCdeMogsXWksMuhetFOS2w9e35qCgoNLesww7FS3/8DZx76+WISUnE1NuuxO0vPoK599+pMhb7epmzsrx8vP+jh1G6N19bBEEC7/mwy2ciqZdnI2R7t+5BU2MzwuR5GG+u/M9cGoHEd2IgIpDa1/oFa2poRNHmXeaWezjkInPYzRuw32OauAw/fOtJnPuNqxHbLcmrcwrag30e+5auxWf3/QXVh4u1EAQRaYP7YcLNV3rUEDTWNyJnwWpV+fhQ1oG6yaepm8AKk+LBBI79YhY31Vlf02/Hh4tUn4M3YKJV+oe+tgQI51ds/2ABFj7yDKqPlJp7NcFAWFQ4xlw/F6GeLAEvdb5gRy6OHCxWQ4q0DGymVRBYKfCVGIhV0O+sEQizeNHoGxeu9yzElslOlj76D9X51lXgUl5LH30eq/7+ioon0AQPHB4/+46vofekseYeazC93oLXPoZTRN8WwkAjJwu8vBJoKfCRGNBFGDh5HJ8ZO9yEcxG45JdHiNoyT2LuolWdHpoMFDw/Ji99+877sWfBSh1DEGSwPPc/7ywMvvA8y+n4XZQcPIJ9O/JVXEG4PNhfYLgKgccnYsApwSlqSTBzh5twTYSGCs+n4zJIZ+Uz/0V5boG5J/jgst47P16MT+/9IyoPFFEZzFc0wUKfKWMx7Z471BJ+HiH3dsX7C1BXXadcAzWkKFZwoDsOXfhIDGxIyEgxt9ynsaoataXl5pZncDbj8idftLzqja+gNVCWm48lf3oeXz7xEpobrOdw1PgIacz6iFtw7g9v80pqugO78rBq/iqpdBxBMFb3DoaOQxc+EQMm+oz0YLpuWd4BMZW9N3ureFuuVLgXVRRfMMAVnDiP4uNf/Al7tVsQlNC6HXjBJMx84PuI9mD+gQsOlX/+yqdorG9SHYdc0Jedhxx5Dw4p8JEYJPVI98ik4iKh3pyWy1Y4d+EqbPjve8p1CBhyHpWFRVj48FPyeBr1ZdaTsWh8R1h0BCZ842pM+8k3VcPmKSx/h/YWYOe6rQgV1yBCHlzyn0ZBsAgB8YkYxCQlWL6IHEmo82DmYUfwhmx582PkiCBwzoO/qSurUAla3rv7QZW1Sa9yFIRIzUzN7oOpP7gVo669RGXo8gY15ZX4x31Por6mwVzLU1wEWgWdmgbnP3zjJkSEiflj7dBsuWvLvNNf0BZWwJyX38f2979QouMPVCRlzna89/0Hsfr519HABVCDo79I0wo2XkMumobLHr8P2bPOVW6Ct1g7/0uUHDmq3IIIEYBwCoHqOAwmKfCRGMSndrNs/zjtdlQX+S7DrzEN+HUsf+IFn1oI/B20AL546El8cu8f5TfpAKKgQ8ooVzTKnj0VF//xZ5j6w9uMZfq8hVT63eu2YP7LH0nldyJMhCDMHEHgCGVwSYGPxCAxM9Wy6rGCsiL5ErbWOz9crKL8ahjl58WWmindj2zfg+V/fQlfPPiEStmmOwiDC5bNOCmjg2ZMwdwnHsB5P70D3UcNVaNg3qSqvAJvPvGqcg8iRAAinA5lHfik0nmBkIcnXedVo5UHu+ie2zHuylnGDjc5WnAIb3/rl5bTnrtLbGoypv/82ypRhadwQtGa519D0dY9KlmpJvjoPmowsi+chj5nj0FkQpyaUOcLGuvq8Z/fPoPNXxqdhpEiBFEtDthEFGxBEHrcHj4Rg0t/+R2VGtwKhzZux8c//6NfW1PmIhh59RwMvXSGEgd3YAhx/qqN2P/lemOZeDlvr15QjTWktnH6fEJWJtKy+yK5by/0O3cC4jJSjShCH/rrtDw/+ddb+PTl+QiR8hApIkAx4ER4DikGoxAQn4jB3PvvwsgLzzV2uEne0jVY8Nu/qaxF/iapd3dMvvNGZI4ectL8hbzZtaVHUZizDVve/ARH8w/KPvNFjf+Ris1lzSPiYxEZF4Nu/XqqVY4GzpyqUpl7koTEXRzi4q79ZCne+NtrsNc1IwKGGESxr0CNICidCkp8Igbzfn03hs+eYuxwk23vfYEvn3zJOFAA4IQUugyjr78M3UcOPt73ITeSnY/7V+Zg/9K1aoSgobJKRCBAJ3qGou6GVPyErAykDuyL2LRuSOnfS1l0CT0yEGUOa/ss4cxJYFlY++lSvP7XV9Bc36RiCegahEvjwaHE0CB1D1wEnRhwLJ5JPwMNcxkyJz6j0GgJFO/Mxe75y1Bx4LDaDpRYne5wmjiHpRm0ltAjDZHxcWr5MkYBRktF7zFmmLLg1JRyCrU8VAXzodnfGdhQrJ2/HG+IEDTWNSFSXIIIKSeRsKt5CEZq3WCWgiAUg81vfIRVzwZeDFwwZoIBS6oPQwuAV2HVCI2wKeFNHzoQiT0z1d+07H6ISoxDWHSUWoSHloCqSEFalziCtPqTJXj7mTdRV1WPcCko0S12JQbsI+gKQkCCTwz+9wlWPfOKuaU5XWAMWkiIDcn9spR5n9Sru2rxWfnj0lOUexYI095Tmhub8emL72LBm5/B2WQ/7hrIX+UaSI0Ifhkw8IkYXP7A9zBizlRjh5vs+nQJlv7pH+o4mi6M2akXm5GifPrMkUMx8PxzEJWcYLSS/D/Apr2nVJdV4J2/vYx1i3PUKBKjC5VrwCHELmQRuPCJGFz2y+9i1CXnGTvc5OC6Lfj0l4+KWa6757si9OW7jx6CrLHDkTkiW/n3ETExqi8g0H69t2BHYd6mHfjf317FodxDKt055xtEijVAMWCm42DvLGwPn4jBRT+9HeOusBZ0VJqbj/fufEAtLqEJfljJueZgDxGAVPH1+593tlp2zJNVtIIWKdy1lVVY++mX+PTlj1BbVScVnzEExuSjcAYUdUGLwIVPnLQmD/IGcO06fyQe1XgG/fvYtBRMvutG3PjGk5j94A8x7sZ5qi/gdBQCdiIX7tmPp+95FP/7+5siCrUIF4uA8QNRLXZlFRh9BF1TCIhPLIOJ116IWT+4xZJPyAQkL1/3fbUYiia4oADEd0/FAGn9e4wboUJ7ua+r+/4ngy5B4d79WPHBYqxftA711fUIFREIEzeAfQPsKFRugTx4GbrylfCJGGSfOwFXP/ITSy085yS8e+f9KtuRJgiQEh4RE4WMoQMxYOYk9J92ttfm+QczjCUpOXAYOYvXYvFbC1BdWSMVHiqkmBZBeIgIgghFCC0Cs5h3dUn0uhiQfmeNxHWP3mvJXKQ5Nv++x1CwcqO5RxMomPdv6NwLMGzuLMRnpnp9Vl+wUpx/CAte/RA5yzejrqrO6AeQSs9MxuwgZIixaIHysYNhvQNv4RMxSO3XE7f+47eIsJgHcdMbH2PNc68pYdD4Fy4Q0mPkYPScOErN7ouMiz3t+3CY9Kaq9Cj2btqJrStysGXFFtibm1UwkVr+TB60CNT0Y3mEiHtAIQg9zdwjn4hBREw0vvv6XxCbYi2RZPm+A3j7O/fpPAB+hDP8MkZmY/gVs9HnrDGerRoU7EiJb5GWnishcwHUjYtWY/2SdaitblAT5MKkjjONuSEEjCLkc7oBFIKu3zfQET4RA5v4lLc+9xAyBvU197hHY3Ut3rnrAVQVera0uubUhNhCMVgsACb6SB82UE3yOe2QCkyc8vfQnnzs3bgDO3N24XBeISpKK1SjY7gCHA0QK4BDhOwTYMWXzylrgEIgz09HEXDhEzFgAZt7310YPmuKpavHTEfMaXBIbprGB8g9iU1JRu+zx2D01y5BfGaaGhU4XWDnn8M0/UulQSkvKkXR/kJslNa/uqJGXmtRy5vR+6EIsLVXLoA8Z2qyUKexnyLCYcLTqV/gZPhGDMSOGnXp+bjk3m9ZEgPehFXPv4bNr39s7tB4i4i4aAy+eDpGXXUhYkQQuvSwoJQT9ivZpfFoqKnDEanwh/MOoGjfQezeuAt1NQ2oraqHU1p6aWJUHADruKr08px/uY+tPicXOaXSh4pQhJoCQM4EEXDhEzEgnHH2o4+eQ3iUtWGouvIKvHrjj9Xy6hoPkRIdnRCPYfNmYuD5k5DQMzP4RYAVl3/M54xIrZSW/tDefNRV1aCqvBLFh8pQU16FwrwC1NfUq/c4muzmZ0NUSLCrhec4CFOOsZK7BMDoDJR3yqWgdcDrxKsS5FfGZ/hMDEJsNtz8918ja/ggc497tDgc+PyhJ7F/+Xpzj8ZdWOFjU5LQ7/xzMP7mKxARHR20JV1NE5d73lBbj2qp4NVHpbIXHEJlyVHs27YHeTv2w9HsVJXX2WLmk5C//DlqiE9VdHb8yXO+rp5LhZcP8D18nYJAMVD1ng85iGEBdNWYQe/iOzEQH/RicRNGX2otFyLZt2ytSoGmJy25T2RCLEZfdykGzZwclO4AI/u4PDlN+/zte1XFP7T/MKrKKlFWdFS18qysrPBQg0pmay7PWMlZaFWHn1RmBgOxdrNeMxaA8L2mJpgP2c/3qC1jn+ZEfCYGvF1jL5+pJi1Z7ZziqMK7d92PysJic4/mZDAegJOEBlwwCUMuOV+lAgsKEWDllUdjfSP2b9mN4sIiFO49iB1rtohfX4emRqntDrOVV5Wbld6o+DTfjdLDys4OPgNVuU1rQHXyqRJnvP94defraq+5T3MyfCgGRrzB9999SiWptAqXK1/+lxdUYIimY8JjojBs7kyMu/Fyle05KJCKaW+248DOPKz/YgVWfbYKDfXNqhIf68nnc6ntDO1ly6168hneJxg+PquyUcHVW9jaq33EVdmJscf4V2MFn4mBQu7yNX+4B4OmjDN3uA+HGT/48e9wRPxGzYmw1Q+Pjcboay/GgPPPQXxmeuCjBUUAaqtqsH1FDnK37sHeTbtReqhM7YdDTH/5Y4zfGz36/Nvat1etvfxRBo16nRv8x/hjPtX4AJ+KAQ23weedhSt/80OPprUyffrC3z6tOpg0rCghiOueiv7nTsSY6+ciQiyvQLoDanivsVn5/rtztmPN/BU4WlKprDma/Fw0hBVeVXp5P6P6lBsgJU+Z98csAP4GcRfUT9Gmvb/xuRhExcfjlmd/jdS+Pc297sNCxfTpOz5cZLQwZzCcMTj2hrmqTyAqMT6gIsB7UVddi5XvL8TyT1ag4kg57E3NqqKrlYNY4UUIOM2XFsHxsXxjBIA2v6vK64ofeHzrJhBxFdiJOPbyGeYOazRUVuOje36Psn0FVJkzCmUJZKYie9ZUZM85V60KFDAREAFgkM+e9duwY+0WbFi0HjUV1WrEh1YAW3326FMQuNowbxYtAsKZf6z2ulMvOPG5GPDgzH5756t/9rhjqyyvAB///A+oL68y95zesMLHpCRi4IwpGPO1SxCZEG++4n/oCtSLFbB7/VZ8/vJHOJxfhKYGu5rLb3NSAIzKHkEhoCUgFT6E0Xzyuq78XQO/iAGHFuf85BsYbzEv4jGkQOav3ojPH/jL6R17ILWGi4cwUIjrAwYyToAiwMCfNZ8swbpF61CcfwQOh0O19rQAwpQQ0CVgP4CcuuoANPoAjCFBTVfB926CwCGhzCH9ccszD3i8/j07m/Yu+BIrn3lFuQ6nE5zglTa4nwjARAy7bIZxrQIkAuysLdy9H1tXbsTS9xahtrIOkJae/QCczMORALoEx0YF+JDPaSug6+IXMVDFwxaGqx7+IQZLS+dxSZGCV7B6ExY8/LRaBbmrw+HA1EF9MU4sgawxw9TSYoGCM/7KDxXjkxfeweZVW1Bf22DEAigXgLEBDpX2S6X64miBiFWoigvQAtDV8YsYEFoHCZkpuOlv9yM5K8Pcax2ar0Vbd2HZ4y+gouCQoThdCAoA1xgYNGsqeo4fgV5njQ5obkGa/rvWsENwDTYtz0FDbaMSACb1oAvAZB8RygJgsg/ZKc9dmX60CJwe+E0M+CUOZwjOu+MqnHf71cZOL2BvasKSPz2PfUvWdok4BPafxGWkoN+0iRhxxWzEpnYLWH8A4RyAgh17seytz7FuSY5K9cWRAEYE0h3giADTf6uYfzEA+JrrdLUInF74TQwI4w7CYmJxw19/gZ4WZzO2h6O5WbkNXL05WLMjMYNQ1vjhGHzhecgYka1WFA60CORu3I5Fb8zH3i25aKgTS8DsDGQfABcFUX0CSgCkoJgxAVoATl/8LAbykArQY/hAXPeHnyI2OcF4wUswB8KWt+dj10eL0FhTpzobA4bUmlCxAlIH90OviaPQZ9I4dOvfK7AZhuVyMNHn9pU52LB4LTZ/uQnNDc3iDrgEgNYAU4AZw4XKFZDn1CwtAqc/fhUDwjx0LSGhmHLz5Tj/W9cqs9nbcCGWlc+8jF2fLlVmrz9ha894iuyLzsXQSy5Acp8s85XAwo7Bwj35ePupV7BrU+6x1F7sD2CEoBodUH0DUhzkoeIEtCVwRuF3MSCsnqER4bj0F9/CqDnnGju9DK2CqkNHkC+tIOc2lO7a55M+BVZ+W2QYeowZjgxxfbr166UWHqUgBNINcMFQ7h1yDdZ8vgLbVm1DU0MTQmSfSv2tLAFDCELlehnxAVoEzlQCIgb8QlqhCT3T8bU/3IMMMZ+lFBov+gDGy5fszBNh2ICSXXko338ATTX1qgXkyRgX4NiT46hTMs7LeCqVRJ7EpiUjvnsakvv2Qlq2uAFnjUZkfKxyC3z5O9yBK1Pt3bQDqz9eho3LctDcaD/WMagsAan0DBhyjQwYQqBF4EwmIGJA2JnIohiTloSb//p/SKM57euKJIWeLWV9ZTXqj1aibO9+1BSXobqoVFkR1YeL0VBdJ+9zIjIhDnFpKUjMylDh1FFJCVL5eyIhMxUR8XGIiI0Oqsrvgu7AAbGC3n7qdeTv2q/6BIxAIfYJiAjI63yuLQFNWwIoBqpuwhkSit7jh+LyX3wbyT3SjRf9BGMVjCfH/mkHs5rIH/UsyCq/C1o/21ZswOZlG7B+8XoVrh3Cii8/S40MuNwBWgGynz9DWwKa1gRMDFw4W0LgsIWg58hsXPubHyA+Ndl8RdMZ6A4U7MjFwtc/wbY12467A1LplUug+gZadQwqa0CLgOarBFwM+OWqv19M7vTB/TDvl99BRr+eQdsCBwVSqZ3Suu9cvRlL3l2A3M2ME2hQOQSUOxBCK8C0BLQ7oOkkARcDwhNQohBqQ9rAPrjsZ7cja2h/1YJpTqSpvkElEl07fzk2r9wm/gEjBo2W/1jHoPxV7oC2BDRuEBRiQJQYiMvQEhqCiKR4zP35NzF06gQVw6+BmP9N2LhwJZa/twgFew6pRKNqcVCzL0A95LlLBJhhSG6vFgFNpwkaMSA8ET7sIaEIiYzAxCtmYsbtVyOSSVHOwFLNWInaqmqs+YTDgxtQsDNfJYjlQiGGEBgiwH6B43kE+FeLgMZ9gkoMCE9GyrUaZWgWq6DvmCG46O4b0GNQvzPGSnBIhS8/XIocsQQWvvEZamoaVWuvhgRFBDh7kCLgEgSOimh3QOMpQScGLpQgSNF2hIYiOjUJ4y89D9O+fhkiY6PNd5x+cGRg6/L1yFmyBjvW7kCDiABjHtTcAbka4U4jSIgCwAvE565uFS0CGk8JWjHgSUkdUBObHPJwhoWh95jBOEdch2HnTkQorQRXTeiisEVXacWKy7Bx6TpsX7kZuVv3njA8yLkDx/oDnMYUYtUvoEVA42WCVgxcqEhFpxjBtlAlCnabDQPPGo5L7roBab17+GSik8+RysyhQa40tPTtz7BucY5YBVxgJERVetcEogh5D4cGw+QnqjwD7A+Qa6AFQOMLgl4MiLIS5OEabWgWYQiPjRELYTwmXHIe+gwf5NEiLX5BfgBTjB/clYctyzcoCyB/R74xeYq5BaWic9owk4lweTEOFboWGRG7SB5aBDS+pUuIgQs1/ZnVQ1pHZSWI0RwaE4nss0Zi/IVT0XfUYETHxwaFteByAZrqGlC4twB5W3Zh55qtyN9dgKaGZtX7TwFgxyDjA1zWgM10BWg9uPpLtQho/EGXEgNinGyLNKahUumBZoYzS+VvsYUhJi0Zo6aNxZSrZiMlK1O9MxBwnsCutZvlsRVb12zDUS4xLhYAK75q8en/yw9xuQTsE1ABQrLPGBrUAqDxP11ODFzwpKX+sPao5fuZMKVJnnNI0i777SIQdCtYq/jH37BiG3+NFp7DgIYQGCLATkAKAoWBP4an6IoR0GgCQZcVAxc8eT7YySjNrBIAFaMglYoi4BSBUD/Qz3VMtfJyAvT3WemNDMOGa0AR4+tGlKAWAE1w0OXFoDWc8MSKxurFjkZi/LhAVDbD3FdnICfG50bLb1R+Xf01wcZpJQbE+DFsfY9Xt0D9wNZn4Jp0pUVAE6x0wUH6k8PKxnaXhoHroRYHDcDj+DkYlgAfGk2wctqJgUajsYYWA41Go9BioNFoFFoMNBqNQouBRqNRaDHQaDQKLQYajUahxUCj0Si0GGg0GoUWA41Go9BioNFoFFoMNBqNQouBRqNRaDHQaDQKLQYajUahxUCj0Si0GGg0GoUWA41Go9BioNFoFFoMNBqNQouBRqNRaDHQaDQKLQYajUZx2i2iEkwk9UjH9O98DREx0eae45e6aNc+LHruTWM9BflHr6ngG3jF9bXtHNoy8CGRsTHod9YoDJw81nyMO/boMWIQnKGhcIRwgdjArfp0uhEVH4vRl07H7S/9AfHpKeYy/prOoMXAl7DFN5dV+wqhNtSH2EQMQpQocI1IjWek9OmBm599CBff+23EdUuE0ybXVa6zQ64tRUFzcrQYBIowG5pEDOxiGWgz1jPi07ph1g9uwe0v/B6pfbMQEmqswO2whaNRrm8LxVauspaDk6PFIGC0qBbLWDVaF1OrsPLf9sIjmHjdRQiLijD3khA020RsRRV4dbVhcGq0GAQMabrk6qsy2mrFaI17RMbFIjohztxqhel+OcVKYJ+MWgFXc1K0GGi6Nh3UcXbVUGO1RdB5tBhoujjt13aXsaXtgc6jxUCj0Si0GGg0GoUWA41Go9BioNFoFFoMTgMY5RgeHYmohDhEJycgptvxR3RyPKIS4xAeE6m62H3duc6AH87FiEqMR0ybc+F2dFI8IuNiYIsIM8b/jY9ZolOfZQ+i7kXsFHqikg/JyO6LG568T8XLtyVv00789e7fI9rhQHSLA7YWp9tD4WGRERgxeyoGThmL1L49EZuShPCoCITabOY7AKfDCXtTE+qOVqEk7yDy1m7Gmjc+lfrBL3MqIfFGXQmLiMD4q2aj74ThSOmbhZikBLUv1Ha8vWlxOtX5NNTUoupIGUr3F2LHotXYtXSdUWdDWBRPfj6Tb5mHniOyjwkBr23Pkdnqd7TG3mzH/q170FzfiNAWI/6Q76gqLsPHf/yn+hZ+nzd+++mCFgMf4isxYJDN0BmTcM7XL0VSVoa5t/PUVVRhyT//h52L16KmtJwGg5iI1qpFQkYqxsw9HxOuvrDd33lKpKKWHSjC0hfext4vc9BQXa2uQ0eScNUjP8bg884yt9ynNL8Qf/v6T9XRQ50t8l1aEFxoN6GL0X1If9z83EOYc89tloSAsNW+8MffwM1P34fk3t3FPuDMSfddiPSBvXHT0w9g6q1XWRMCIkqUIucw77478fW/3AtbTIycy8nOx7OqGxIainqEoZm/mW6Tjv48hhaDLsSQ88/G1X+4RypPj6+Yxe7Cz6f06oFv/P1BjJgzFXZpjt0RBE7NvuGJXyGxe5qn9VPBvoasYQPx7Rd+h24DesMhJdMp+71utooYNMrDzslL8h16XshxtBh0EbKnTcAVv/mBmqHXEU7xyetr6lAhfnHR/kMoOXgEtRXVyn/uiNjkRFz841sx7Pyz0BIWCnHpT1k9ImOjMeN7NyBaLIz2aBHTv7mxCTVHq1B6qBiH5Vx4PlVlFWisb0CLmizQPrQSZt99A5yh4cb07jZvbW5oRGNtnTzq0VhXjybZbg/2T/C7+J7Wj6aGBjhEvY4fV1sGLnSfgQ/xVp9B7zFDMe8330dcSrK550TYKbdn/VZ89O8PUV1eifqKWtSIKESEhyKePfoJcZg2dxomXDQN4ZGtZ/Ydp6G6Bv+4+3co2bMfNjke+/3aOx224HN+cjvGzpvRrnVSUVyKT198D3u375Nj1qKusg7NTc3ySgsSk+MQHR+HfkP7YfbNlyG1Z/d2v8Qu73/3j//Epk+XIVwqdai6NsYbo7slIVTEyB4aJi28DT3kGt/8qztO6DQltVXVeOnBZ1F2pEypGy0AHsHZ7ER5UQkiW+zquofxt7b3Q89AbDN6jfi1+VzjZeJSkjDq4vNUr39bjh4pxepPliNcWtFwKahqxn07hZJCMu+h76NbL6k4bZFCXn64GK8/9iLeff4dZRHUV9aipalJjulAqAiNXUShTlrk7Ss3Ye/6bUjrmYHkTDHt28BzzBzQC9uWbYBTPu9yGNqeEi0TWgXM4tSW7Ss34tn/+yt2b9qLuvIqNNfVIdRuh00M/gip0I56adUrqnA49wDWz1+JxNQEZPTtKZb7iQYqK3Zst0Rs+GI14LCDgwy8NjyXproG1FfVorqmFrWVNYiNicLEi89VfQGtocWw+I35OJJ/BI0iDE2V1fLdNWgWgaLwqutOkZH3tnfdz0S0mxDknH39paqjrj2K9h3Afdf/AhsWbVAFPEJa0Ri2eE6j1YuRihgjz2OkQnG7aMsevHDPn5AvVolZ10+g94hBmCgtPjvXjFwLX60lGYP6qg7IttAFePvpV1FZUo0wOY9IEQB+Z6ycTwzPxckHz8eBKHlAKuibv30ee1ZvMo9wIpn9eiI+M1WdCyu6y7c3hgNb5BhOdZxIOXZ7v0Uh+1npI+R90TwP2OW87IgSoeT58dcZw5kaosUgiOkm/jPz+bVt9QitgBd/+5wUeMOMjmTlkIrBBws/hSEsRB6yHcaWWba53yZ+9Cu/+isO7thrHqkV0kSOvXAKoMxwm+rEa1tV+o4bjtCwE01y9hHsXrsZh/NLxOTmuRjnQReIZjjPjWLFc7Hx/OR5uKqgDqx67RM4mulGnAgtlR4De0nVDTUTlFAQaB2EiKUhgsDfKMexnaT/QQmHPMLN30+Xg+fG56F8KEHQZoELLQZBzMBJYxCX+tV+AvrUn//nfRzcWygVXVpJioFULBZ0FnKa5aw6vLn0tdkXwW3ut7Fzr6wSX77yoVTCr3YsJndPx9gLJqpErZwH3LaqRca5Mj23Qo5ZfbRSVdIwmt8iCKzsDPahOPAo9Mt5Ljaej9o2KuTBLTtRWnBY9Xs0iRtRI25Ecf4h7N20G1FxMaoTkaLUGlZg9btUZeaYQ8fwu+Sr+CH1fnVNZJ9xTbQQtEaLQRCT3UFwTcnBIqxbvEFVtkhpGdni0xxmYXdVOhZzV1F3PTcqkLxPhGPv0vU4tDNXvd6asPAwjJoxSVpkqWbyfroKLhOd/8rXfAVaLoPEYoiOChcxMPzxEJ6PfCnPxHUeLozzMUQKImyv/uQPeOzrP8Ufb7oXj9x6P/747Yfwtx/+Ccs/WKLOl7T+l7iOIad4cuQjStLUR41zcT00J6LFIEhhRx1DjNtCk3z76s2oq6hV5m+Y+L90A0KkEqrKYb6vI1RFkBrkFNN874ocNQTXlqzsvkjtkyn+OgWB33n8qJVFpdxhbh0na1BfzL7xEnl23Jr46rtORJ2LvIuhydUicDVy7MbScqCmXvn2kWItKHfHQXFxfULjK7QYBCkDp45TZnJb7I1NyN+2Vyo03QExy5Xvy1ZfKozxllPC9/H9u5dtaDcGISouFt2yMpRl0LYC7li8RrkpbaF1MOOmy3HXs/cjtV9PhMdEm1bFqUTBsFZoUdDVEcfA6ASV5+wIZUefMbTY+d+nsYYWgyCl+5ABX+moIwwq2r5+p/j+YtJLCx3GSqJaanerSogK4LG3E7TDyUUxyYkqjbsK0KG7YL5Wd7TSsA7aQ06h1/CB+O4Lv8O3XnoEVzz8fYw35ywY0Y2u/47DszbcGrO/QawBdvTRIlCxF+ICdRTzoPEuOs7Ah1iOM5AnZ19/CRLbiQdoamhCUf5hZIoZ371Pd2T06SEmvTz69kCKGw++P7VvL/SbOALhUZHm0Y9z9PARbF+zVXUGspLy1PhoamxUnX39JoxsV6wIxYSTqdL79VKdoOdcfykGnzdRZTIOjRDnRj7fUFuv3tu6kqvvoLjJE+O5Syg6JiEjBaMv+eqIC89z9cfL0FBRcyyegI+THetMR0cg+hCrEYjRifG4+e8PqhWCAsXmxavx4v3PyPmJqS7nZlM2gmEhOG02XPXQ9zHs/LONN7sBhYCuTtmBw1j31nxs/GCxOi7dHlZVdytr1shBuOmpX39FmGoqq/DEXQ/j6P7Dyt3gqIsakjRf13wV7SYEIbbwsA7Dhv0FowCNgTvTvDebDFWZ7E58/OcXsOWLlXDYO5730B60GiJiotB9cD9c9n/fwU8/+5earTjx2osRl8a1EY0+Bt1C+R8tBkFIiFSY0PD2TXB/ERUbY1RKKSEUBOKqoKHSiteXV+J/Dz6FT/72MiqLy9odlegMUfEx6H/2aMz+4S34ziuP4qzrL4ZNvtslChr/ocVA0y5Op8MQgxaX6X68qCizXkwFzjtY/b/P8Lc77sfLDzyJgm175P3WqzBnQ866+ybc8NjPkdQzXRyTUC0KfkT3GfgQq30G8Rkp+MY/H0ZctyRjRysYcLR74x7V0eZLCnfvx7J3FhlDfA7xudmJ2GZ4jxWVVoNDTtweYkNzSAjS+/fA0Cnj0GfoAPQZPgBxSQnthlOfiuK8A3jlZ4+i8lCJObRouiht0H0G3kOLQUewK7sVLVIgjTax81gVAyYOveXvDyG5V6axoxU5C1bgHw89r5rLUHkYFdT7RZw9BTx+lFQkzgHgvAIGK7X9Ji517mTosrzGqEV2M3JIksLQIj8oo3cmZn79IgydNBYxifHqGJ1Cjrtl4Uq8fv9TxqQiipHsbvtpLQbeQ7sJrUjr3wsX/eybuOaPP8XtLz6CH3zwDH668CV8543H1Tx6yoE/zFZX4o72SEpLUZWUFTSaATriqxuzAX3waLGroUUWEtbh9ioSh/5YyTjPgIFDEXKV1AxBft7uQPm+Q3jt4X/iV5fdjT/d9Av861dPYuGrH6P8UDFOluSEX5g9eRwGnD0STfIN6rp74IJoTo0Wg1YkZqZi7LyZGDR1vJqqGysCwF79iOhoOKOipbXjTL5QNloe094kIReM8GMW3/ZISElCmC1UxSeo2YFS6YyHMTXYew8z8MchYmBaRR3BV2jVUBRs8lkbPyufURGFIgyxFC35W76/EDuXrMXHT7+O337tZ3jhl49j7/rtcIp11B6R0VFqlmSzWBpcUZntupYD36HFoBUdFTQKgiMiUs2tpxAwVL8zhTJS3AMOE7ZHrZixPIiqYu34/0f27G+3hz5eBGrYhKHqOQ1jNTNQKh7jAHzykBPsyF/nWbd+EGUpyJuVtSCfZ7g0pzFHSNNu5DVoFqERq8Fhx65lOfjXz/6MVW9/ruIP2qPXkH5wiPjZ5biddjE0ltBi0IrmhiY4xbRtCxf8iE6KQ7PUCocqj50rlEzx1TYdF2ElryqtMDbkUG2Pxu3967bB3vjVOQBcF2HoOaNUDVXVR8SAlYTTcd19xMj5nXXNReox+uLzxCQfYyZbNVrhtmfWa/QQTLzmQpz3rWtx3Z/vxZ1v/hU/W/hvfO2xe43IQlEEV5XmJ/kdrL8ciuSEKjW9Wt7EIKYI02oIb2jA/GffQPG+A8YH2xCdQLvCmHzMY58YzKzxJloMWlEnrbW9nUQbrNAjJkkF5DCblG6jQJ66UHbrldmuZcDEpUwUSoPgxOp2nPycnagqKTe3jsPvHzppjEoLxrn+oR4k8BsoPvnMu2/C7B/dist+dSeuf/wX+O5rj+OXy1/BiAunwcEpi4Lrl/YaPRiz5L1Tbr0SA+QckrMylDgxJZsjKkrOR2wJqbGtrwyPwG5H/qdcCXlQalRuBXkvrZrwxka1wEt78Po5pZQy8xI7J12TnzTeR4tBKziVtr6i2tw6DnP0ZU8cKYVSLAPlI7BQmi92AAtxz1GDza0ToQWybskGVVMoLKwwbWF4bv6GbebWiSRnpGDqvPNV5eD5GFGC7sF5E5Numtvu/ALOZGQiUZrnbJWVayT7S/YfatdyYgKWPuOHoYmjCnKtTpVynb/XEAejh5+uTlhY++4U5zBQAHjtCT+n8Q1aDFrRUF2Hw7vyzK0TyezfC+NnTDQEQV21k186pizLGj7I3DqRytJyVJXXGCa0bLPynNieGnDpsfZcBVoqU6+Zg+HTxinXxV0hIOOvmqOmGrfHod37sWfnfjSy405OzWX6H96Zi+rSo+bWcdincsEtVyBcXCmuv2CcT+fOir88MiYK6QN6GTvaUFxwWMRAjsXDuaEDtKDo7mjt6DxaDFrBMfvdy9a129MfJj7x9OsvpnErhZOtX8feKxcXnXvfXYiRv+1xOO+AKuAM5FHrAIofTWE4kRDsW7dVPdqD2Ynn/uAm9BjUR43ztzXPT8awWZMx8doLVYVpC9c7WPTaR6hvchhTl1UlNN5XdeQo8tZsMipnG3ge06+bY6RLoyAogesck26ci+SeX42pYN9K3tZcPlFWBH9g26vOU2nvTkSoUSBzfocWhE6hxeAEQrBzyfoOh/V6DOqLH7/0G/SdOFwNdamx71ZFkS129rkTcN2jP1cBR+3B5J858h30nVVIr3zaqGsnlli1JV/wxd9fQU2Z2dnYhsSMVNzy+L0YN+8COGnSq/MxHu0RKqY4K94lv/iOWim5Pfbm7EDOqu3qOesfrXMjX4L8Fddl/dsL0FhTp7ZbQ2GZeu3FmPvDGxHG/AWybVyfkzP55nlqunbrBVpdFO0/iC1fblJxFap/gddKPY7D69levEJ4ZCSyxw01XSiXc2HcK9dDcyI6n0EbmA4sPj2l3ZV9uR2XnIgxc6Zg6HkTECstf2Ntg0odzgJ94T23Y/yVs9Tn20Uq1b7Nu/DWM/9TOQxUlmAlCFJk5dgnfpsgO2rKqmG329Fv/HAlNm2JiIrE4MljMXjqeJQfKIJdTARWYs4m5DEZ789EJVnDBuCaP9yD4WIVdDTcWVV+FG8+9m+UFZUhUs7PmLpM64UtM88uBLXllarDMEMsgbbXxxZmQ89hAzH8/LNQV1mNeq6ALG9hHAGtCVZ4dT5yvdIH9MZVv/sxRl40rd3fxViLD559A7nb8sBELgxmUtdKjtf6WznRacyl58tvCjf3HGfAqGzEx0ejRlybGBGosZedjykiPlvmLzfeoI514m84k9HhyG3gxYhMiMMNf/2lmmbrTWqlgjz90z+jYGe+CrGNctiNPIZSyDsqkspfl8oy/VvXYOqNl8sd67jw0qxu4KIpFVVoqKpV742WSkC3hanMuBpSR9A9eOk3z2Hjsg0Il8obJd/MRKuMKmxdAZ1yhaISE/A1sX56Dh9o7v0qrPzGgiciCpU1yvViZ6U6H7m+kXExHc9ZkJuwcfFqvPS7f8Eh56XSrjvtRoq3VudCKLy3PvdQxwIsuCwH/v56uQf/+u6vUbb/sBzHFOIOr/6ZhbYM2oG9/Yd370e2tLace+8N6qpq8N7Tr2Hr6m3KKmBWY5XfT/6epI4qWJgPbM9FaEQYMgf26bBlZ0vNzjzOAUiQypGQ3k0lSuG+tq14a7gm4ltPvoJ1C9eoob4IOT9ltbCyiJlxYmUJUdmWDu3ch0GTx7Sbp5Hw+9jPwnkZ8anJKiMRk7xSCJj5qaPzoYhsWbYe//3DCyp1OtdcoIWi+lfU+ZhvNLE32dFDrJG0DjpDCb/L9X0UoP1b96j1H7kntIWvqZfOeLQYtMEoFy2oKqlA7vqtGDJtAiKiPRMEFth/3P83bFiaI4Wai38w1Rmj81pg+0plOxG+wo5NZ7MDu1dvRWnhEWRPGtOhILhLddlRvPjg09gkvjnXVGCKMFZAte6BfHvbyue6PjVllVjx7kKMPH9iuyssWYHuxPpPl+Gfv/kH7I125RrwYSRFlfNhpTbf64IxG0dyCzDsgnM6dZ84TFyYe1Cty6DWdJB7QDFoe9wzES0G7aBaEfm/prwK27/MQWRMJNL6ZLXr254MLjias2AVXv7Dv5C7JVelNA8Xi5WVjasdsfIZvvjJUVVAPsd3Fu8rxJbFa+CQipPau7tq9a1QJX401yJ85dGXUJh3CGEO+uXGnARGC/KXtjXJXfD6cLCgRSrotiXrUStWT0b/npZFkyKwZ8M2vPLnf2PxWwvVCAutErU4jBIlimYH5yIPrjRdfugI+owffupzkHMvFkHdsmKzmskYrsS4/WOfaeg+gw7gRZF6oeIKmkJs6DlqIM6+craapx+bnICIqIgTxIHmLePrmXH4aHEZCnbux8I3PkHhviLVG08zlzMAuRZAuFQiNZLQQQHvCDWcGRKqlhxrkg9HJcVj8pWzMFAqQUpWOqLjYlXo9AkLmcoPYetpb2pCXXUtiguKsHP9Fix7dwka6hpVy8hOQroFFAPVR2C6Lic7N3V9RBEoCrw+TXItzr1mFgZPGou0nulq5Wflnsi5tHYJ6PJQyJrqG9T6jPvE/Vn5/iLk7ixQ30tLidmR1ZJwci5qQRZ5fjLrideF0Y+x6cmY8/2b0GfUYHGV4mALCzv23bw/7FRtrGvAVnFD3nrsP7DJNWFItDGqo9FicBKMAi9/pUBzfn6TFJkI8ZHDYmMRIv5wi+yjKc3UYFKeVAceO8rqqmrRaPakMxafLZCx2IkhCpzVxzLacfHuGA6OsWpIlVX5A5qlEraE2RAhvnlYVBRCuC2CwcLN8+KPUEJld6iKUCuCwJNlDz070Fjh1JqMIlLKUpGPtE1i0hG8PvzdnMnJ0GguusJKqc4lRs4lTKwWORCtH4oGn/P9LfJdHC2oq6lV/TM8D54PLQDVoUrBlOdq/ymEgPA8eJ8Yb9FsC0N4Yjxscp9aQikphoXDv+p7Gw1RRGOjOavSFGYe6AxHi8Ep4MVRhU0KJMfOjVWGjFl0KkxWFXIWW1XWFapw8SE7WPEpAsrUlX18Td5+iuJ9ctT5qC802kyKAiP/KBAqfl8OzpfbOy+p56qys/KxoqmRDJ4rz5F/3TwxHl8+poSRk7jUtZFv5LWiBWO8xzgn47l5PjwPPje/m9aJmuFovNvYL28wP3ZKeFyXIPBaqAVb5dPH1nyQvwp+rxybYkMLjROmlAAar57RaDHoJKpFlqbWIZ6BNKSq0rG0GhWBbzCLE1tVPmeFk9JJX5fug/J5VYtrvs9DXDeNgsRKyIqj5inIX1W9WOvVG4zv43fzufrL81L75CHPVeXjc/VOa/D68FpQnJjhiEd1RTDyOa9H62tk/FEnIO4B1GIwdDuUYLpeV/92Hn6KgsC/PAeKAe0Nfp9xRPOYvA7yPWoBGhEg3huNXBstBu6hCpoUJJriLljgXagGiNss0PK/q5L5srypc+KDJ8Lz4oZ8YevzIsfPTf4X94A7vH1u6jzUE/lXzkWdwynOhU8M+fCOVCqXoNW1aPPVxnfIP2p9SvMaaJRsatyBBYc+sDKrlWHOluX4Q+1Tf43Wmn99XdjUOfHhOi/zPFqf1/FzM8xy473eP7fW58IKbnxfR+fCv3ydn/FepWx7Lb7y3XyY18DX96YrweumsQALEYtSx/95v6KdCtd3tj6Lr/7nv/MK5Pmc+rs1bdFioNFoFFoMNBqNQouBRqNRaDHQaDQKLQYajUYA/h+tGybPf+udvgAAAABJRU5ErkJggg==;" parent="1" vertex="1">
          <mxGeometry x="900.0006493506494" y="727.75" width="45.64935064935065" height="57.98701298701299" as="geometry" />
        </mxCell>
        <mxCell id="8G_4z4q6PhV-p-1qb1yc-45" value="Quality gates" style="text;html=1;align=center;verticalAlign=middle;whiteSpace=wrap;rounded=0;fontFamily=Bai Jamjuree;fontSource=https%3A%2F%2Ffonts.googleapis.com%2Fcss%3Ffamily%3DBai%2BJamjuree;fontSize=12;fontColor=default;" parent="1" vertex="1">
          <mxGeometry x="760" y="690" width="90" height="30" as="geometry" />
        </mxCell>
      </root>
    </mxGraphModel>
  </diagram>
</mxfile>
